<?xml version="1.0" standalone="no"?>
<!DOCTYPE svg PUBLIC "-//W3C//DTD SVG 20010904//EN"
 "http://www.w3.org/TR/2001/REC-SVG-20010904/DTD/svg10.dtd">
<svg version="1.0" xmlns="http://www.w3.org/2000/svg"
 width="500.000000pt" height="500.000000pt" viewBox="0 0 500.000000 500.000000"
 preserveAspectRatio="xMidYMid meet">
<metadata>
Created by potrace 1.11, written by Peter Selinger 2001-2013
</metadata>
<g transform="translate(0.000000,500.000000) scale(0.100000,-0.100000)"
fill="#000000" stroke="none">
<path d="M2380 4926 c-25 -7 -56 -19 -70 -26 -68 -36 -165 -52 -336 -56 -222
-4 -278 -22 -419 -136 -83 -67 -219 -132 -329 -158 -115 -26 -222 -110 -303
-234 -61 -94 -142 -177 -227 -233 -90 -58 -118 -84 -172 -157 -29 -38 -51 -83
-65 -130 -51 -174 -98 -269 -186 -376 -94 -114 -114 -181 -117 -398 -3 -175
-10 -209 -67 -357 -19 -48 -23 -80 -24 -160 0 -90 4 -111 37 -205 48 -137 56
-188 56 -350 1 -193 23 -257 143 -405 52 -65 122 -211 144 -300 31 -133 111
-239 240 -320 85 -53 177 -146 239 -239 29 -45 71 -98 92 -119 54 -53 144
-101 239 -126 107 -29 225 -89 310 -157 74 -60 165 -107 230 -120 22 -4 101
-7 175 -7 147 1 238 -15 359 -63 110 -44 267 -42 361 6 75 38 169 54 339 56
214 4 278 24 408 130 95 76 206 131 326 160 74 18 147 55 198 101 l39 36 57
-12 c31 -6 68 -11 83 -11 15 0 35 -9 44 -19 10 -11 31 -23 46 -26 23 -5 33
-16 47 -53 26 -70 38 -90 64 -110 37 -28 57 -33 111 -26 72 10 100 37 103 100
1 27 -3 57 -8 67 -6 12 -4 30 4 50 8 18 14 37 15 42 18 103 109 601 120 660 9
43 16 101 17 127 0 47 -18 98 -35 98 -19 0 -4 30 48 95 103 129 129 207 126
382 -3 143 9 215 60 366 38 115 40 127 35 207 -2 47 -12 105 -22 130 -60 158
-68 200 -70 367 -4 217 -26 294 -117 401 -79 92 -155 241 -172 337 -12 64 -65
165 -115 218 -25 28 -77 70 -116 95 -96 62 -186 151 -249 246 -94 143 -176
204 -331 245 -109 30 -226 89 -310 157 -134 108 -192 127 -390 126 -163 0
-252 15 -375 65 -78 31 -217 40 -290 19z m460 -390 c80 -14 186 -37 235 -51
740 -215 1308 -839 1454 -1597 36 -183 49 -423 26 -445 -10 -9 -14 -9 -18 1
-3 8 -17 12 -32 11 -14 -2 -28 2 -30 8 -2 7 -6 63 -9 125 -27 504 -221 945
-575 1302 -311 313 -717 513 -1152 567 -81 10 -371 10 -467 1 -432 -44 -878
-266 -1191 -594 -290 -302 -471 -669 -535 -1084 -15 -96 -15 -457 -1 -545 37
-223 94 -413 179 -587 183 -379 489 -696 859 -893 48 -26 87 -49 87 -51 0 -3
-4 -3 -9 1 -5 3 -22 -6 -38 -20 l-28 -25 44 19 c32 14 51 17 74 10 16 -5 34
-6 38 -3 5 3 9 1 9 -4 0 -14 146 -65 275 -96 159 -38 290 -54 455 -54 129 0
176 3 325 23 80 10 283 65 383 104 95 36 105 38 130 26 15 -8 45 -17 67 -21
l40 -7 -80 -38 c-178 -85 -472 -162 -675 -177 -230 -18 -489 4 -701 58 -262
67 -542 208 -763 384 -655 522 -932 1383 -702 2184 232 805 922 1389 1756
1486 163 19 399 11 570 -18z m-130 -151 c246 -28 518 -117 732 -241 182 -105
399 -290 527 -449 238 -296 389 -668 416 -1027 16 -209 16 -208 -11 -208 -23
0 -24 3 -24 68 -1 123 -28 319 -61 442 -179 657 -691 1162 -1344 1325 -299 74
-660 68 -948 -15 -630 -184 -1108 -667 -1281 -1295 -34 -124 -41 -163 -57
-320 -10 -102 -7 -321 6 -405 62 -388 205 -703 445 -977 191 -220 482 -422
738 -513 75 -27 73 -35 -8 -41 -28 -3 -194 73 -308 140 -251 147 -516 412
-663 663 -143 245 -236 535 -257 803 -9 110 -8 312 2 390 84 641 472 1187
1051 1478 198 99 493 178 710 190 73 3 271 -1 335 -8z m-1140 -359 c0 -2 -7
-7 -16 -10 -8 -3 -12 -2 -9 4 6 10 25 14 25 6z m137 -21 c0 -8 -4 -15 -9 -15
-10 0 -11 14 -1 23 9 10 10 9 10 -8z m-126 -12 c12 -16 12 -17 -2 -6 -9 7 -20
9 -24 5 -5 -4 -5 -1 -1 6 9 16 11 15 27 -5z m73 8 c-8 -8 -34 -10 -38 -2 -3 4
6 7 19 7 14 0 22 -2 19 -5z m246 3 c0 -8 -19 -13 -24 -6 -3 5 1 9 9 9 8 0 15
-2 15 -3z m-90 -26 c0 -4 -4 -8 -9 -8 -6 0 -12 4 -15 8 -3 5 1 9 9 9 8 0 15
-4 15 -9z m156 -24 c0 -13 -2 -22 -5 -19 -3 3 -6 17 -7 31 0 13 2 22 5 19 3
-3 6 -17 7 -31z m-337 13 c8 -10 7 -14 -2 -14 -8 0 -14 6 -14 14 0 7 1 13 2
13 2 0 8 -6 14 -13z m237 -13 c1 -9 0 -13 -4 -10 -3 4 -7 14 -8 22 -1 9 0 13
4 10 3 -4 7 -14 8 -22z m44 7 c0 -6 -4 -12 -8 -15 -5 -3 -9 1 -9 9 0 8 4 15 9
15 4 0 8 -4 8 -9z m96 -27 c1 -9 0 -13 -4 -10 -3 4 -7 14 -8 22 -1 9 0 13 4
10 3 -4 7 -14 8 -22z m-201 -3 c3 -5 2 -12 -3 -15 -5 -3 -9 1 -9 9 0 17 3 19
12 6z m-319 -25 c0 -14 -3 -23 -7 -20 -6 3 -6 22 0 42 3 10 7 -2 7 -22z m241
9 c0 -8 -4 -12 -9 -9 -5 3 -6 10 -3 15 9 13 12 11 12 -6z m319 3 c4 -7 4 -10
-1 -6 -4 4 -15 2 -24 -5 -14 -11 -14 -10 -2 6 16 20 18 21 27 5z m-199 -11 c0
-8 -6 -14 -14 -14 -9 0 -10 4 -2 14 6 7 12 13 14 13 1 0 2 -6 2 -13z m-321
-21 c1 -7 -4 -13 -12 -13 -9 0 -11 4 -4 12 5 7 8 15 5 18 -3 4 -2 5 2 2 4 -3
8 -11 9 -19z m41 7 c0 -9 -4 -10 -14 -2 -7 6 -13 12 -13 14 0 1 6 2 13 2 8 0
14 -6 14 -14z m123 5 c0 -4 -4 -8 -9 -8 -6 0 -12 4 -15 8 -3 5 1 9 9 9 8 0 15
-4 15 -9z m184 -16 c3 -5 -1 -9 -9 -9 -8 0 -12 4 -9 9 3 4 7 8 9 8 2 0 6 -4 9
-8z m122 -4 c3 -4 -1 -5 -10 -4 -8 1 -18 5 -22 8 -3 4 1 5 10 4 8 -1 18 -5 22
-8z m-69 -25 c0 -9 -4 -10 -14 -2 -7 6 -13 12 -13 14 0 1 6 2 13 2 8 0 14 -6
14 -14z m158 8 c3 -5 2 -12 -3 -15 -5 -3 -9 1 -9 9 0 17 3 19 12 6z m121 -16
c1 -8 -1 -17 -5 -19 -4 -3 -7 6 -7 19 0 25 8 25 12 0z m-696 -6 c0 -5 -4 -9
-8 -9 -5 0 -9 7 -9 15 0 8 4 12 9 9 4 -3 8 -9 8 -15z m376 -3 c0 -14 -3 -23
-7 -20 -6 3 -6 22 0 42 3 10 7 -2 7 -22z m-465 -9 c-10 -9 -11 -8 -5 6 3 10 9
15 12 12 3 -3 0 -11 -7 -18z m149 17 c0 -8 -19 -13 -24 -6 -3 5 1 9 9 9 8 0
15 -2 15 -3z m124 -6 c-3 -4 -9 -8 -15 -8 -5 0 -9 4 -9 8 0 5 7 9 15 9 8 0 12
-4 9 -9z m146 7 c0 -2 -6 -8 -13 -14 -10 -8 -14 -7 -14 2 0 8 6 14 14 14 7 0
13 -1 13 -2z m125 -4 c3 -5 2 -12 -3 -15 -5 -3 -9 1 -9 9 0 17 3 19 12 6z m96
-8 c12 -16 12 -17 -2 -6 -9 7 -20 9 -24 5 -5 -4 -5 -1 -1 6 9 16 11 15 27 -5z
m-127 -11 c3 -5 -1 -9 -9 -9 -8 0 -15 4 -15 9 0 4 4 8 9 8 6 0 12 -4 15 -8z
m191 -1 c3 -5 2 -12 -3 -15 -5 -3 -9 1 -9 9 0 17 3 19 12 6z m51 -3 c3 -4 -1
-5 -10 -4 -8 1 -18 5 -22 8 -3 4 1 5 10 4 8 -1 18 -5 22 -8z m167 -13 c-3 -9
-8 -14 -10 -11 -3 3 -2 9 2 15 9 16 15 13 8 -4z m-909 -3 c3 -5 -1 -9 -9 -9
-8 0 -12 4 -9 9 3 4 7 8 9 8 2 0 6 -4 9 -8z m440 -3 c3 -3 -5 -5 -19 -5 -13 0
-22 3 -19 7 4 8 30 6 38 -2z m-487 -24 c0 -8 -4 -12 -9 -9 -5 3 -6 10 -3 15 9
13 12 11 12 -6z m99 -10 c1 -8 -1 -17 -5 -19 -4 -3 -7 6 -7 19 0 25 8 25 12 0z
m50 13 c3 -4 -1 -5 -10 -4 -8 1 -18 5 -22 8 -3 4 1 5 10 4 8 -1 18 -5 22 -8z
m714 6 c0 -8 -19 -13 -24 -6 -3 5 1 9 9 9 8 0 15 -2 15 -3z m40 -2 c0 -5 -7
-9 -15 -9 -8 0 -12 4 -9 9 3 4 9 8 15 8 5 0 9 -4 9 -8z m-84 -17 c-1 -8 -5
-17 -8 -21 -5 -4 -4 16 1 34 3 9 9 -1 7 -13z m-541 -6 c3 -3 -6 -5 -19 -5 -14
1 -28 4 -31 7 -3 3 6 5 19 5 14 -1 28 -4 31 -7z m-251 -21 c-3 -4 -9 -8 -15
-8 -5 0 -9 4 -9 8 0 5 7 9 15 9 8 0 12 -4 9 -9z m120 0 c-3 -4 -9 -8 -15 -8
-5 0 -9 4 -9 8 0 5 7 9 15 9 8 0 12 -4 9 -9z m352 -14 c1 -9 0 -13 -4 -10 -3
4 -7 14 -8 22 -1 9 0 13 4 10 3 -4 7 -14 8 -22z m44 14 c0 -4 -4 -8 -9 -8 -6
0 -12 4 -15 8 -3 5 1 9 9 9 8 0 15 -4 15 -9z m76 -14 c1 -9 0 -13 -4 -10 -3 4
-7 14 -8 22 -1 9 0 13 4 10 3 -4 7 -14 8 -22z m41 9 c0 -9 -4 -10 -14 -2 -7 6
-13 12 -13 14 0 1 6 2 13 2 8 0 14 -6 14 -14z m38 8 c3 -5 2 -12 -3 -15 -5 -3
-9 1 -9 9 0 17 3 19 12 6z m-717 -26 c-3 -3 -9 2 -12 12 -6 14 -5 15 5 6 7 -7
10 -15 7 -18z m257 16 c3 -5 2 -12 -3 -15 -5 -3 -9 1 -9 9 0 17 3 19 12 6z
m142 -6 c0 -8 -4 -12 -9 -9 -5 3 -6 10 -3 15 9 13 12 11 12 -6z m-326 -18
c-10 -9 -11 -8 -5 6 3 10 9 15 12 12 3 -3 0 -11 -7 -18z m49 11 c0 -4 -4 -8
-9 -8 -6 0 -12 4 -15 8 -3 5 1 9 9 9 8 0 15 -4 15 -9z m71 -11 c-10 -9 -11 -8
-5 6 3 10 9 15 12 12 3 -3 0 -11 -7 -18z m109 19 c0 -2 -7 -7 -16 -10 -8 -3
-12 -2 -9 4 6 10 25 14 25 6z m305 -6 c3 -6 -1 -7 -9 -4 -18 7 -21 14 -7 14 6
0 13 -4 16 -10z m205 4 c0 -8 -19 -13 -24 -6 -3 5 1 9 9 9 8 0 15 -2 15 -3z
m-766 -22 c3 -5 -1 -9 -9 -9 -8 0 -15 4 -15 9 0 4 4 8 9 8 6 0 12 -4 15 -8z
m120 0 c3 -5 -1 -9 -9 -9 -8 0 -15 4 -15 9 0 4 4 8 9 8 6 0 12 -4 15 -8z m-49
-11 c3 -5 2 -12 -3 -15 -5 -3 -9 1 -9 9 0 17 3 19 12 6z m-115 -7 c0 -8 -19
-13 -24 -6 -3 5 1 9 9 9 8 0 15 -2 15 -3z m446 -6 c3 -4 -1 -5 -10 -4 -8 1
-18 5 -22 8 -3 4 1 5 10 4 8 -1 18 -5 22 -8z m238 1 c3 -3 -5 -5 -19 -5 -13 0
-22 3 -19 7 4 8 30 6 38 -2z m46 5 c0 -8 -19 -13 -24 -6 -3 5 1 9 9 9 8 0 15
-2 15 -3z m-446 -26 c-3 -4 -9 -8 -15 -8 -5 0 -9 4 -9 8 0 5 7 9 15 9 8 0 12
-4 9 -9z m240 0 c-3 -4 -9 -8 -15 -8 -5 0 -9 4 -9 8 0 5 7 9 15 9 8 0 12 -4 9
-9z m-68 -13 c-1 -8 -5 -17 -8 -21 -5 -4 -4 16 1 34 3 9 9 -1 7 -13z m241 2
c0 -8 -6 -14 -14 -14 -9 0 -10 4 -2 14 6 7 12 13 14 13 1 0 2 -6 2 -13z m-480
-14 c0 -9 -4 -10 -14 -2 -7 6 -13 12 -13 14 0 1 6 2 13 2 8 0 14 -6 14 -14z
m99 -11 c-3 -3 -1 -10 4 -17 7 -8 6 -12 -3 -12 -7 0 -13 11 -13 23 0 12 4 20
9 17 4 -3 6 -8 3 -11z m-240 -17 c-1 -8 -5 -17 -8 -21 -5 -4 -4 16 1 34 3 9 9
-1 7 -13z m441 0 c0 -8 -4 -12 -9 -9 -5 3 -6 10 -3 15 9 13 12 11 12 -6z
m-377 -4 c0 -6 -4 -12 -8 -15 -5 -3 -9 1 -9 9 0 8 4 15 9 15 4 0 8 -4 8 -9z
m74 -2 c3 -3 -5 -5 -19 -5 -13 0 -22 3 -19 7 4 8 30 6 38 -2z m76 5 c0 -8 -19
-13 -24 -6 -3 5 1 9 9 9 8 0 15 -2 15 -3z m354 -26 c-3 -4 -9 -8 -15 -8 -5 0
-9 4 -9 8 0 5 7 9 15 9 8 0 12 -4 9 -9z m32 -13 c-1 -13 -4 -27 -7 -30 -5 -4
-4 41 0 53 4 10 8 -2 7 -23z m-339 2 c0 -8 -6 -14 -14 -14 -9 0 -10 4 -2 14 6
7 12 13 14 13 1 0 2 -6 2 -13z m139 -9 c3 -4 -1 -5 -10 -4 -8 1 -18 5 -22 8
-3 4 1 5 10 4 8 -1 18 -5 22 -8z m121 -6 c0 -10 -7 -19 -14 -19 -9 0 -10 4 -3
12 5 7 7 15 3 18 -3 4 -1 7 5 7 6 0 10 -8 9 -18z m123 9 c0 -5 -8 -15 -17 -22
-16 -12 -17 -12 -6 2 7 9 10 19 6 22 -3 4 -1 7 5 7 7 0 12 -4 12 -9z m-436
-19 c3 -5 -1 -9 -9 -9 -8 0 -15 4 -15 9 0 4 4 8 9 8 6 0 12 -4 15 -8z m120 -4
c-3 -4 -9 -8 -15 -8 -5 0 -9 4 -9 8 0 5 7 9 15 9 8 0 12 -4 9 -9z m-329 -7 c3
-5 2 -12 -3 -15 -5 -3 -9 1 -9 9 0 17 3 19 12 6z m65 -12 c0 -5 -4 -9 -8 -9
-5 0 -9 7 -9 15 0 8 4 12 9 9 4 -3 8 -9 8 -15z m216 -4 c1 -8 -1 -17 -5 -19
-4 -3 -7 6 -7 19 0 25 8 25 12 0z m-339 0 c0 -8 -4 -12 -9 -9 -4 3 -8 9 -8 15
0 5 4 9 8 9 5 0 9 -7 9 -15z m183 9 c0 -8 -19 -13 -24 -6 -3 5 1 9 9 9 8 0 15
-2 15 -3z m237 -9 c0 -8 -4 -12 -9 -9 -5 3 -6 10 -3 15 9 13 12 11 12 -6z m60
0 c0 -8 -4 -12 -9 -9 -4 3 -8 9 -8 15 0 5 4 9 8 9 5 0 9 -7 9 -15z m-97 -13
c0 -5 -7 -9 -15 -9 -8 0 -12 4 -9 9 3 4 9 8 15 8 5 0 9 -4 9 -8z m-183 -15 c0
-8 -6 -14 -14 -14 -9 0 -10 4 -2 14 6 7 12 13 14 13 1 0 2 -6 2 -13z m-247 -3
c0 -8 -19 -13 -24 -6 -3 5 1 9 9 9 8 0 15 -2 15 -3z m494 -3 c-3 -4 -9 -6 -12
-6 -4 0 -12 -3 -18 -7 -6 -4 -11 -1 -11 5 0 7 11 13 23 13 13 0 21 -2 18 -5z
m201 0 c-9 -8 -36 -10 -30 -2 2 4 11 8 20 8 8 0 13 -3 10 -6z m-499 -23 c3 -4
-1 -5 -10 -4 -8 1 -18 5 -22 8 -3 4 1 5 10 4 8 -1 18 -5 22 -8z m190 -13 c1
-8 -1 -17 -5 -19 -4 -3 -7 6 -7 19 0 25 8 25 12 0z m50 13 c3 -4 -1 -5 -10 -4
-8 1 -18 5 -22 8 -3 4 1 5 10 4 8 -1 18 -5 22 -8z m314 3 c0 -6 -4 -12 -8 -15
-5 -3 -9 1 -9 9 0 8 4 15 9 15 4 0 8 -4 8 -9z m-605 -20 c3 -5 2 -12 -3 -15
-5 -3 -9 1 -9 9 0 17 3 19 12 6z m479 0 c3 -5 -2 -15 -12 -22 -15 -12 -16 -12
-5 2 7 9 10 19 6 22 -3 4 -4 7 0 7 3 0 8 -4 11 -9z m83 -6 c0 -8 -4 -12 -9 -9
-5 3 -6 10 -3 15 9 13 12 11 12 -6z m-633 -17 c-3 -4 -9 -8 -15 -8 -5 0 -9 4
-9 8 0 5 7 9 15 9 8 0 12 -4 9 -9z m120 0 c-3 -4 -9 -8 -15 -8 -5 0 -9 4 -9 8
0 5 7 9 15 9 8 0 12 -4 9 -9z m120 0 c-3 -4 -9 -8 -15 -8 -5 0 -9 4 -9 8 0 5
7 9 15 9 8 0 12 -4 9 -9z m120 0 c-3 -4 -9 -8 -15 -8 -5 0 -9 4 -9 8 0 5 7 9
15 9 8 0 12 -4 9 -9z m320 4 c2 -4 -4 -8 -14 -8 -10 0 -16 4 -14 8 3 4 9 8 14
8 5 0 11 -4 14 -8z m-329 -41 c3 -5 2 -12 -3 -15 -5 -3 -9 1 -9 9 0 17 3 19
12 6z m281 -16 c1 -8 -1 -17 -5 -19 -4 -3 -7 6 -7 19 0 25 8 25 12 0z m-499 2
c0 -7 -9 -14 -19 -14 -10 -1 -18 3 -18 8 0 6 4 8 9 4 5 -3 12 -1 16 5 8 13 12
13 12 -3z m339 -2 c-1 -8 -5 -17 -8 -21 -5 -4 -4 16 1 34 3 9 9 -1 7 -13z
m-571 -5 c-3 -5 -12 -10 -18 -10 -7 0 -6 4 3 10 19 12 23 12 15 0z m329 1 c3
-5 -2 -15 -12 -22 -15 -12 -16 -12 -5 2 7 9 10 19 6 22 -3 4 -4 7 0 7 3 0 8
-4 11 -9z m90 1 c3 -5 -1 -9 -9 -9 -8 0 -12 4 -9 9 3 4 7 8 9 8 2 0 6 -4 9 -8z
m256 -1 c0 -6 -4 -12 -8 -15 -5 -3 -9 1 -9 9 0 8 4 15 9 15 4 0 8 -4 8 -9z
m117 -6 c0 -8 -4 -12 -9 -9 -4 3 -8 9 -8 15 0 5 4 9 8 9 5 0 9 -7 9 -15z
m-697 -17 c0 -4 -4 -8 -9 -8 -6 0 -12 4 -15 8 -3 5 1 9 9 9 8 0 15 -4 15 -9z
m446 0 c3 -4 -1 -5 -10 -4 -8 1 -18 5 -22 8 -3 4 1 5 10 4 8 -1 18 -5 22 -8z
m291 -3 c0 -8 -4 -12 -9 -9 -5 3 -6 10 -3 15 9 13 12 11 12 -6z m-400 -9 c0
-15 -21 -16 -34 -1 -4 4 -3 5 4 1 6 -3 14 -2 18 4 8 14 12 13 12 -4z m-301
-22 c1 -9 0 -13 -4 -10 -3 4 -7 14 -8 22 -1 9 0 13 4 10 3 -4 7 -14 8 -22z
m598 17 c-8 -8 -34 -10 -38 -2 -3 4 6 7 19 7 14 0 22 -2 19 -5z m56 6 c0 -2
-10 -12 -22 -23 l-23 -19 19 23 c18 21 26 27 26 19z m-734 -31 c0 -14 -3 -23
-7 -20 -6 3 -6 22 0 42 3 10 7 -2 7 -22z m119 15 c3 -5 2 -12 -3 -15 -5 -3 -9
1 -9 9 0 17 3 19 12 6z m50 -10 c-9 -8 -36 -10 -30 -2 2 4 11 8 20 8 8 0 13
-3 10 -6z m31 -26 c1 -8 -1 -17 -5 -19 -4 -3 -7 6 -7 19 0 25 8 25 12 0z
m-142 6 c-8 -8 -34 -10 -38 -2 -3 4 6 7 19 7 14 0 22 -2 19 -5z m390 1 c3 -5
-1 -9 -9 -9 -8 0 -12 4 -9 9 3 4 7 8 9 8 2 0 6 -4 9 -8z m53 -7 c0 -8 -4 -12
-9 -9 -4 3 -8 9 -8 15 0 5 4 9 8 9 5 0 9 -7 9 -15z m263 9 c0 -8 -19 -13 -24
-6 -3 5 1 9 9 9 8 0 15 -2 15 -3z m-440 -29 c-5 -7 -7 -15 -3 -18 3 -4 1 -7
-5 -7 -6 0 -10 8 -9 18 0 10 7 19 14 19 9 0 10 -4 3 -12z m35 -2 c-1 -10 1
-23 6 -29 5 -6 4 -11 -5 -11 -10 0 -15 35 -7 55 4 10 9 -1 6 -15z m41 -8 c1
-8 -1 -17 -5 -19 -4 -3 -7 6 -7 19 0 25 8 25 12 0z m204 13 c0 -4 -4 -8 -9 -8
-6 0 -12 4 -15 8 -3 5 1 9 9 9 8 0 15 -4 15 -9z m275 -6 c-3 -3 -11 0 -18 7
-9 10 -8 11 6 5 10 -3 15 -9 12 -12z m-938 -7 c0 -8 -4 -15 -9 -15 -10 0 -11
14 -1 23 9 10 10 9 10 -8z m39 -11 c1 -9 0 -13 -4 -10 -3 4 -7 14 -8 22 -1 9
0 13 4 10 3 -4 7 -14 8 -22z m81 11 c0 -8 -4 -15 -9 -15 -10 0 -11 14 -1 23 9
10 10 9 10 -8z m620 0 c0 -8 -4 -12 -9 -9 -5 3 -6 10 -3 15 9 13 12 11 12 -6z
m160 0 c0 -8 -4 -15 -9 -15 -10 0 -11 14 -1 23 9 10 10 9 10 -8z m-817 -4 c0
-6 -4 -12 -8 -15 -5 -3 -9 1 -9 9 0 8 4 15 9 15 4 0 8 -4 8 -9z m257 -11 c-1
-21 -10 -18 -13 5 -1 8 2 15 6 15 5 0 8 -9 7 -20z m463 16 c0 -2 -7 -7 -16
-10 -8 -3 -12 -2 -9 4 6 10 25 14 25 6z m57 -15 c0 -11 -5 -18 -9 -15 -4 3 -5
11 -1 19 7 21 12 19 10 -4z m-640 -16 c0 -8 -4 -12 -9 -9 -5 3 -6 10 -3 15 9
13 12 11 12 -6z m87 7 c3 -5 -1 -9 -9 -9 -8 0 -12 4 -9 9 3 4 7 8 9 8 2 0 6
-4 9 -8z m400 0 c3 -5 -1 -9 -9 -9 -8 0 -15 4 -15 9 0 4 4 8 9 8 6 0 12 -4 15
-8z m120 0 c3 -5 -1 -9 -9 -9 -8 0 -15 4 -15 9 0 4 4 8 9 8 6 0 12 -4 15 -8z
m-169 -11 c3 -5 2 -12 -3 -15 -5 -3 -9 1 -9 9 0 17 3 19 12 6z m240 0 c3 -5 2
-12 -3 -15 -5 -3 -9 1 -9 9 0 17 3 19 12 6z m-881 -9 c3 -5 -1 -9 -9 -9 -8 0
-12 4 -9 9 3 4 7 8 9 8 2 0 6 -4 9 -8z m92 -4 c3 -4 -1 -5 -10 -4 -8 1 -18 5
-22 8 -3 4 1 5 10 4 8 -1 18 -5 22 -8z m931 -5 c0 -9 -4 -10 -14 -2 -7 6 -13
12 -13 14 0 1 6 2 13 2 8 0 14 -6 14 -14z m64 -10 c13 -16 12 -17 -3 -4 -17
13 -22 21 -14 21 2 0 10 -8 17 -17z m-951 2 c0 -2 -6 -8 -13 -14 -10 -8 -14
-7 -14 2 0 8 6 14 14 14 7 0 13 -1 13 -2z m555 -4 c-9 -8 -36 -10 -30 -2 2 4
11 8 20 8 8 0 13 -3 10 -6z m-525 -22 c0 -5 -4 -9 -8 -9 -5 0 -9 7 -9 15 0 8
4 12 9 9 4 -3 8 -9 8 -15z m572 6 c2 3 5 -2 5 -10 0 -19 0 -19 -23 7 -12 14
-13 18 -3 10 9 -6 18 -10 21 -7z m-386 -7 c3 -4 -1 -5 -10 -4 -8 1 -18 5 -22
8 -3 4 1 5 10 4 8 -1 18 -5 22 -8z m111 -3 c0 -8 -4 -12 -9 -9 -4 3 -8 9 -8
15 0 5 4 9 8 9 5 0 9 -7 9 -15z m500 -5 c-1 -21 -10 -18 -13 5 -1 8 2 15 6 15
5 0 8 -9 7 -20z m234 -3 c-10 -9 -11 -8 -5 6 3 10 9 15 12 12 3 -3 0 -11 -7
-18z m-635 -22 c1 -8 -1 -17 -5 -19 -4 -3 -7 6 -7 19 0 25 8 25 12 0z m370 13
c3 -4 -1 -5 -10 -4 -8 1 -18 5 -22 8 -3 4 1 5 10 4 8 -1 18 -5 22 -8z m240 0
c3 -4 -1 -5 -10 -4 -8 1 -18 5 -22 8 -3 4 1 5 10 4 8 -1 18 -5 22 -8z m-1189
-13 c0 -8 -4 -15 -9 -15 -10 0 -11 14 -1 23 9 10 10 9 10 -8z m180 0 c0 -8 -4
-12 -9 -9 -5 3 -6 10 -3 15 9 13 12 11 12 -6z m60 0 c0 -8 -4 -15 -9 -15 -10
0 -11 14 -1 23 9 10 10 9 10 -8z m659 -9 c0 -14 -3 -23 -7 -20 -6 3 -6 22 0
42 3 10 7 -2 7 -22z m482 -1 c-3 -3 -9 2 -12 12 -6 14 -5 15 5 6 7 -7 10 -15
7 -18z m-1043 6 c3 -5 2 -12 -3 -15 -5 -3 -9 1 -9 9 0 17 3 19 12 6z m82 2
c-4 -3 -1 -13 6 -22 11 -14 10 -14 -5 -2 -16 12 -16 31 -1 31 4 0 3 -3 0 -7z
m55 -4 c2 -2 1 -3 -1 -2 -2 2 -9 -2 -16 -7 -8 -7 -12 -5 -12 4 0 12 22 16 29
5z m208 2 c0 -6 -4 -12 -8 -15 -5 -3 -9 1 -9 9 0 8 4 15 9 15 4 0 8 -4 8 -9z
m54 1 c3 -5 -1 -9 -9 -9 -8 0 -12 4 -9 9 3 4 7 8 9 8 2 0 6 -4 9 -8z m401 -1
c3 -5 2 -12 -3 -15 -5 -3 -9 1 -9 9 0 17 3 19 12 6z m171 -3 c3 -4 -1 -5 -10
-4 -8 1 -18 5 -22 8 -3 4 1 5 10 4 8 -1 18 -5 22 -8z m-767 -11 c8 -10 7 -14
-2 -14 -8 0 -14 6 -14 14 0 7 1 13 2 13 2 0 8 -6 14 -13z m718 -2 c0 -8 -4
-12 -9 -9 -5 3 -6 10 -3 15 9 13 12 11 12 -6z m-953 -3 c3 -5 -1 -9 -9 -9 -8
0 -12 4 -9 9 3 4 7 8 9 8 2 0 6 -4 9 -8z m760 -4 c-3 -4 -9 -8 -15 -8 -5 0 -9
4 -9 8 0 5 7 9 15 9 8 0 12 -4 9 -9z m120 0 c-3 -4 -9 -8 -15 -8 -5 0 -9 4 -9
8 0 5 7 9 15 9 8 0 12 -4 9 -9z m240 0 c-3 -4 -9 -8 -15 -8 -5 0 -9 4 -9 8 0
5 7 9 15 9 8 0 12 -4 9 -9z m-1444 -19 c0 -5 -4 -9 -8 -9 -5 0 -9 7 -9 15 0 8
4 12 9 9 4 -3 8 -9 8 -15z m1479 8 c8 -10 7 -14 -2 -14 -8 0 -14 6 -14 14 0 7
1 13 2 13 2 0 8 -6 14 -13z m-1130 -31 c9 -11 9 -16 -1 -22 -7 -4 -10 -4 -6 1
4 4 3 14 -3 22 -6 7 -9 13 -6 13 2 0 10 -6 16 -14z m92 1 c-6 -8 -7 -18 -3
-22 4 -5 1 -5 -6 -1 -10 6 -10 11 -1 22 6 8 14 14 16 14 3 0 0 -6 -6 -13z
m119 -2 c-5 -7 -9 -14 -7 -16 1 -2 0 -3 -2 -1 -11 7 -7 29 5 29 9 0 11 -4 4
-12z m596 -10 c1 -8 -1 -17 -5 -19 -4 -3 -7 6 -7 19 0 25 8 25 12 0z m-660 3
c5 4 5 3 1 -2 -12 -15 -34 -15 -34 0 0 9 4 11 12 4 7 -5 16 -6 21 -2z m99 3
c3 -5 2 -12 -3 -15 -5 -3 -9 1 -9 9 0 17 3 19 12 6z m105 -12 c0 -5 -4 -9 -8
-9 -5 0 -9 7 -9 15 0 8 4 12 9 9 4 -3 8 -9 8 -15z m677 8 c0 -7 -9 -14 -19
-14 -10 -1 -18 3 -18 8 0 6 4 8 9 4 5 -3 12 -1 16 5 8 13 12 13 12 -3z m123 9
c0 -2 -6 -9 -14 -15 -11 -9 -16 -9 -22 0 -4 7 -3 9 4 5 6 -3 13 -2 17 4 6 10
15 14 15 6z m-1483 -21 c0 -8 -4 -12 -9 -9 -4 3 -8 9 -8 15 0 5 4 9 8 9 5 0 9
-7 9 -15z m123 6 c0 -6 -4 -12 -8 -15 -5 -3 -9 1 -9 9 0 8 4 15 9 15 4 0 8 -4
8 -9z m57 -6 c0 -8 -4 -12 -9 -9 -5 3 -6 10 -3 15 9 13 12 11 12 -6z m60 0 c0
-8 -4 -12 -9 -9 -4 3 -8 9 -8 15 0 5 4 9 8 9 5 0 9 -7 9 -15z m509 3 c3 -4 -1
-5 -10 -4 -8 1 -18 5 -22 8 -3 4 1 5 10 4 8 -1 18 -5 22 -8z m149 3 c3 -5 2
-12 -3 -15 -5 -3 -9 1 -9 9 0 17 3 19 12 6z m96 -8 c12 -16 12 -17 -2 -6 -9 7
-20 9 -24 5 -5 -4 -5 -1 -1 6 9 16 11 15 27 -5z m573 9 c3 -5 -1 -9 -9 -9 -8
0 -12 4 -9 9 3 4 7 8 9 8 2 0 6 -4 9 -8z m-734 -17 c0 -2 -6 -8 -13 -14 -10
-8 -14 -7 -14 2 0 8 6 14 14 14 7 0 13 -1 13 -2z m34 -3 c3 -5 -1 -9 -9 -9 -8
0 -12 4 -9 9 3 4 7 8 9 8 2 0 6 -4 9 -8z m192 -17 c1 -8 -2 -15 -6 -15 -5 0
-8 9 -7 20 1 21 10 18 13 -5z m50 13 c3 -4 -1 -5 -10 -4 -8 1 -18 5 -22 8 -3
4 1 5 10 4 8 -1 18 -5 22 -8z m311 -3 c0 -8 -4 -12 -9 -9 -5 3 -6 10 -3 15 9
13 12 11 12 -6z m-940 -8 c0 -8 -6 -14 -14 -14 -9 0 -10 4 -2 14 6 7 12 13 14
13 1 0 2 -6 2 -13z m280 0 c0 -8 -6 -14 -14 -14 -9 0 -10 4 -2 14 6 7 12 13
14 13 1 0 2 -6 2 -13z m823 9 c0 -2 -6 -9 -14 -15 -11 -9 -16 -9 -22 0 -4 7
-3 9 4 5 6 -3 13 -2 17 4 6 10 15 14 15 6z m-1400 -15 c0 -6 -4 -12 -8 -15 -5
-3 -9 1 -9 9 0 8 4 15 9 15 4 0 8 -4 8 -9z m220 3 c0 -8 -19 -13 -24 -6 -3 5
1 9 9 9 8 0 15 -2 15 -3z m-261 -17 c8 -10 7 -14 -2 -14 -8 0 -14 6 -14 14 0
7 1 13 2 13 2 0 8 -6 14 -13z m1156 4 c3 -5 2 -12 -3 -15 -5 -3 -9 1 -9 9 0
17 3 19 12 6z m-1354 -14 c-6 -8 -7 -18 -3 -22 4 -5 1 -5 -6 -1 -10 6 -10 11
-1 22 6 8 14 14 16 14 3 0 0 -6 -6 -13z m1404 4 c-9 -8 -36 -10 -30 -2 2 4 11
8 20 8 8 0 13 -3 10 -6z m-346 -14 c8 -10 7 -14 -2 -14 -8 0 -14 6 -14 14 0 7
1 13 2 13 2 0 8 -6 14 -13z m376 4 c3 -5 2 -12 -3 -15 -5 -3 -9 1 -9 9 0 17 3
19 12 6z m200 -39 c-3 -8 0 -22 7 -31 12 -14 11 -14 -4 -3 -10 8 -16 24 -15
35 1 12 -3 21 -9 20 -6 -1 -11 5 -11 13 0 11 4 11 19 -3 10 -9 16 -23 13 -31z
m-1555 32 c0 -8 -19 -13 -24 -6 -3 5 1 9 9 9 8 0 15 -2 15 -3z m84 -3 c-8 -8
-34 -10 -38 -2 -3 4 6 7 19 7 14 0 22 -2 19 -5z m551 0 c3 -5 2 -12 -3 -15 -5
-3 -9 1 -9 9 0 17 3 19 12 6z m219 0 c-9 -9 -34 -9 -34 -1 0 5 9 8 20 7 10 -1
17 -3 14 -6z m583 2 c-4 -3 -1 -13 6 -22 11 -14 10 -14 -5 -2 -16 12 -16 31
-1 31 4 0 3 -3 0 -7z m163 -3 c0 -5 -5 -10 -11 -10 -5 0 -7 5 -4 10 3 6 8 10
11 10 2 0 4 -4 4 -10z m-1283 -32 c1 -10 -3 -18 -9 -18 -6 0 -8 3 -5 7 4 3 2
11 -3 18 -7 8 -6 12 3 12 7 0 14 -9 14 -19z m84 8 c-5 -6 -7 -19 -5 -29 1 -11
0 -16 -4 -12 -12 12 -9 52 4 52 9 0 10 -5 5 -11z m283 2 c-3 -4 -9 -8 -15 -8
-5 0 -9 4 -9 8 0 5 7 9 15 9 8 0 12 -4 9 -9z m471 3 c3 -5 2 -12 -3 -15 -5 -3
-9 1 -9 9 0 17 3 19 12 6z m45 -3 c0 -4 -4 -8 -9 -8 -6 0 -12 4 -15 8 -3 5 1
9 9 9 8 0 15 -4 15 -9z m-1184 -13 c-1 -8 -5 -17 -8 -21 -5 -4 -4 16 1 34 3 9
9 -1 7 -13z m44 -6 c0 -5 -4 -9 -8 -9 -5 0 -9 7 -9 15 0 8 4 12 9 9 4 -3 8 -9
8 -15z m376 -4 c1 -8 -1 -17 -5 -19 -4 -3 -7 6 -7 19 0 25 8 25 12 0z m280 0
c1 -8 -1 -17 -5 -19 -4 -3 -7 6 -7 19 0 25 8 25 12 0z m140 10 c-1 -8 -5 -17
-8 -21 -5 -4 -4 16 1 34 3 9 9 -1 7 -13z m740 0 c-1 -8 -5 -17 -8 -21 -5 -4
-4 16 1 34 3 9 9 -1 7 -13z m-1619 -10 c0 -8 -4 -12 -9 -9 -4 3 -8 9 -8 15 0
5 4 9 8 9 5 0 9 -7 9 -15z m120 0 c0 -8 -4 -12 -9 -9 -4 3 -8 9 -8 15 0 5 4 9
8 9 5 0 9 -7 9 -15z m260 8 c-4 -3 -2 -11 3 -18 7 -8 6 -12 -3 -12 -7 0 -14 9
-14 19 -1 10 3 18 9 18 6 0 8 -3 5 -7z m1053 1 c0 -8 -19 -13 -24 -6 -3 5 1 9
9 9 8 0 15 -2 15 -3z m-770 -22 c0 -5 -7 -9 -15 -9 -8 0 -12 4 -9 9 3 4 9 8
15 8 5 0 9 -4 9 -8z m316 -17 c1 -8 -1 -17 -5 -19 -4 -3 -7 6 -7 19 0 25 8 25
12 0z m41 8 c0 -9 -4 -10 -14 -2 -7 6 -13 12 -13 14 0 1 6 2 13 2 8 0 14 -6
14 -14z m687 9 c3 -5 -1 -9 -9 -9 -8 0 -15 4 -15 9 0 4 4 8 9 8 6 0 12 -4 15
-8z m-1448 -17 c-1 -8 -5 -17 -8 -21 -5 -4 -4 16 1 34 3 9 9 -1 7 -13z m301 0
c0 -8 -4 -15 -9 -15 -10 0 -11 14 -1 23 9 10 10 9 10 -8z m-501 -21 c0 -20
-11 -25 -11 -6 0 4 -3 12 -7 18 -4 6 -1 11 5 11 7 0 13 -11 13 -23z m38 18 c3
-5 -1 -9 -9 -9 -8 0 -12 4 -9 9 3 4 7 8 9 8 2 0 6 -4 9 -8z m806 2 c0 -8 -19
-13 -24 -6 -3 5 1 9 9 9 8 0 15 -2 15 -3z m214 -5 c3 -3 -5 -5 -19 -5 -13 0
-22 3 -19 7 4 8 30 6 38 -2z m62 -13 c0 -14 -3 -23 -7 -20 -6 3 -6 22 0 42 3
10 7 -2 7 -22z m49 15 c-9 -8 -36 -10 -30 -2 2 4 11 8 20 8 8 0 13 -3 10 -6z
m335 0 c0 -6 -4 -12 -8 -15 -5 -3 -9 1 -9 9 0 8 4 15 9 15 4 0 8 -4 8 -9z
m-304 -37 c0 -13 -2 -22 -5 -19 -3 3 -6 17 -7 31 0 13 2 22 5 19 3 -3 6 -17 7
-31z m-1120 11 c-1 -8 -5 -17 -8 -21 -5 -4 -4 16 1 34 3 9 9 -1 7 -13z m39 6
c3 -5 2 -12 -3 -15 -5 -3 -9 1 -9 9 0 17 3 19 12 6z m51 -3 c3 -4 -1 -5 -10
-4 -8 1 -18 5 -22 8 -3 4 1 5 10 4 8 -1 18 -5 22 -8z m1078 0 c-3 -4 -9 -8
-15 -8 -5 0 -9 4 -9 8 0 5 7 9 15 9 8 0 12 -4 9 -9z m473 -10 c1 -10 -3 -18
-9 -18 -6 0 -8 3 -5 7 4 3 2 11 -3 18 -7 8 -6 12 3 12 7 0 14 -9 14 -19z
m-697 -9 c0 -5 -4 -9 -8 -9 -5 0 -9 7 -9 15 0 8 4 12 9 9 4 -3 8 -9 8 -15z
m-643 -6 c0 -9 -4 -10 -14 -2 -7 6 -13 12 -13 14 0 1 6 2 13 2 8 0 14 -6 14
-14z m288 8 c-9 -8 -36 -10 -30 -2 2 4 11 8 20 8 8 0 13 -3 10 -6z m75 3 c0
-8 -19 -13 -24 -6 -3 5 1 9 9 9 8 0 15 -2 15 -3z m600 0 c0 -8 -19 -13 -24 -6
-3 5 1 9 9 9 8 0 15 -2 15 -3z m175 -32 c-3 -8 0 -22 7 -31 12 -14 11 -15 -5
-2 -10 8 -15 21 -12 29 3 8 0 22 -7 31 -12 14 -11 15 5 2 10 -8 15 -21 12 -29z
m69 27 c3 -3 -5 -5 -19 -5 -13 0 -22 3 -19 7 4 8 30 6 38 -2z m187 -6 c12 -16
12 -17 -2 -6 -9 7 -19 10 -22 6 -4 -3 -7 -1 -7 5 0 17 16 15 31 -5z m-1336 -2
c3 -5 2 -12 -3 -15 -5 -3 -9 1 -9 9 0 17 3 19 12 6z m921 -6 c-1 -8 -5 -17 -8
-21 -5 -4 -4 16 1 34 3 9 9 -1 7 -13z m-1316 -3 c0 -5 -7 -9 -15 -9 -8 0 -12
4 -9 9 3 4 9 8 15 8 5 0 9 -4 9 -8z m445 -1 c-9 -8 -36 -10 -30 -2 2 4 11 8
20 8 8 0 13 -3 10 -6z m191 -15 c0 -14 -3 -23 -7 -20 -6 3 -6 22 0 42 3 10 7
-2 7 -22z m244 16 c0 -5 -7 -9 -15 -9 -8 0 -12 4 -9 9 3 4 9 8 15 8 5 0 9 -4
9 -8z m-404 -27 c1 -8 -1 -17 -5 -19 -4 -3 -7 6 -7 19 0 25 8 25 12 0z m221
10 c0 -8 -4 -15 -9 -15 -10 0 -11 14 -1 23 9 10 10 9 10 -8z m819 -9 c0 -14
-3 -23 -7 -20 -6 3 -6 22 0 42 3 10 7 -2 7 -22z m61 9 c0 -8 -4 -15 -9 -15
-10 0 -11 14 -1 23 9 10 10 9 10 -8z m-1752 -5 c-3 -5 -12 -10 -18 -10 -7 0
-6 4 3 10 19 12 23 12 15 0z m72 -5 c0 -8 -4 -12 -9 -9 -4 3 -8 9 -8 15 0 5 4
9 8 9 5 0 9 -7 9 -15z m240 0 c0 -8 -4 -12 -9 -9 -4 3 -8 9 -8 15 0 5 4 9 8 9
5 0 9 -7 9 -15z m187 6 c-8 -8 -34 -10 -38 -2 -3 4 6 7 19 7 14 0 22 -2 19 -5z
m640 1 c3 -5 -1 -9 -9 -9 -8 0 -12 4 -9 9 3 4 7 8 9 8 2 0 6 -4 9 -8z m53 -7
c0 -8 -4 -12 -9 -9 -4 3 -8 9 -8 15 0 5 4 9 8 9 5 0 9 -7 9 -15z m237 6 c-9
-9 -34 -9 -34 -1 0 5 9 8 20 7 10 -1 17 -3 14 -6z m110 -2 c3 -3 -5 -5 -19 -5
-13 0 -22 3 -19 7 4 8 30 6 38 -2z m86 5 c0 -8 -19 -13 -24 -6 -3 5 1 9 9 9 8
0 15 -2 15 -3z m284 -2 c3 -5 -1 -9 -9 -9 -8 0 -12 4 -9 9 3 4 7 8 9 8 2 0 6
-4 9 -8z m-1379 -11 c3 -5 2 -12 -3 -15 -5 -3 -9 1 -9 9 0 17 3 19 12 6z
m-225 -27 c0 -8 -19 -13 -24 -6 -3 5 1 9 9 9 8 0 15 -2 15 -3z m1724 -10 c3
-8 2 -12 -4 -9 -6 3 -10 10 -10 16 0 14 7 11 14 -7z m37 -7 c-10 -9 -11 -8 -5
6 3 10 9 15 12 12 3 -3 0 -11 -7 -18z m44 13 c3 -5 1 -10 -4 -10 -6 0 -11 5
-11 10 0 6 2 10 4 10 3 0 8 -4 11 -10z m-1691 -18 c3 -5 -1 -9 -9 -9 -8 0 -15
4 -15 9 0 4 4 8 9 8 6 0 12 -4 15 -8z m448 -17 c2 3 5 -2 5 -10 0 -19 1 -20
-28 12 -17 20 -18 23 -3 10 11 -9 23 -15 26 -12z m97 11 c9 -11 9 -16 -1 -22
-7 -4 -10 -4 -6 1 4 4 3 14 -3 22 -6 7 -9 13 -6 13 2 0 10 -6 16 -14z m451 6
c0 -5 -7 -9 -15 -9 -8 0 -12 4 -9 9 3 4 9 8 15 8 5 0 9 -4 9 -8z m120 0 c0 -5
-7 -9 -15 -9 -8 0 -12 4 -9 9 3 4 9 8 15 8 5 0 9 -4 9 -8z m-1044 -27 c1 -8
-1 -17 -5 -19 -4 -3 -7 6 -7 19 0 25 8 25 12 0z m320 1 c0 -14 -3 -23 -7 -20
-6 3 -6 22 0 42 3 10 7 -2 7 -22z m381 9 c0 -8 -4 -15 -9 -15 -10 0 -11 14 -1
23 9 10 10 9 10 -8z m260 0 c0 -8 -4 -12 -9 -9 -5 3 -6 10 -3 15 9 13 12 11
12 -6z m-1417 -4 c0 -6 -4 -12 -8 -15 -5 -3 -9 1 -9 9 0 8 4 15 9 15 4 0 8 -4
8 -9z m74 0 c-8 -8 -34 -10 -38 -2 -3 4 6 7 19 7 14 0 22 -2 19 -5z m230 -2
c3 -3 -5 -5 -19 -5 -13 0 -22 3 -19 7 4 8 30 6 38 -2z m806 5 c0 -8 -19 -13
-24 -6 -3 5 1 9 9 9 8 0 15 -2 15 -3z m607 -11 c0 -9 -4 -10 -14 -2 -7 6 -13
12 -13 14 0 1 6 2 13 2 8 0 14 -6 14 -14z m133 12 c0 -2 -6 -8 -13 -14 -10 -8
-14 -7 -14 2 0 8 6 14 14 14 7 0 13 -1 13 -2z m135 -4 c-9 -8 -36 -10 -30 -2
2 4 11 8 20 8 8 0 13 -3 10 -6z m79 1 c3 -5 -1 -9 -9 -9 -8 0 -12 4 -9 9 3 4
7 8 9 8 2 0 6 -4 9 -8z m48 -3 c2 -2 1 -3 -1 -2 -2 2 -9 -2 -16 -7 -8 -7 -12
-5 -12 4 0 12 22 16 29 5z m-1968 -21 c-3 -4 -9 -8 -15 -8 -5 0 -9 4 -9 8 0 5
7 9 15 9 8 0 12 -4 9 -9z m361 3 c-9 -8 -36 -10 -30 -2 2 4 11 8 20 8 8 0 13
-3 10 -6z m515 -3 c0 -4 -4 -8 -9 -8 -6 0 -12 4 -15 8 -3 5 1 9 9 9 8 0 15 -4
15 -9z m240 0 c0 -4 -4 -8 -9 -8 -6 0 -12 4 -15 8 -3 5 1 9 9 9 8 0 15 -4 15
-9z m126 0 c3 -4 -1 -5 -10 -4 -8 1 -18 5 -22 8 -3 4 1 5 10 4 8 -1 18 -5 22
-8z m799 2 c-3 -5 -12 -10 -18 -10 -7 0 -6 4 3 10 19 12 23 12 15 0z m-2109
-15 c-1 -8 -5 -17 -8 -21 -5 -4 -4 16 1 34 3 9 9 -1 7 -13z m241 2 c0 -8 -6
-14 -14 -14 -9 0 -10 4 -2 14 6 7 12 13 14 13 1 0 2 -6 2 -13z m223 -8 c0 -5
-4 -9 -8 -9 -5 0 -9 7 -9 15 0 8 4 12 9 9 4 -3 8 -9 8 -15z m536 -5 c1 -9 0
-13 -4 -10 -3 4 -7 14 -8 22 -1 9 0 13 4 10 3 -4 7 -14 8 -22z m1156 11 c2 3
5 -2 5 -10 0 -19 0 -19 -23 7 -12 14 -13 18 -3 10 9 -6 18 -10 21 -7z m-1466
-7 c3 -4 -1 -5 -10 -4 -8 1 -18 5 -22 8 -3 4 1 5 10 4 8 -1 18 -5 22 -8z m68
4 c3 -5 -1 -9 -9 -9 -8 0 -12 4 -9 9 3 4 7 8 9 8 2 0 6 -4 9 -8z m286 -1 c0
-6 -4 -12 -8 -15 -5 -3 -9 1 -9 9 0 8 4 15 9 15 4 0 8 -4 8 -9z m210 4 c0 -2
-6 -8 -13 -14 -10 -8 -14 -7 -14 2 0 8 6 14 14 14 7 0 13 -1 13 -2z m244 -6
c3 -3 -5 -5 -19 -5 -13 0 -22 3 -19 7 4 8 30 6 38 -2z m83 -9 c-1 -21 -10 -18
-13 5 -1 8 2 15 6 15 5 0 8 -9 7 -20z m239 5 c-3 -23 -12 -26 -13 -5 -1 11 2
20 7 20 4 0 7 -7 6 -15z m204 11 c0 -2 -7 -7 -16 -10 -8 -3 -12 -2 -9 4 6 10
25 14 25 6z m-884 -30 c0 -14 -3 -23 -7 -20 -6 3 -6 22 0 42 3 10 7 -2 7 -22z
m-716 2 c0 -4 -4 -8 -9 -8 -6 0 -12 4 -15 8 -3 5 1 9 9 9 8 0 15 -4 15 -9z
m1124 4 c3 -5 -1 -9 -9 -9 -8 0 -15 4 -15 9 0 4 4 8 9 8 6 0 12 -4 15 -8z
m-1487 -17 c0 -8 -4 -12 -9 -9 -5 3 -6 10 -3 15 9 13 12 11 12 -6z m400 0 c0
-8 -4 -12 -9 -9 -5 3 -6 10 -3 15 9 13 12 11 12 -6z m60 0 c0 -8 -4 -15 -9
-15 -10 0 -11 14 -1 23 9 10 10 9 10 -8z m418 6 c3 -5 2 -12 -3 -15 -5 -3 -9
1 -9 9 0 17 3 19 12 6z m505 -12 c0 -5 -4 -9 -8 -9 -5 0 -9 7 -9 15 0 8 4 12
9 9 4 -3 8 -9 8 -15z m56 -4 c1 -8 -1 -17 -5 -19 -4 -3 -7 6 -7 19 0 25 8 25
12 0z m159 13 c5 4 5 1 1 -6 -6 -10 -11 -10 -22 -1 -8 6 -14 14 -14 16 0 3 6
0 13 -6 8 -6 18 -7 22 -3z m105 8 c0 -2 -6 -9 -14 -15 -11 -9 -16 -9 -22 0 -4
7 -3 9 4 5 6 -3 13 -2 17 4 6 10 15 14 15 6z m240 -17 c0 -5 -4 -9 -8 -9 -5 0
-9 7 -9 15 0 8 4 12 9 9 4 -3 8 -9 8 -15z m-2064 -1 c3 -4 -1 -5 -10 -4 -8 1
-18 5 -22 8 -3 4 1 5 10 4 8 -1 18 -5 22 -8z m439 3 c3 -5 2 -12 -3 -15 -5 -3
-9 1 -9 9 0 17 3 19 12 6z m479 1 c3 -5 -1 -9 -9 -9 -8 0 -12 4 -9 9 3 4 7 8
9 8 2 0 6 -4 9 -8z m212 -4 c3 -4 -1 -5 -10 -4 -8 1 -18 5 -22 8 -3 4 1 5 10
4 8 -1 18 -5 22 -8z m128 3 c-8 -8 -34 -10 -38 -2 -3 4 6 7 19 7 14 0 22 -2
19 -5z m70 1 c3 -5 -1 -9 -9 -9 -8 0 -12 4 -9 9 3 4 7 8 9 8 2 0 6 -4 9 -8z
m53 -7 c0 -8 -4 -12 -9 -9 -4 3 -8 9 -8 15 0 5 4 9 8 9 5 0 9 -7 9 -15z m60 0
c0 -8 -4 -12 -9 -9 -5 3 -6 10 -3 15 9 13 12 11 12 -6z m703 6 c0 -6 -4 -12
-8 -15 -5 -3 -9 1 -9 9 0 8 4 15 9 15 4 0 8 -4 8 -9z m54 1 c3 -5 -1 -9 -9 -9
-8 0 -12 4 -9 9 3 4 7 8 9 8 2 0 6 -4 9 -8z m-1157 -15 c0 -8 -6 -14 -14 -14
-9 0 -10 4 -2 14 6 7 12 13 14 13 1 0 2 -6 2 -13z m-793 -9 c-3 -4 -9 -8 -15
-8 -5 0 -9 4 -9 8 0 5 7 9 15 9 8 0 12 -4 9 -9z m33 5 c-4 -3 -2 -11 3 -18 7
-8 5 -12 -4 -12 -8 0 -12 7 -11 16 5 22 4 21 12 21 3 0 3 -3 0 -7z m87 -5 c-3
-4 -9 -8 -15 -8 -5 0 -9 4 -9 8 0 5 7 9 15 9 8 0 12 -4 9 -9z m316 0 c0 -4 -4
-8 -9 -8 -6 0 -12 4 -15 8 -3 5 1 9 9 9 8 0 15 -4 15 -9z m76 -24 c0 -13 -2
-22 -5 -19 -3 3 -6 17 -7 31 0 13 2 22 5 19 3 -3 6 -17 7 -31z m33 22 c9 -11
9 -16 -1 -22 -7 -4 -10 -4 -6 1 4 4 3 14 -3 22 -6 7 -9 13 -6 13 2 0 10 -6 16
-14z m-377 -11 c2 3 5 -2 5 -10 0 -19 0 -19 -23 7 -12 14 -13 18 -3 10 9 -6
18 -10 21 -7z m483 6 c3 -5 2 -12 -3 -15 -5 -3 -9 1 -9 9 0 17 3 19 12 6z
m-871 -9 c3 -5 -1 -9 -9 -9 -8 0 -12 4 -9 9 3 4 7 8 9 8 2 0 6 -4 9 -8z m140
-3 c3 -3 -5 -5 -19 -5 -13 0 -22 3 -19 7 4 8 30 6 38 -2z m1502 -1 c3 -4 -1
-5 -10 -4 -8 1 -18 5 -22 8 -3 4 1 5 10 4 8 -1 18 -5 22 -8z m199 3 c-9 -8
-36 -10 -30 -2 2 4 11 8 20 8 8 0 13 -3 10 -6z m-1824 -24 c-6 -8 -7 -18 -3
-22 4 -5 1 -5 -6 -1 -10 6 -10 11 -1 22 6 8 14 14 16 14 3 0 0 -6 -6 -13z
m683 5 c3 -5 -1 -9 -9 -9 -8 0 -15 4 -15 9 0 4 4 8 9 8 6 0 12 -4 15 -8z m516
0 c0 -5 -7 -9 -15 -9 -8 0 -12 4 -9 9 3 4 9 8 15 8 5 0 9 -4 9 -8z m360 -4 c0
-4 -4 -8 -9 -8 -6 0 -12 4 -15 8 -3 5 1 9 9 9 8 0 15 -4 15 -9z m36 -13 c1 -8
-1 -17 -5 -19 -4 -3 -7 6 -7 19 0 25 8 25 12 0z m294 20 c0 -2 -6 -8 -13 -14
-10 -8 -14 -7 -14 2 0 8 6 14 14 14 7 0 13 -1 13 -2z m345 -5 c3 -5 1 -10 -4
-10 -6 0 -11 5 -11 10 0 6 2 10 4 10 3 0 8 -4 11 -10z m-2098 -15 c0 -8 -4
-15 -9 -15 -10 0 -11 14 -1 23 9 10 10 9 10 -8z m720 2 c0 -7 -9 -14 -19 -14
-10 -1 -18 3 -18 8 0 6 4 8 9 4 5 -3 12 -1 16 5 8 13 12 13 12 -3z m260 -2 c0
-8 -4 -12 -9 -9 -5 3 -6 10 -3 15 9 13 12 11 12 -6z m220 0 c0 -8 -4 -15 -9
-15 -10 0 -11 14 -1 23 9 10 10 9 10 -8z m59 0 c-1 -8 -5 -17 -8 -21 -5 -4 -4
16 1 34 3 9 9 -1 7 -13z m120 0 c-1 -8 -5 -17 -8 -21 -5 -4 -4 16 1 34 3 9 9
-1 7 -13z m400 -10 c1 -8 -1 -17 -5 -19 -4 -3 -7 6 -7 19 0 25 8 25 12 0z
m120 -1 c1 -9 0 -13 -4 -10 -3 4 -7 14 -8 22 -1 9 0 13 4 10 3 -4 7 -14 8 -22z
m64 5 c0 -5 -4 -9 -8 -9 -5 0 -9 7 -9 15 0 8 4 12 9 9 4 -3 8 -9 8 -15z
m-1990 6 c0 -2 -6 -8 -13 -14 -10 -8 -14 -7 -14 2 0 8 6 14 14 14 7 0 13 -1
13 -2z m214 -3 c3 -5 -1 -9 -9 -9 -8 0 -12 4 -9 9 3 4 7 8 9 8 2 0 6 -4 9 -8z
m32 -17 c1 -8 -1 -17 -5 -19 -4 -3 -7 6 -7 19 0 25 8 25 12 0z m84 19 c0 -8
-19 -13 -24 -6 -3 5 1 9 9 9 8 0 15 -2 15 -3z m117 -9 c0 -8 -4 -12 -9 -9 -5
3 -6 10 -3 15 9 13 12 11 12 -6z m423 6 c0 -6 -4 -12 -8 -15 -5 -3 -9 1 -9 9
0 8 4 15 9 15 4 0 8 -4 8 -9z m304 0 c-8 -8 -34 -10 -38 -2 -3 4 6 7 19 7 14
0 22 -2 19 -5z m553 -6 c0 -8 -4 -12 -9 -9 -5 3 -6 10 -3 15 9 13 12 11 12 -6z
m337 6 c-8 -8 -34 -10 -38 -2 -3 4 6 7 19 7 14 0 22 -2 19 -5z m-610 -19 c3
-5 -1 -9 -9 -9 -8 0 -15 4 -15 9 0 4 4 8 9 8 6 0 12 -4 15 -8z m316 0 c0 -5
-7 -9 -15 -9 -8 0 -12 4 -9 9 3 4 9 8 15 8 5 0 9 -4 9 -8z m-1423 -17 c0 -8
-4 -15 -9 -15 -10 0 -11 14 -1 23 9 10 10 9 10 -8z m39 -11 c1 -9 0 -13 -4
-10 -3 4 -7 14 -8 22 -1 9 0 13 4 10 3 -4 7 -14 8 -22z m763 13 c8 -10 7 -14
-2 -14 -8 0 -14 6 -14 14 0 7 1 13 2 13 2 0 8 -6 14 -13z m918 0 c0 -8 -6 -14
-14 -14 -9 0 -10 4 -2 14 6 7 12 13 14 13 1 0 2 -6 2 -13z m-2057 -8 c0 -4 -9
-7 -19 -6 -11 0 -18 4 -16 7 6 9 35 8 35 -1z m617 -6 c0 -9 -4 -10 -14 -2 -7
6 -13 12 -13 14 0 1 6 2 13 2 8 0 14 -6 14 -14z m299 2 c-3 -23 -12 -26 -13
-5 -1 11 2 20 7 20 4 0 7 -7 6 -15z m478 6 c-8 -8 -34 -10 -38 -2 -3 4 6 7 19
7 14 0 22 -2 19 -5z m431 0 c-9 -8 -36 -10 -30 -2 2 4 11 8 20 8 8 0 13 -3 10
-6z m-1749 -16 c-1 -8 -5 -17 -8 -21 -5 -4 -4 16 1 34 3 9 9 -1 7 -13z m599 6
c3 -5 2 -12 -3 -15 -5 -3 -9 1 -9 9 0 17 3 19 12 6z m-471 -9 c3 -5 -1 -9 -9
-9 -8 0 -15 4 -15 9 0 4 4 8 9 8 6 0 12 -4 15 -8z m240 0 c3 -5 -1 -9 -9 -9
-8 0 -15 4 -15 9 0 4 4 8 9 8 6 0 12 -4 15 -8z m281 -1 c-9 -8 -36 -10 -30 -2
2 4 11 8 20 8 8 0 13 -3 10 -6z m240 0 c-9 -8 -36 -10 -30 -2 2 4 11 8 20 8 8
0 13 -3 10 -6z m1319 1 c2 -4 -4 -8 -14 -8 -10 0 -16 4 -14 8 3 4 9 8 14 8 5
0 11 -4 14 -8z m-1529 -11 c3 -5 2 -12 -3 -15 -5 -3 -9 1 -9 9 0 17 3 19 12 6z
m241 -16 c1 -8 -1 -17 -5 -19 -4 -3 -7 6 -7 19 0 25 8 25 12 0z m-1105 -2 c12
-16 12 -17 -2 -6 -9 7 -20 9 -24 5 -5 -4 -5 -1 -1 6 9 16 11 15 27 -5z m123 8
c-9 -9 -34 -9 -34 -1 0 5 9 8 20 7 10 -1 17 -3 14 -6z m110 1 c3 -5 -1 -9 -9
-9 -8 0 -12 4 -9 9 3 4 7 8 9 8 2 0 6 -4 9 -8z m176 -1 c0 -6 -4 -12 -8 -15
-5 -3 -9 1 -9 9 0 8 4 15 9 15 4 0 8 -4 8 -9z m74 -2 c3 -3 -5 -5 -19 -5 -13
0 -22 3 -19 7 4 8 30 6 38 -2z m231 2 c-9 -8 -36 -10 -30 -2 2 4 11 8 20 8 8
0 13 -3 10 -6z m632 -6 c0 -8 -4 -12 -9 -9 -5 3 -6 10 -3 15 9 13 12 11 12 -6z
m718 6 c3 -5 2 -12 -3 -15 -5 -3 -9 1 -9 9 0 17 3 19 12 6z m240 0 c3 -5 2
-12 -3 -15 -5 -3 -9 1 -9 9 0 17 3 19 12 6z m-1320 -10 c3 -5 2 -12 -3 -15 -5
-3 -9 1 -9 9 0 17 3 19 12 6z m325 -13 c0 -4 -4 -8 -9 -8 -6 0 -12 4 -15 8 -3
5 1 9 9 9 8 0 15 -4 15 -9z m120 0 c0 -4 -4 -8 -9 -8 -6 0 -12 4 -15 8 -3 5 1
9 9 9 8 0 15 -4 15 -9z m69 -14 c-7 -8 -19 -12 -27 -9 -8 3 -22 0 -31 -7 -14
-12 -14 -11 -3 4 8 10 24 16 35 15 14 -1 21 3 19 11 -1 8 2 11 8 7 8 -5 7 -11
-1 -21z m51 14 c0 -4 -4 -8 -9 -8 -6 0 -12 4 -15 8 -3 5 1 9 9 9 8 0 15 -4 15
-9z m69 -14 c-7 -8 -19 -12 -27 -9 -8 3 -22 0 -31 -7 -14 -12 -14 -11 -3 4 8
10 24 16 35 15 14 -1 21 3 19 11 -1 8 2 11 8 7 8 -5 7 -11 -1 -21z m51 14 c0
-4 -4 -8 -9 -8 -6 0 -12 4 -15 8 -3 5 1 9 9 9 8 0 15 -4 15 -9z m84 0 c-3 -4
-9 -8 -15 -8 -5 0 -9 4 -9 8 0 5 7 9 15 9 8 0 12 -4 9 -9z m33 -3 c0 -8 -4
-12 -9 -9 -5 3 -6 10 -3 15 9 13 12 11 12 -6z m87 3 c-3 -4 -9 -8 -15 -8 -5 0
-9 4 -9 8 0 5 7 9 15 9 8 0 12 -4 9 -9z m33 -3 c0 -8 -4 -12 -9 -9 -5 3 -6 10
-3 15 9 13 12 11 12 -6z m87 3 c-3 -4 -9 -8 -15 -8 -5 0 -9 4 -9 8 0 5 7 9 15
9 8 0 12 -4 9 -9z m120 0 c-3 -4 -9 -8 -15 -8 -5 0 -9 4 -9 8 0 5 7 9 15 9 8
0 12 -4 9 -9z m120 0 c-3 -4 -9 -8 -15 -8 -5 0 -9 4 -9 8 0 5 7 9 15 9 8 0 12
-4 9 -9z m33 -3 c0 -8 -4 -12 -9 -9 -5 3 -6 10 -3 15 9 13 12 11 12 -6z m87 3
c-3 -4 -9 -8 -15 -8 -5 0 -9 4 -9 8 0 5 7 9 15 9 8 0 12 -4 9 -9z m111 3 c3
-5 2 -12 -3 -15 -5 -3 -9 1 -9 9 0 17 3 19 12 6z m-2344 -15 c-12 -14 -35 -16
-47 -3 -4 3 3 5 14 2 12 -2 24 0 27 6 4 5 9 9 12 9 3 0 0 -6 -6 -14z m129 10
c0 -2 -6 -9 -14 -15 -11 -9 -16 -9 -22 0 -4 7 -3 9 4 5 6 -3 13 -2 17 4 6 10
15 14 15 6z m1008 -12 c-13 -13 -20 -14 -34 -5 -17 11 -17 11 3 6 12 -3 24 -1
28 5 3 5 9 10 13 10 3 0 -1 -7 -10 -16z m122 1 c-7 -9 -20 -13 -28 -10 -8 3
-22 0 -31 -7 -14 -12 -15 -11 -2 5 8 10 21 15 32 12 9 -3 20 -1 24 5 3 5 9 10
12 10 3 0 0 -7 -7 -15z m-1380 -1 c0 -8 -19 -13 -24 -6 -3 5 1 9 9 9 8 0 15
-2 15 -3z m1720 -5 c12 -9 12 -10 -4 -5 -10 4 -26 1 -35 -6 -14 -12 -14 -11
-2 5 16 20 21 21 41 6z m120 0 c12 -9 12 -10 -4 -5 -10 4 -26 1 -35 -6 -14
-12 -14 -11 -2 5 16 20 21 21 41 6z m120 0 c12 -9 12 -10 -4 -5 -10 4 -26 1
-35 -6 -14 -12 -14 -11 -2 5 16 20 21 21 41 6z m110 3 c0 -5 -7 -9 -15 -9 -8
0 -12 4 -9 9 3 4 9 8 15 8 5 0 9 -4 9 -8z m120 0 c0 -5 -7 -9 -15 -9 -8 0 -12
4 -9 9 3 4 9 8 15 8 5 0 9 -4 9 -8z m120 0 c0 -5 -7 -9 -15 -9 -8 0 -12 4 -9
9 3 4 9 8 15 8 5 0 9 -4 9 -8z m120 0 c0 -5 -7 -9 -15 -9 -8 0 -12 4 -9 9 3 4
9 8 15 8 5 0 9 -4 9 -8z m374 0 c3 -5 -1 -9 -9 -9 -8 0 -12 4 -9 9 3 4 7 8 9
8 2 0 6 -4 9 -8z m-2139 -21 c3 -5 2 -12 -3 -15 -5 -3 -9 1 -9 9 0 17 3 19 12
6z m121 -16 c1 -8 -1 -17 -5 -19 -4 -3 -7 6 -7 19 0 25 8 25 12 0z m119 16 c3
-5 2 -12 -3 -15 -5 -3 -9 1 -9 9 0 17 3 19 12 6z m121 -16 c1 -8 -1 -17 -5
-19 -4 -3 -7 6 -7 19 0 25 8 25 12 0z m2340 10 c-1 -8 -5 -17 -8 -21 -5 -4 -4
16 1 34 3 9 9 -1 7 -13z m-3276 -16 c0 -5 -4 -9 -8 -9 -5 0 -9 7 -9 15 0 8 4
12 9 9 4 -3 8 -9 8 -15z m240 0 c0 -5 -4 -9 -8 -9 -5 0 -9 7 -9 15 0 8 4 12 9
9 4 -3 8 -9 8 -15z m1840 0 c0 -5 -4 -9 -8 -9 -5 0 -9 7 -9 15 0 8 4 12 9 9 4
-3 8 -9 8 -15z m240 0 c0 -5 -4 -9 -8 -9 -5 0 -9 7 -9 15 0 8 4 12 9 9 4 -3 8
-9 8 -15z m135 9 c5 4 5 1 1 -6 -6 -10 -11 -10 -22 -1 -8 6 -14 14 -14 16 0 3
6 0 13 -6 8 -6 18 -7 22 -3z m118 -1 c4 3 7 1 7 -5 0 -6 -8 -10 -18 -9 -10 0
-19 7 -19 14 0 9 4 10 12 3 7 -5 15 -7 18 -3z m227 -8 c0 -5 -4 -9 -8 -9 -5 0
-9 7 -9 15 0 8 4 12 9 9 4 -3 8 -9 8 -15z m-2726 2 c-8 -8 -34 -10 -38 -2 -3
4 6 7 19 7 14 0 22 -2 19 -5z m232 -3 c3 -4 -1 -5 -10 -4 -8 1 -18 5 -22 8 -3
4 1 5 10 4 8 -1 18 -5 22 -8z m149 3 c3 -5 2 -12 -3 -15 -5 -3 -9 1 -9 9 0 17
3 19 12 6z m96 -8 c12 -16 12 -17 -2 -6 -9 7 -20 9 -24 5 -5 -4 -5 -1 -1 6 9
16 11 15 27 -5z m643 6 c3 -3 -5 -5 -19 -5 -13 0 -22 3 -19 7 4 8 30 6 38 -2z
m70 3 c3 -5 -1 -9 -9 -9 -8 0 -12 4 -9 9 3 4 7 8 9 8 2 0 6 -4 9 -8z m37 -6
c-5 -6 -7 -18 -6 -27 2 -9 -3 -16 -11 -16 -8 0 -10 4 -5 11 5 6 7 18 6 27 -2
9 3 16 11 16 8 0 10 -4 5 -11z m75 -12 c0 -20 -11 -25 -11 -6 0 4 -3 12 -7 18
-4 6 -1 11 5 11 7 0 13 -11 13 -23z m38 18 c3 -5 -1 -9 -9 -9 -8 0 -12 4 -9 9
3 4 7 8 9 8 2 0 6 -4 9 -8z m92 -4 c3 -4 -1 -5 -10 -4 -8 1 -18 5 -22 8 -3 4
1 5 10 4 8 -1 18 -5 22 -8z m30 -13 c1 -8 -1 -17 -5 -19 -4 -3 -7 6 -7 19 0
25 8 25 12 0z m84 13 c0 -4 -4 -8 -9 -8 -6 0 -12 4 -15 8 -3 5 1 9 9 9 8 0 15
-4 15 -9z m34 4 c3 -5 -1 -9 -9 -9 -8 0 -12 4 -9 9 3 4 7 8 9 8 2 0 6 -4 9 -8z
m100 -1 c-8 -8 -34 -10 -38 -2 -3 4 6 7 19 7 14 0 22 -2 19 -5z m106 -2 c0 -4
-9 -7 -19 -6 -11 0 -18 4 -16 7 6 9 35 8 35 -1z m280 5 c0 -8 -19 -13 -24 -6
-3 5 1 9 9 9 8 0 15 -2 15 -3z m240 0 c0 -8 -19 -13 -24 -6 -3 5 1 9 9 9 8 0
15 -2 15 -3z m480 0 c0 -8 -19 -13 -24 -6 -3 5 1 9 9 9 8 0 15 -2 15 -3z m85
-3 c-9 -8 -36 -10 -30 -2 2 4 11 8 20 8 8 0 13 -3 10 -6z m-1169 -16 c-1 -8
-5 -17 -8 -21 -5 -4 -4 16 1 34 3 9 9 -1 7 -13z m-1632 -7 c-3 -4 -9 -8 -15
-8 -5 0 -9 4 -9 8 0 5 7 9 15 9 8 0 12 -4 9 -9z m246 7 c0 -2 -6 -8 -13 -14
-10 -8 -14 -7 -14 2 0 8 6 14 14 14 7 0 13 -1 13 -2z m34 -3 c3 -5 -1 -9 -9
-9 -8 0 -12 4 -9 9 3 4 7 8 9 8 2 0 6 -4 9 -8z m192 -17 c1 -8 -2 -15 -6 -15
-5 0 -8 9 -7 20 1 21 10 18 13 -5z m50 13 c3 -4 -1 -5 -10 -4 -8 1 -18 5 -22
8 -3 4 1 5 10 4 8 -1 18 -5 22 -8z m189 3 c3 -5 2 -12 -3 -15 -5 -3 -9 1 -9 9
0 17 3 19 12 6z m51 -3 c3 -4 -1 -5 -10 -4 -8 1 -18 5 -22 8 -3 4 1 5 10 4 8
-1 18 -5 22 -8z m231 -5 c0 -9 -4 -10 -14 -2 -7 6 -13 12 -13 14 0 1 6 2 13 2
8 0 14 -6 14 -14z m1963 5 c0 -4 -4 -8 -9 -8 -6 0 -12 4 -15 8 -3 5 1 9 9 9 8
0 15 -4 15 -9z m120 6 c0 -8 -19 -13 -24 -6 -3 5 1 9 9 9 8 0 15 -2 15 -3z
m-3144 -19 c-1 -8 -5 -17 -8 -21 -5 -4 -4 16 1 34 3 9 9 -1 7 -13z m241 2 c0
-8 -6 -14 -14 -14 -9 0 -10 4 -2 14 6 7 12 13 14 13 1 0 2 -6 2 -13z m780 -2
c0 -8 -4 -15 -9 -15 -10 0 -11 14 -1 23 9 10 10 9 10 -8z m1300 0 c0 -8 -3
-13 -5 -10 -3 3 -12 -1 -21 -7 -10 -8 -9 -4 3 10 23 26 23 26 23 7z m522 2 c8
-10 7 -14 -2 -14 -8 0 -14 6 -14 14 0 7 1 13 2 13 2 0 8 -6 14 -13z m-2882
-12 c0 -8 -4 -12 -9 -9 -4 3 -8 9 -8 15 0 5 4 9 8 9 5 0 9 -7 9 -15z m1587 7
c3 -5 -1 -9 -9 -9 -8 0 -15 4 -15 9 0 4 4 8 9 8 6 0 12 -4 15 -8z m180 0 c3
-5 -1 -9 -9 -9 -8 0 -12 4 -9 9 3 4 7 8 9 8 2 0 6 -4 9 -8z m313 -7 c0 -8 -4
-12 -9 -9 -4 3 -8 9 -8 15 0 5 4 9 8 9 5 0 9 -7 9 -15z m480 0 c0 -8 -4 -12
-9 -9 -4 3 -8 9 -8 15 0 5 4 9 8 9 5 0 9 -7 9 -15z m547 7 c3 -5 -1 -9 -9 -9
-8 0 -15 4 -15 9 0 4 4 8 9 8 6 0 12 -4 15 -8z m-1247 -15 c0 -8 -6 -14 -14
-14 -9 0 -10 4 -2 14 6 7 12 13 14 13 1 0 2 -6 2 -13z m39 -13 c1 -9 0 -13 -4
-10 -3 4 -7 14 -8 22 -1 9 0 13 4 10 3 -4 7 -14 8 -22z m80 0 c1 -9 0 -13 -4
-10 -3 4 -7 14 -8 22 -1 9 0 13 4 10 3 -4 7 -14 8 -22z m480 0 c1 -9 0 -13 -4
-10 -3 4 -7 14 -8 22 -1 9 0 13 4 10 3 -4 7 -14 8 -22z m-1076 8 c0 -5 -7 -9
-15 -9 -8 0 -12 4 -9 9 3 4 9 8 15 8 5 0 9 -4 9 -8z m401 -5 c-6 -8 -7 -18 -3
-22 4 -5 1 -5 -6 -1 -10 6 -10 11 -1 22 6 8 14 14 16 14 3 0 0 -6 -6 -13z
m475 -12 c1 -8 -1 -17 -5 -19 -4 -3 -7 6 -7 19 0 25 8 25 12 0z m50 13 c3 -4
-1 -5 -10 -4 -8 1 -18 5 -22 8 -3 4 1 5 10 4 8 -1 18 -5 22 -8z m71 -3 c0 -8
-4 -12 -9 -9 -5 3 -6 10 -3 15 9 13 12 11 12 -6z m279 -10 c1 -8 -1 -17 -5
-19 -4 -3 -7 6 -7 19 0 25 8 25 12 0z m130 13 c3 -4 -1 -5 -10 -4 -8 1 -18 5
-22 8 -3 4 1 5 10 4 8 -1 18 -5 22 -8z m-2689 -13 c0 -8 -4 -12 -9 -9 -5 3 -6
10 -3 15 9 13 12 11 12 -6z m422 2 c8 -10 7 -14 -2 -14 -8 0 -14 6 -14 14 0 7
1 13 2 13 2 0 8 -6 14 -13z m481 -8 c0 -5 -4 -9 -8 -9 -5 0 -9 7 -9 15 0 8 4
12 9 9 4 -3 8 -9 8 -15z m55 12 c3 -5 2 -12 -3 -15 -5 -3 -9 1 -9 9 0 17 3 19
12 6z m62 -6 c0 -8 -4 -15 -9 -15 -10 0 -11 14 -1 23 9 10 10 9 10 -8z m123
-6 c0 -5 -4 -9 -8 -9 -5 0 -9 7 -9 15 0 8 4 12 9 9 4 -3 8 -9 8 -15z m357 6
c0 -8 -4 -15 -9 -15 -10 0 -11 14 -1 23 9 10 10 9 10 -8z m579 0 c-1 -8 -5
-17 -8 -21 -5 -4 -4 16 1 34 3 9 9 -1 7 -13z m560 0 c-1 -8 -5 -17 -8 -21 -5
-4 -4 16 1 34 3 9 9 -1 7 -13z m354 -14 c0 -10 -5 -43 -11 -75 -8 -45 -7 -61
3 -74 12 -16 11 -16 -7 0 -11 9 -36 20 -55 26 l-35 9 3 53 c3 56 22 83 51 72
8 -3 12 -1 8 5 -4 6 3 8 18 5 15 -2 25 -11 25 -21z m-3037 1 c15 -16 15 -19 2
-19 -8 0 -13 3 -10 5 3 3 0 11 -6 19 -17 20 -5 16 14 -5z m122 9 c3 -5 2 -12
-3 -15 -5 -3 -9 1 -9 9 0 17 3 19 12 6z m219 0 c-9 -9 -34 -9 -34 -1 0 5 9 8
20 7 10 -1 17 -3 14 -6z m483 -6 c0 -8 -4 -12 -9 -9 -4 3 -8 9 -8 15 0 5 4 9
8 9 5 0 9 -7 9 -15z m400 0 c0 -8 -4 -12 -9 -9 -4 3 -8 9 -8 15 0 5 4 9 8 9 5
0 9 -7 9 -15z m283 6 c0 -6 -4 -12 -8 -15 -5 -3 -9 1 -9 9 0 8 4 15 9 15 4 0
8 -4 8 -9z m394 -2 c3 -3 -5 -5 -19 -5 -13 0 -22 3 -19 7 4 8 30 6 38 -2z
m110 2 c-8 -8 -34 -10 -38 -2 -3 4 6 7 19 7 14 0 22 -2 19 -5z m350 1 c3 -5
-1 -9 -9 -9 -8 0 -12 4 -9 9 3 4 7 8 9 8 2 0 6 -4 9 -8z m141 -3 c3 -3 -6 -5
-19 -5 -14 1 -28 4 -31 7 -3 3 6 5 19 5 14 -1 28 -4 31 -7z m-416 -12 c8 -10
7 -14 -2 -14 -8 0 -14 6 -14 14 0 7 1 13 2 13 2 0 8 -6 14 -13z m480 0 c8 -10
7 -14 -2 -14 -8 0 -14 6 -14 14 0 7 1 13 2 13 2 0 8 -6 14 -13z m-2395 -9 c-3
-4 -9 -8 -15 -8 -5 0 -9 4 -9 8 0 5 7 9 15 9 8 0 12 -4 9 -9z m471 3 c3 -5 2
-12 -3 -15 -5 -3 -9 1 -9 9 0 17 3 19 12 6z m45 -3 c0 -4 -4 -8 -9 -8 -6 0
-12 4 -15 8 -3 5 1 9 9 9 8 0 15 -4 15 -9z m35 3 c3 -5 2 -12 -3 -15 -5 -3 -9
1 -9 9 0 17 3 19 12 6z m1529 -3 c-3 -4 -9 -8 -15 -8 -5 0 -9 4 -9 8 0 5 7 9
15 9 8 0 12 -4 9 -9z m606 -26 c0 -31 -4 -38 -19 -38 -11 0 -18 3 -15 7 2 4
-2 9 -8 12 -9 3 -5 12 12 30 14 14 26 25 28 26 1 1 2 -16 2 -37z m-2654 3 c1
-8 -1 -17 -5 -19 -4 -3 -7 6 -7 19 0 25 8 25 12 0z m140 10 c-1 -8 -5 -17 -8
-21 -5 -4 -4 16 1 34 3 9 9 -1 7 -13z m1523 2 c8 -10 7 -14 -2 -14 -8 0 -14 6
-14 14 0 7 1 13 2 13 2 0 8 -6 14 -13z m121 -8 c0 -5 -4 -9 -8 -9 -5 0 -9 7
-9 15 0 8 4 12 9 9 4 -3 8 -9 8 -15z m373 7 c3 3 4 -1 3 -10 -1 -8 -5 -18 -9
-21 -4 -3 -5 -2 -2 2 3 3 -3 16 -12 27 -14 15 -14 18 -2 8 9 -6 18 -9 22 -6z
m130 0 c11 1 16 0 13 -4 -13 -12 -36 -10 -48 6 -11 15 -11 15 2 6 8 -6 23 -10
33 -8z m-2406 -13 c0 -8 -4 -10 -12 -3 -7 5 -16 6 -20 2 -5 -4 -5 -2 -2 4 9
15 34 13 34 -3z m1117 9 c3 -5 -1 -9 -9 -9 -8 0 -12 4 -9 9 3 4 7 8 9 8 2 0 6
-4 9 -8z m203 -9 c0 -8 -4 -10 -12 -3 -7 5 -16 6 -20 2 -5 -4 -5 -2 -2 4 9 15
34 13 34 -3z m137 8 c-7 -8 -54 -9 -49 -1 2 3 15 6 29 6 14 0 23 -2 20 -5z
m126 3 c0 -8 -19 -13 -24 -6 -3 5 1 9 9 9 8 0 15 -2 15 -3z m237 -9 c0 -8 -4
-12 -9 -9 -4 3 -8 9 -8 15 0 5 4 9 8 9 5 0 9 -7 9 -15z m263 9 c0 -8 -19 -13
-24 -6 -3 5 1 9 9 9 8 0 15 -2 15 -3z m135 -3 c-9 -8 -36 -10 -30 -2 2 4 11 8
20 8 8 0 13 -3 10 -6z m325 3 c0 -8 -19 -13 -24 -6 -3 5 1 9 9 9 8 0 15 -2 15
-3z m-944 -19 c-1 -8 -8 -21 -16 -28 -10 -10 -11 -9 -4 3 5 8 9 18 10 23 3 14
4 17 8 17 2 0 3 -7 2 -15z m721 2 c0 -8 -6 -14 -14 -14 -9 0 -10 4 -2 14 6 7
12 13 14 13 1 0 2 -6 2 -13z m-2441 -22 c1 -8 -1 -17 -5 -19 -4 -3 -7 6 -7 19
0 25 8 25 12 0z m41 8 c0 -9 -4 -10 -14 -2 -7 6 -13 12 -13 14 0 1 6 2 13 2 8
0 14 -6 14 -14z m123 9 c0 -5 -7 -9 -15 -9 -8 0 -12 4 -9 9 3 4 9 8 15 8 5 0
9 -4 9 -8z m316 -17 c1 -8 -1 -17 -5 -19 -4 -3 -7 6 -7 19 0 25 8 25 12 0z
m41 8 c0 -9 -4 -10 -14 -2 -7 6 -13 12 -13 14 0 1 6 2 13 2 8 0 14 -6 14 -14z
m399 -19 c0 -13 -2 -22 -5 -19 -3 3 -6 17 -7 31 0 13 2 22 5 19 3 -3 6 -17 7
-31z m33 22 c9 -11 9 -16 -1 -22 -7 -4 -10 -4 -6 1 4 4 3 14 -3 22 -6 7 -9 13
-6 13 2 0 10 -6 16 -14z m92 1 c-6 -8 -7 -18 -3 -22 4 -5 1 -5 -6 -1 -10 6
-10 11 -1 22 6 8 14 14 16 14 3 0 0 -6 -6 -13z m129 8 c0 -2 -6 -8 -13 -14
-10 -8 -14 -7 -14 2 0 8 6 14 14 14 7 0 13 -1 13 -2z m154 -3 c3 -5 -1 -9 -9
-9 -8 0 -15 4 -15 9 0 4 4 8 9 8 6 0 12 -4 15 -8z m156 0 c0 -5 -7 -9 -15 -9
-8 0 -12 4 -9 9 3 4 9 8 15 8 5 0 9 -4 9 -8z m116 -17 c1 -8 -1 -17 -5 -19 -4
-3 -7 6 -7 19 0 25 8 25 12 0z m41 8 c0 -9 -4 -10 -14 -2 -7 6 -13 12 -13 14
0 1 6 2 13 2 8 0 14 -6 14 -14z m1038 8 c3 -5 2 -12 -3 -15 -5 -3 -9 1 -9 9 0
17 3 19 12 6z m-1579 -13 c5 4 5 3 1 -2 -12 -15 -34 -15 -34 0 0 9 4 11 12 4
7 -5 16 -6 21 -2z m100 -13 c1 -8 -1 -17 -5 -19 -4 -3 -7 6 -7 19 0 25 8 25
12 0z m80 0 c1 -8 -1 -17 -5 -19 -4 -3 -7 6 -7 19 0 25 8 25 12 0z m241 10 c0
-8 -4 -12 -9 -9 -5 3 -6 10 -3 15 9 13 12 11 12 -6z m700 0 c0 -8 -4 -15 -9
-15 -10 0 -11 14 -1 23 9 10 10 9 10 -8z m-1817 -1 c0 -8 -19 -13 -24 -6 -3 5
1 9 9 9 8 0 15 -2 15 -3z m205 -3 c-9 -8 -36 -10 -30 -2 2 4 11 8 20 8 8 0 13
-3 10 -6z m71 -15 c0 -14 -3 -23 -7 -20 -6 3 -6 22 0 42 3 10 7 -2 7 -22z m49
15 c-9 -8 -36 -10 -30 -2 2 4 11 8 20 8 8 0 13 -3 10 -6z m89 -2 c3 -3 -5 -5
-19 -5 -13 0 -22 3 -19 7 4 8 30 6 38 -2z m950 3 c3 -5 -1 -9 -9 -9 -8 0 -12
4 -9 9 3 4 7 8 9 8 2 0 6 -4 9 -8z m166 2 c0 -8 -19 -13 -24 -6 -3 5 1 9 9 9
8 0 15 -2 15 -3z m250 -3 c0 -6 -4 -12 -8 -15 -5 -3 -9 1 -9 9 0 8 4 15 9 15
4 0 8 -4 8 -9z m440 3 c0 -8 -19 -13 -24 -6 -3 5 1 9 9 9 8 0 15 -2 15 -3z
m-1295 -23 c-9 -8 -36 -10 -30 -2 2 4 11 8 20 8 8 0 13 -3 10 -6z m161 -3 c3
-4 -1 -5 -10 -4 -8 1 -18 5 -22 8 -3 4 1 5 10 4 8 -1 18 -5 22 -8z m350 -13
c1 -8 -2 -15 -6 -15 -5 0 -8 9 -7 20 1 21 10 18 13 -5z m40 9 c-1 -8 -6 -17
-12 -21 -5 -4 -6 -4 -2 1 4 5 3 14 -2 21 -7 8 -5 12 4 12 8 0 13 -6 12 -13z
m444 4 c0 -4 -4 -8 -9 -8 -6 0 -12 4 -15 8 -3 5 1 9 9 9 8 0 15 -4 15 -9z
m517 -5 c0 -9 -4 -10 -14 -2 -7 6 -13 12 -13 14 0 1 6 2 13 2 8 0 14 -6 14
-14z m-2737 -14 c0 -5 -4 -9 -8 -9 -5 0 -9 7 -9 15 0 8 4 12 9 9 4 -3 8 -9 8
-15z m480 0 c0 -5 -4 -9 -8 -9 -5 0 -9 7 -9 15 0 8 4 12 9 9 4 -3 8 -9 8 -15z
m216 9 c5 4 5 3 1 -2 -12 -15 -34 -15 -34 0 0 9 4 11 12 4 7 -5 16 -6 21 -2z
m301 -3 c0 -8 -4 -15 -9 -15 -10 0 -11 14 -1 23 9 10 10 9 10 -8z m559 0 c-1
-8 -5 -17 -8 -21 -5 -4 -4 16 1 34 3 9 9 -1 7 -13z m44 -6 c0 -5 -4 -9 -8 -9
-5 0 -9 7 -9 15 0 8 4 12 9 9 4 -3 8 -9 8 -15z m76 6 c-1 -8 -5 -17 -8 -21 -5
-4 -4 16 1 34 3 9 9 -1 7 -13z m840 0 c-1 -8 -5 -17 -8 -21 -5 -4 -4 16 1 34
3 9 9 -1 7 -13z m181 2 c0 -7 -11 -13 -23 -13 -12 0 -20 4 -18 8 3 5 9 6 14 3
5 -3 11 -1 15 5 8 13 12 13 12 -3z m-2572 -6 c-9 -8 -36 -10 -30 -2 2 4 11 8
20 8 8 0 13 -3 10 -6z m75 3 c0 -8 -19 -13 -24 -6 -3 5 1 9 9 9 8 0 15 -2 15
-3z m720 0 c0 -8 -19 -13 -24 -6 -3 5 1 9 9 9 8 0 15 -2 15 -3z m410 1 c0 -2
-6 -8 -13 -14 -10 -8 -14 -7 -14 2 0 8 6 14 14 14 7 0 13 -1 13 -2z m606 -7
c3 -4 -1 -5 -10 -4 -8 1 -18 5 -22 8 -3 4 1 5 10 4 8 -1 18 -5 22 -8z m159 -7
c-1 -9 1 -21 6 -27 5 -7 3 -11 -5 -11 -8 0 -13 7 -11 16 1 9 -1 21 -6 27 -5 7
-3 11 5 11 8 0 13 -7 11 -16z m197 8 c2 -2 1 -3 -1 -2 -2 2 -9 -2 -16 -7 -8
-7 -12 -5 -12 4 0 12 22 16 29 5z m165 -7 c0 -10 -7 -19 -14 -19 -9 0 -10 4
-3 12 5 7 7 15 3 18 -3 4 -1 7 5 7 6 0 10 -8 9 -18z m-281 -16 c0 -14 -3 -23
-7 -20 -6 3 -6 22 0 42 3 10 7 -2 7 -22z m-2040 -10 c0 -14 -3 -23 -7 -20 -6
3 -6 22 0 42 3 10 7 -2 7 -22z m244 16 c0 -5 -7 -9 -15 -9 -8 0 -12 4 -9 9 3
4 9 8 15 8 5 0 9 -4 9 -8z m1120 0 c0 -5 -7 -9 -15 -9 -8 0 -12 4 -9 9 3 4 9
8 15 8 5 0 9 -4 9 -8z m881 -5 c-6 -8 -7 -18 -3 -22 4 -5 1 -5 -6 -1 -10 6
-10 11 -1 22 6 8 14 14 16 14 3 0 0 -6 -6 -13z m-2184 -12 c0 -8 -4 -15 -9
-15 -10 0 -11 14 -1 23 9 10 10 9 10 -8z m1742 -12 c2 -1 -5 -1 -16 0 -11 0
-20 7 -20 14 0 10 4 10 16 1 9 -7 18 -13 20 -15z m701 6 c0 -5 -4 -9 -8 -9 -5
0 -9 7 -9 15 0 8 4 12 9 9 4 -3 8 -9 8 -15z m55 12 c3 -5 2 -12 -3 -15 -5 -3
-9 1 -9 9 0 17 3 19 12 6z m185 -12 c0 -5 -4 -9 -8 -9 -5 0 -9 7 -9 15 0 8 4
12 9 9 4 -3 8 -9 8 -15z m-2896 3 c3 -5 -1 -9 -9 -9 -8 0 -12 4 -9 9 3 4 7 8
9 8 2 0 6 -4 9 -8z m33 -7 c0 -8 -4 -12 -9 -9 -4 3 -8 9 -8 15 0 5 4 9 8 9 5
0 9 -7 9 -15z m277 6 c3 -5 -2 -15 -12 -22 -15 -12 -16 -12 -5 2 7 9 10 19 6
22 -3 4 -4 7 0 7 3 0 8 -4 11 -9z m170 1 c3 -5 -1 -9 -9 -9 -8 0 -12 4 -9 9 3
4 7 8 9 8 2 0 6 -4 9 -8z m53 -7 c0 -8 -4 -12 -9 -9 -4 3 -8 9 -8 15 0 5 4 9
8 9 5 0 9 -7 9 -15z m683 6 c0 -6 -4 -12 -8 -15 -5 -3 -9 1 -9 9 0 8 4 15 9
15 4 0 8 -4 8 -9z m54 1 c3 -5 -1 -9 -9 -9 -8 0 -12 4 -9 9 3 4 7 8 9 8 2 0 6
-4 9 -8z m90 -3 c3 -3 -5 -5 -19 -5 -13 0 -22 3 -19 7 4 8 30 6 38 -2z m53 -4
c0 -8 -4 -12 -9 -9 -4 3 -8 9 -8 15 0 5 4 9 8 9 5 0 9 -7 9 -15z m187 7 c3 -5
-1 -9 -9 -9 -8 0 -12 4 -9 9 3 4 7 8 9 8 2 0 6 -4 9 -8z m32 -17 c1 -8 -5 -20
-14 -27 -15 -11 -15 -11 -6 2 6 8 10 23 8 33 -1 11 0 16 4 13 3 -4 7 -13 8
-21z m68 17 c3 -5 -1 -9 -9 -9 -8 0 -12 4 -9 9 3 4 7 8 9 8 2 0 6 -4 9 -8z
m133 1 c-4 -3 -1 -13 6 -22 11 -14 10 -14 -5 -2 -16 12 -16 31 -1 31 4 0 3 -3
0 -7z m169 -5 c3 -4 -1 -5 -10 -4 -8 1 -18 5 -22 8 -3 4 1 5 10 4 8 -1 18 -5
22 -8z m84 6 c0 -8 -19 -13 -24 -6 -3 5 1 9 9 9 8 0 15 -2 15 -3z m164 -3 c-8
-8 -34 -10 -38 -2 -3 4 6 7 19 7 14 0 22 -2 19 -5z m66 3 c0 -8 -19 -13 -24
-6 -3 5 1 9 9 9 8 0 15 -2 15 -3z m254 -3 c-8 -8 -34 -10 -38 -2 -3 4 6 7 19
7 14 0 22 -2 19 -5z m-1859 -20 c3 -5 2 -12 -3 -15 -5 -3 -9 1 -9 9 0 17 3 19
12 6z m42 -14 c1 -11 1 -18 0 -16 -2 2 -8 11 -15 20 -9 12 -9 16 1 16 7 0 14
-9 14 -20z m79 -11 c-2 -38 -12 -39 -12 -1 0 18 3 32 7 30 3 -3 5 -15 5 -29z
m40 8 c-1 -13 -5 -26 -8 -29 -4 -4 -5 1 -4 12 2 10 0 23 -5 29 -5 6 -4 11 5
11 7 0 12 -10 12 -23z m84 11 c-5 -7 -7 -15 -3 -18 3 -4 1 -7 -5 -7 -6 0 -10
8 -9 18 0 10 7 19 14 19 9 0 10 -4 3 -12z m1635 6 c3 -5 2 -12 -3 -15 -5 -3
-9 1 -9 9 0 17 3 19 12 6z m365 -3 c0 -4 -4 -8 -9 -8 -6 0 -12 4 -15 8 -3 5 1
9 9 9 8 0 15 -4 15 -9z m-1944 -10 c5 4 5 3 1 -2 -12 -15 -34 -15 -34 0 0 9 4
11 12 4 7 -5 16 -6 21 -2z m1001 -1 c0 -8 -6 -14 -14 -14 -9 0 -10 4 -2 14 6
7 12 13 14 13 1 0 2 -6 2 -13z m41 -12 c-3 -3 -9 2 -12 12 -6 14 -5 15 5 6 7
-7 10 -15 7 -18z m120 0 c-3 -3 -9 2 -12 12 -6 14 -5 15 5 6 7 -7 10 -15 7
-18z m738 10 c-1 -8 -5 -17 -8 -21 -5 -4 -4 16 1 34 3 9 9 -1 7 -13z m-2772
-5 c-8 -7 -64 -8 -68 -1 -3 4 13 6 34 6 21 0 36 -2 34 -5z m773 -8 c0 -10 -7
-19 -14 -19 -9 0 -10 4 -3 12 5 7 7 15 3 18 -3 4 -1 7 5 7 6 0 10 -8 9 -18z
m207 7 c3 -3 -5 -5 -19 -5 -13 0 -22 3 -19 7 4 8 30 6 38 -2z m116 5 c0 -8
-19 -13 -24 -6 -3 5 1 9 9 9 8 0 15 -2 15 -3z m154 -2 c3 -5 -1 -9 -9 -9 -8 0
-12 4 -9 9 3 4 7 8 9 8 2 0 6 -4 9 -8z m131 -1 c-9 -8 -36 -10 -30 -2 2 4 11
8 20 8 8 0 13 -3 10 -6z m180 0 c-9 -8 -36 -10 -30 -2 2 4 11 8 20 8 8 0 13
-3 10 -6z m395 5 c0 -2 -7 -7 -16 -10 -8 -3 -12 -2 -9 4 6 10 25 14 25 6z
m120 0 c0 -2 -7 -7 -16 -10 -8 -3 -12 -2 -9 4 6 10 25 14 25 6z m811 -19 c-10
-9 -11 -8 -5 6 3 10 9 15 12 12 3 -3 0 -11 -7 -18z m-3027 -5 c3 -5 -1 -9 -9
-9 -8 0 -15 4 -15 9 0 4 4 8 9 8 6 0 12 -4 15 -8z m1801 -2 c-3 -5 -12 -10
-18 -10 -7 0 -6 4 3 10 19 12 23 12 15 0z m792 -5 c0 -8 -4 -12 -9 -9 -5 3 -6
10 -3 15 9 13 12 11 12 -6z m407 7 c3 -5 -1 -9 -9 -9 -8 0 -15 4 -15 9 0 4 4
8 9 8 6 0 12 -4 15 -8z m-2584 -23 c0 -5 -4 -9 -8 -9 -5 0 -9 7 -9 15 0 8 4
12 9 9 4 -3 8 -9 8 -15z m197 6 c0 -8 -4 -15 -9 -15 -10 0 -11 14 -1 23 9 10
10 9 10 -8z m400 0 c0 -8 -4 -15 -9 -15 -10 0 -11 14 -1 23 9 10 10 9 10 -8z
m363 -6 c0 -5 -4 -9 -8 -9 -5 0 -9 7 -9 15 0 8 4 12 9 9 4 -3 8 -9 8 -15z
m240 0 c0 -5 -4 -9 -8 -9 -5 0 -9 7 -9 15 0 8 4 12 9 9 4 -3 8 -9 8 -15z m56
-4 c1 -8 -1 -17 -5 -19 -4 -3 -7 6 -7 19 0 25 8 25 12 0z m160 -1 c1 -9 0 -13
-4 -10 -3 4 -7 14 -8 22 -1 9 0 13 4 10 3 -4 7 -14 8 -22z m344 5 c0 -5 -4 -9
-8 -9 -5 0 -9 7 -9 15 0 8 4 12 9 9 4 -3 8 -9 8 -15z m775 12 c3 -5 2 -12 -3
-15 -5 -3 -9 1 -9 9 0 17 3 19 12 6z m-2818 -18 c0 -9 -4 -10 -13 -2 -7 6 -19
7 -25 3 -7 -4 -9 -3 -5 4 9 15 43 11 43 -5z m160 0 c0 -9 -4 -10 -14 -2 -7 6
-13 12 -13 14 0 1 6 2 13 2 8 0 14 -6 14 -14z m197 8 c-8 -8 -34 -10 -38 -2
-3 4 6 7 19 7 14 0 22 -2 19 -5z m76 3 c0 -8 -19 -13 -24 -6 -3 5 1 9 9 9 8 0
15 -2 15 -3z m234 -5 c3 -3 -5 -5 -19 -5 -13 0 -22 3 -19 7 4 8 30 6 38 -2z
m401 2 c-9 -8 -36 -10 -30 -2 2 4 11 8 20 8 8 0 13 -3 10 -6z m235 3 c0 -8
-19 -13 -24 -6 -3 5 1 9 9 9 8 0 15 -2 15 -3z m800 0 c0 -8 -19 -13 -24 -6 -3
5 1 9 9 9 8 0 15 -2 15 -3z m244 -5 c3 -3 -5 -5 -19 -5 -13 0 -22 3 -19 7 4 8
30 6 38 -2z m186 5 c0 -8 -19 -13 -24 -6 -3 5 1 9 9 9 8 0 15 -2 15 -3z m505
-4 c3 -5 1 -10 -4 -10 -6 0 -11 5 -11 10 0 6 2 10 4 10 3 0 8 -4 11 -10z
m-1375 -21 c0 -5 -4 -9 -8 -9 -5 0 -9 7 -9 15 0 8 4 12 9 9 4 -3 8 -9 8 -15z
m-169 -16 c-12 -20 -14 -14 -5 12 4 9 9 14 11 11 3 -2 0 -13 -6 -23z m693 15
c-3 -4 -9 -8 -15 -8 -5 0 -9 4 -9 8 0 5 7 9 15 9 8 0 12 -4 9 -9z m-1827 -11
c0 -8 -6 -14 -14 -14 -9 0 -10 4 -2 14 6 7 12 13 14 13 1 0 2 -6 2 -13z m320
0 c0 -8 -6 -14 -14 -14 -9 0 -10 4 -2 14 6 7 12 13 14 13 1 0 2 -6 2 -13z
m362 0 c8 -10 7 -14 -2 -14 -8 0 -14 6 -14 14 0 7 1 13 2 13 2 0 8 -6 14 -13z
m278 -2 c0 -8 -3 -13 -5 -10 -3 3 -12 -1 -21 -7 -10 -8 -9 -4 3 10 23 26 23
26 23 7z m539 -11 c1 -9 0 -13 -4 -10 -3 4 -7 14 -8 22 -1 9 0 13 4 10 3 -4 7
-14 8 -22z m261 11 c0 -8 -3 -13 -5 -10 -3 3 -12 -1 -21 -7 -10 -8 -9 -4 3 10
23 26 23 26 23 7z m399 -11 c1 -9 0 -13 -4 -10 -3 4 -7 14 -8 22 -1 9 0 13 4
10 3 -4 7 -14 8 -22z m200 11 c-1 -8 -5 -17 -8 -21 -5 -4 -4 16 1 34 3 9 9 -1
7 -13z m-1984 -6 c2 -2 1 -3 -1 -2 -2 2 -9 -2 -16 -7 -8 -7 -12 -5 -12 4 0 12
22 16 29 5z m833 2 c-9 -8 -36 -10 -30 -2 2 4 11 8 20 8 8 0 13 -3 10 -6z
m715 3 c0 -8 -19 -13 -24 -6 -3 5 1 9 9 9 8 0 15 -2 15 -3z m297 -1 c-4 -3 -2
-11 3 -18 7 -8 6 -12 -3 -12 -7 0 -14 9 -14 19 -1 10 3 18 9 18 6 0 8 -3 5 -7z
m340 -10 c0 -9 -4 -10 -14 -2 -7 6 -13 12 -13 14 0 1 6 2 13 2 8 0 14 -6 14
-14z m108 7 c3 -6 -1 -7 -9 -4 -18 7 -21 14 -7 14 6 0 13 -4 16 -10z m-2089
-15 c-1 -8 -5 -17 -8 -21 -5 -4 -4 16 1 34 3 9 9 -1 7 -13z m480 -10 c1 -8 -1
-17 -5 -19 -4 -3 -7 6 -7 19 0 25 8 25 12 0z m1559 16 c3 -5 2 -12 -3 -15 -5
-3 -9 1 -9 9 0 17 3 19 12 6z m-2515 -5 c0 -2 -7 -7 -16 -10 -8 -3 -12 -2 -9
4 6 10 25 14 25 6z m555 -5 c3 -5 2 -12 -3 -15 -5 -3 -9 1 -9 9 0 17 3 19 12
6z m201 -16 c1 -8 -1 -17 -5 -19 -4 -3 -7 6 -7 19 0 25 8 25 12 0z m50 13 c3
-4 -1 -5 -10 -4 -8 1 -18 5 -22 8 -3 4 1 5 10 4 8 -1 18 -5 22 -8z m71 -3 c0
-8 -4 -12 -9 -9 -5 3 -6 10 -3 15 9 13 12 11 12 -6z m343 11 c0 -3 -4 -8 -10
-11 -5 -3 -10 -1 -10 4 0 6 5 11 10 11 6 0 10 -2 10 -4z m336 -21 c1 -8 -1
-17 -5 -19 -4 -3 -7 6 -7 19 0 25 8 25 12 0z m50 13 c3 -4 -1 -5 -10 -4 -8 1
-18 5 -22 8 -3 4 1 5 10 4 8 -1 18 -5 22 -8z m594 4 c0 -5 -7 -9 -15 -9 -8 0
-12 4 -9 9 3 4 9 8 15 8 5 0 9 -4 9 -8z m431 -9 c13 -16 12 -17 -3 -4 -17 13
-22 21 -14 21 2 0 10 -8 17 -17z m-2919 -8 c2 3 5 -2 5 -10 0 -19 0 -19 -23 7
-12 14 -13 18 -3 10 9 -6 18 -10 21 -7z m704 3 c5 4 5 3 1 -2 -12 -15 -34 -15
-34 0 0 9 4 11 12 4 7 -5 16 -6 21 -2z m-412 -6 c3 -5 -1 -9 -9 -9 -8 0 -12 4
-9 9 3 4 7 8 9 8 2 0 6 -4 9 -8z m290 -1 c-8 -8 -34 -10 -38 -2 -3 4 6 7 19 7
14 0 22 -2 19 -5z m230 -2 c3 -3 -5 -5 -19 -5 -13 0 -22 3 -19 7 4 8 30 6 38
-2z m153 -4 c0 -8 -4 -12 -9 -9 -5 3 -6 10 -3 15 9 13 12 11 12 -6z m248 6
c-9 -8 -36 -10 -30 -2 2 4 11 8 20 8 8 0 13 -3 10 -6z m849 0 c-9 -9 -34 -9
-34 -1 0 5 9 8 20 7 10 -1 17 -3 14 -6z m276 3 c0 -8 -19 -13 -24 -6 -3 5 1 9
9 9 8 0 15 -2 15 -3z m227 -8 c-1 -6 10 -12 26 -14 15 -2 27 -5 27 -7 0 -10
-47 -152 -72 -217 l-29 -78 -23 25 c-13 14 -29 25 -35 25 -7 0 -9 5 -6 10 3 6
2 10 -4 10 -5 0 2 27 15 61 14 33 31 84 38 112 10 41 18 53 35 55 17 3 20 7
12 16 -8 9 -7 13 4 13 7 0 13 -5 12 -11z m43 10 c0 -2 -7 -7 -16 -10 -8 -3
-12 -2 -9 4 6 10 25 14 25 6z m80 0 c0 -2 -7 -7 -16 -10 -8 -3 -12 -2 -9 4 6
10 25 14 25 6z m56 -8 c3 -4 -1 -5 -10 -4 -8 1 -18 5 -22 8 -3 4 1 5 10 4 8
-1 18 -5 22 -8z m-2220 -13 c-4 -29 -25 -41 -42 -23 -11 11 -13 18 -5 23 7 4
10 1 9 -7 -2 -7 4 -13 12 -13 8 0 16 6 16 13 2 18 4 22 8 22 2 0 3 -7 2 -15z
m-784 -23 c14 -11 21 -12 32 -3 9 7 25 9 43 4 37 -10 40 -10 58 -12 8 0 15 -9
16 -18 0 -12 2 -13 6 -5 4 9 10 7 22 -7 10 -12 21 -18 25 -14 6 6 10 -13 6
-32 -1 -5 -2 -22 -2 -38 -1 -15 -5 -30 -9 -33 -5 -2 -5 -12 -2 -21 4 -9 2 -14
-3 -11 -5 4 -10 -13 -11 -35 -5 -81 -7 -88 -20 -83 -11 4 -11 1 -2 -15 9 -17
8 -24 -2 -31 -10 -7 -11 -11 -3 -14 7 -3 10 -14 7 -24 -3 -11 -8 -18 -12 -16
-3 2 -7 -12 -7 -32 -2 -44 -19 -157 -24 -157 -2 0 -7 -30 -13 -70 -3 -19 -10
-29 -18 -27 -11 3 -12 1 -1 -9 13 -14 17 -49 5 -49 -5 0 -9 -14 -9 -32 -2 -56
-30 -64 -144 -42 -14 3 -33 5 -42 5 -11 0 -15 7 -13 19 3 14 -1 17 -12 13 -10
-4 -14 -2 -10 4 3 5 0 10 -8 10 -13 0 -12 -4 2 -19 15 -17 15 -18 0 -18 -10 0
-17 6 -17 13 0 8 -4 7 -11 -3 -8 -11 -9 -8 -4 15 4 17 8 36 8 43 0 6 4 12 9
12 4 0 8 16 8 35 0 26 4 35 18 36 15 1 14 2 -2 6 -15 4 -16 7 -5 14 10 6 10 9
2 9 -9 0 -10 7 -3 25 5 14 9 29 9 33 -4 26 2 42 14 36 9 -6 9 -5 0 8 -7 8 -10
18 -6 22 4 3 8 19 9 35 2 31 14 123 19 156 2 11 4 30 4 43 1 16 5 21 14 16 9
-5 9 -4 0 6 -7 8 -8 22 -3 40 5 16 6 31 2 34 -11 12 14 6 28 -6 12 -11 12 -10
0 5 -18 24 -23 54 -9 62 7 5 6 11 -1 20 -8 9 -8 15 0 20 5 3 7 17 4 31 -3 13
-2 24 4 24 5 0 8 11 7 24 -3 27 15 26 47 -2z m712 16 c-3 -4 -9 -8 -15 -8 -5
0 -9 4 -9 8 0 5 7 9 15 9 8 0 12 -4 9 -9z m476 0 c0 -4 -4 -8 -9 -8 -6 0 -12
4 -15 8 -3 5 1 9 9 9 8 0 15 -4 15 -9z m164 0 c-3 -4 -9 -8 -15 -8 -5 0 -9 4
-9 8 0 5 7 9 15 9 8 0 12 -4 9 -9z m273 -8 c1 -11 -2 -20 -7 -20 -6 0 -7 17
-1 38 3 8 7 -1 8 -18z m87 8 c-3 -4 -9 -8 -15 -8 -5 0 -9 4 -9 8 0 5 7 9 15 9
8 0 12 -4 9 -9z m440 0 c-3 -4 -9 -8 -15 -8 -5 0 -9 4 -9 8 0 5 7 9 15 9 8 0
12 -4 9 -9z m535 3 c11 -7 9 -23 -14 -90 -22 -68 -29 -80 -43 -72 -9 4 -23 7
-30 5 -7 -1 -8 0 -4 2 5 3 20 41 33 84 24 79 31 88 58 71z m-2664 -11 c3 -5 2
-10 -4 -10 -5 0 -13 5 -16 10 -3 6 -2 10 4 10 5 0 13 -4 16 -10z m583 -15 c-3
-3 -9 2 -12 12 -6 14 -5 15 5 6 7 -7 10 -15 7 -18z m359 12 c0 -8 -6 -14 -14
-14 -9 0 -10 4 -2 14 6 7 12 13 14 13 1 0 2 -6 2 -13z m120 -2 c0 -8 -4 -15
-9 -15 -10 0 -11 14 -1 23 9 10 10 9 10 -8z m59 0 c-1 -8 -5 -17 -8 -21 -5 -4
-4 16 1 34 3 9 9 -1 7 -13z m424 -6 c0 -5 -4 -9 -8 -9 -5 0 -9 7 -9 15 0 8 4
12 9 9 4 -3 8 -9 8 -15z m757 8 c0 -8 -6 -14 -14 -14 -9 0 -10 4 -2 14 6 7 12
13 14 13 1 0 2 -6 2 -13z m-1267 -2 c0 -2 -6 -8 -13 -14 -10 -8 -14 -7 -14 2
0 8 6 14 14 14 7 0 13 -1 13 -2z m606 -10 c-3 -23 -12 -26 -13 -5 -1 11 2 20
7 20 4 0 7 -7 6 -15z m521 -3 c0 -10 -6 -19 -13 -19 -9 0 -9 5 -1 19 7 10 13
18 14 18 1 0 1 -8 0 -18z m38 0 c-3 -3 -11 0 -18 7 -9 10 -8 11 6 5 10 -3 15
-9 12 -12z m-515 4 c0 -2 -8 -10 -17 -17 -16 -13 -17 -12 -4 4 13 16 21 21 21
13z m435 -5 c3 -5 2 -12 -3 -15 -5 -3 -9 1 -9 9 0 17 3 19 12 6z m-1475 -5 c0
-2 -7 -7 -16 -10 -8 -3 -12 -2 -9 4 6 10 25 14 25 6z m564 -4 c3 -5 -1 -9 -9
-9 -8 0 -15 4 -15 9 0 4 4 8 9 8 6 0 12 -4 15 -8z m76 0 c0 -5 -7 -9 -15 -9
-8 0 -12 4 -9 9 3 4 9 8 15 8 5 0 9 -4 9 -8z m1157 -9 c0 -9 -4 -10 -14 -2 -7
6 -13 12 -13 14 0 1 6 2 13 2 8 0 14 -6 14 -14z m-884 -8 c-3 -9 -8 -14 -10
-11 -3 3 -2 9 2 15 9 16 15 13 8 -4z m763 -11 c1 -9 0 -13 -4 -10 -3 4 -7 14
-8 22 -1 9 0 13 4 10 3 -4 7 -14 8 -22z m80 11 c-1 -8 -5 -17 -8 -21 -5 -4 -4
16 1 34 3 9 9 -1 7 -13z m-1485 -18 c-10 -9 -11 -8 -5 6 3 10 9 15 12 12 3 -3
0 -11 -7 -18z m133 15 c3 -5 -1 -9 -9 -9 -8 0 -12 4 -9 9 3 4 7 8 9 8 2 0 6
-4 9 -8z m310 0 c3 -5 -1 -9 -9 -9 -8 0 -12 4 -9 9 3 4 7 8 9 8 2 0 6 -4 9 -8z
m97 -9 c12 -16 12 -17 -2 -6 -9 7 -20 9 -24 5 -5 -4 -5 -1 -1 6 9 16 11 15 27
-5z m73 9 c3 -5 -1 -9 -9 -9 -8 0 -12 4 -9 9 3 4 7 8 9 8 2 0 6 -4 9 -8z
m-640 -24 c-3 -4 -9 -8 -15 -8 -5 0 -9 4 -9 8 0 5 7 9 15 9 8 0 12 -4 9 -9z
m206 7 c0 -1 -10 -10 -22 -21 -14 -12 -18 -13 -10 -3 6 9 10 18 7 21 -3 2 2 5
10 5 8 0 15 -1 15 -2z m-678 -29 c-17 -19 -16 -19 8 -4 14 9 36 15 50 13 31
-4 80 -23 80 -30 0 -4 -6 -3 -12 1 -7 4 -6 -1 3 -12 17 -19 15 -43 -5 -56 -8
-6 -8 -8 1 -8 6 0 9 -9 6 -20 -3 -11 -9 -17 -14 -14 -5 3 -9 0 -9 -5 0 -6 4
-11 9 -11 13 0 -13 -100 -29 -110 -12 -8 -12 -10 4 -10 15 0 16 -3 6 -15 -7
-9 -15 -13 -18 -10 -3 3 -11 0 -18 -6 -19 -16 -36 -2 -24 20 5 10 7 28 5 40
-3 15 1 21 13 21 13 0 14 2 4 9 -18 11 -17 17 3 48 9 14 13 23 7 19 -6 -3 -9
2 -7 11 2 10 4 24 4 31 1 7 6 10 12 7 6 -4 8 -13 5 -21 -3 -8 0 -11 8 -8 7 3
13 11 13 19 0 8 -4 12 -8 10 -3 -3 -12 2 -19 10 -7 8 -9 15 -5 15 4 0 2 7 -5
15 -6 8 -8 20 -4 26 5 8 3 9 -5 5 -7 -5 -10 -14 -7 -21 3 -10 -6 -13 -36 -12
-40 2 -41 1 -53 -40 -7 -24 -11 -43 -8 -43 2 0 1 -5 -2 -10 -4 -7 -14 -6 -28
1 -22 10 -22 10 1 -10 24 -21 30 -37 10 -25 -10 5 -10 4 -1 -6 13 -15 6 -43
-9 -34 -7 5 -7 1 0 -12 6 -11 7 -27 1 -41 -5 -13 -6 -23 -3 -23 3 0 2 -6 -3
-12 -8 -14 -10 -22 -17 -78 -3 -19 -6 -37 -7 -40 -1 -3 -3 -9 -4 -15 -17 -105
-30 -153 -39 -148 -8 4 -8 3 0 -6 11 -12 7 -64 -5 -57 -4 3 -6 -8 -5 -22 1
-15 -3 -33 -9 -39 -6 -9 -6 -13 2 -13 7 0 9 -4 6 -10 -6 -10 7 -14 32 -11 6 1
14 -2 17 -7 9 -15 56 -1 58 17 1 9 2 23 4 31 1 8 2 25 3 38 1 12 6 22 12 22 5
0 7 -6 3 -12 -4 -7 -3 -9 1 -5 14 12 15 37 2 37 -7 0 -5 5 3 10 10 6 11 10 3
10 -9 0 -10 7 -4 23 4 12 6 28 3 36 -3 9 0 11 8 6 10 -6 12 -3 7 10 -5 11 -1
22 10 31 17 13 17 14 -2 7 -18 -6 -18 -5 -6 10 7 9 10 17 6 17 -4 0 -1 8 6 17
12 14 12 16 0 8 -9 -5 -12 -4 -8 2 6 9 16 55 22 98 1 11 3 24 4 28 0 4 10 3
21 -3 15 -8 20 -8 18 1 -2 6 5 13 15 14 14 3 17 -1 11 -13 -4 -9 -7 -27 -7
-39 -1 -13 -3 -23 -6 -23 -4 0 -7 -10 -8 -22 -5 -63 -9 -73 -26 -70 -9 2 -17
-2 -17 -8 0 -5 6 -9 12 -8 7 2 14 -8 16 -21 2 -13 0 -21 -5 -18 -4 3 -9 -11
-10 -31 -1 -21 -5 -50 -8 -67 -3 -16 -7 -35 -7 -42 -1 -7 -4 -11 -7 -9 -3 2
-7 -18 -8 -45 0 -27 -6 -55 -12 -63 -6 -7 -9 -21 -7 -32 4 -17 -1 -19 -29 -16
-21 3 -37 12 -44 25 -8 15 -10 16 -6 4 4 -16 1 -18 -28 -11 -17 4 -40 7 -49 6
-10 0 -18 5 -18 13 0 8 -4 17 -10 20 -6 4 -7 -1 -4 -12 4 -12 0 -10 -15 7 -21
25 -28 45 -12 36 4 -3 7 5 6 18 -2 12 1 43 6 67 13 59 21 101 22 117 0 11 11
16 30 13 4 0 7 4 7 10 0 6 -8 8 -19 4 -15 -5 -18 -1 -14 20 3 13 8 23 12 21 4
-3 5 11 3 30 -2 19 0 34 4 34 5 0 10 21 11 47 1 25 8 50 15 55 9 5 9 8 2 8
-15 0 2 81 19 92 9 6 9 8 -1 8 -7 0 -10 5 -6 12 4 6 9 25 11 42 3 31 10 66 13
76 3 7 6 32 8 58 1 13 6 21 10 18 4 -2 13 -2 19 2 6 4 27 7 46 7 34 0 35 -1
19 -19z m943 12 c5 4 5 1 1 -6 -6 -10 -11 -10 -22 -1 -8 6 -14 14 -14 16 0 3
6 0 13 -6 8 -6 18 -7 22 -3z m-238 -13 c0 -8 -4 -12 -9 -9 -5 3 -6 10 -3 15 9
13 12 11 12 -6z m1283 -13 c0 -5 -7 -9 -15 -9 -8 0 -12 4 -9 9 3 4 9 8 15 8 5
0 9 -4 9 -8z m134 -8 c3 -8 2 -12 -4 -9 -6 3 -10 10 -10 16 0 14 7 11 14 -7z
m-1075 -7 c8 -10 7 -14 -2 -14 -8 0 -14 6 -14 14 0 7 1 13 2 13 2 0 8 -6 14
-13z m79 -12 c-3 -3 -9 2 -12 12 -6 14 -5 15 5 6 7 -7 10 -15 7 -18z m-842 7
c-2 -4 11 -6 31 -4 20 3 33 0 30 -5 -3 -5 7 -8 21 -7 15 1 31 -1 36 -4 5 -3
24 -6 42 -7 41 -2 45 -6 48 -39 4 -30 -14 -39 -63 -30 -40 8 -57 24 -38 37 9
6 8 7 -2 5 -16 -4 -25 -38 -10 -38 5 0 9 -5 9 -11 0 -5 -3 -8 -8 -5 -4 2 -7
-11 -6 -30 1 -19 -3 -34 -8 -34 -6 0 -7 -7 -4 -16 3 -9 3 -21 -1 -27 -7 -12
-10 -31 -14 -89 -1 -16 -6 -28 -10 -28 -4 0 -6 -14 -4 -31 3 -24 0 -29 -11
-25 -11 4 -12 2 -5 -13 11 -19 5 -58 -13 -80 -8 -11 -8 -13 2 -7 6 4 12 2 12
-3 0 -6 -3 -11 -8 -11 -4 0 -7 -17 -8 -37 0 -20 -7 -39 -14 -41 -10 -4 -9 -6
1 -13 11 -7 12 -11 1 -17 -7 -5 -10 -16 -6 -25 3 -9 2 -17 -2 -17 -5 0 -9 -15
-8 -32 0 -44 -6 -59 -20 -51 -7 5 -7 2 1 -8 8 -9 9 -20 3 -29 -5 -8 -7 -23 -4
-34 4 -12 2 -16 -5 -12 -7 4 -9 1 -5 -8 4 -10 0 -14 -15 -13 -12 1 -21 4 -21
8 0 3 -11 4 -26 1 -23 -4 -25 -2 -18 24 4 16 11 40 16 54 5 14 9 26 9 28 -5
16 1 32 10 26 8 -4 8 -1 1 13 -8 14 -6 33 7 71 10 29 15 52 12 52 -3 0 1 5 9
10 13 8 13 10 0 10 -10 0 -11 3 -3 11 6 6 9 18 6 25 -3 8 -1 14 5 14 6 0 8 10
4 22 -3 11 -1 19 4 16 5 -3 10 19 10 49 1 31 6 58 10 62 8 6 14 34 15 74 0 9
4 18 10 18 5 1 14 2 21 3 6 0 13 8 15 16 3 9 1 11 -4 5 -16 -19 -29 -13 -31
13 -1 21 0 24 8 12 8 -11 9 -6 8 20 -3 32 -1 35 24 35 15 0 31 5 35 9 5 5 2 6
-6 1 -11 -6 -13 -4 -8 9 4 9 3 15 -2 11 -5 -3 -22 5 -38 18 -15 13 -38 29 -50
36 -25 13 -21 46 5 36 12 -4 12 -2 4 8 -7 8 -9 17 -5 20 9 10 25 9 19 -1z
m1601 -7 c0 -8 -4 -12 -9 -9 -4 3 -8 9 -8 15 0 5 4 9 8 9 5 0 9 -7 9 -15z
m177 -14 c3 -4 -4 -17 -17 -27 -22 -19 -22 -19 -4 2 9 11 14 24 10 27 -3 4 -4
7 0 7 3 0 8 -4 11 -9z m46 -3 c0 -4 -4 -8 -9 -8 -6 0 -12 4 -15 8 -3 5 1 9 9
9 8 0 15 -4 15 -9z m-1055 -17 c-9 -8 -36 -10 -30 -2 2 4 11 8 20 8 8 0 13 -3
10 -6z m1125 4 c0 -2 -6 -8 -13 -14 -10 -8 -14 -7 -14 2 0 8 6 14 14 14 7 0
13 -1 13 -2z m-235 -14 c3 -5 2 -12 -3 -15 -5 -3 -9 1 -9 9 0 17 3 19 12 6z
m-1296 -17 c2 -2 -2 -12 -10 -21 -12 -16 -12 -17 2 -6 9 7 19 10 23 6 4 -4 4
1 0 12 -4 12 -3 17 2 12 11 -11 14 -68 3 -61 -5 3 -4 -7 2 -23 12 -31 12 -33
-3 -50 -6 -7 -7 -13 -2 -13 5 0 8 -34 6 -75 -2 -41 -7 -73 -11 -71 -4 3 -8 -1
-8 -9 0 -8 4 -12 9 -9 4 3 8 -6 8 -20 0 -14 -6 -26 -12 -26 -10 0 -10 -2 -2
-8 15 -9 14 -83 -1 -74 -5 3 -4 -1 2 -10 7 -8 11 -29 9 -46 -2 -21 1 -32 9
-32 8 0 15 -3 18 -7 2 -5 3 -3 1 3 -4 19 22 85 31 77 4 -5 5 -2 0 6 -5 9 -2
19 10 28 11 7 14 13 8 13 -14 0 -4 50 12 56 7 3 11 16 9 30 -2 19 1 24 12 20
8 -3 14 -1 14 4 0 6 -6 10 -12 10 -8 0 -9 3 -3 8 6 4 12 16 13 27 2 11 7 22
11 25 4 3 8 16 9 30 0 14 6 26 12 28 5 2 8 7 5 12 -7 12 16 61 26 55 4 -3 11
-1 14 5 4 6 1 9 -7 8 -16 -4 -11 33 5 44 28 18 42 3 42 -45 1 -27 -3 -50 -7
-53 -4 -3 -4 -12 -1 -21 5 -12 3 -14 -8 -8 -10 6 -11 5 -3 -4 13 -15 6 -61
-10 -61 -6 0 -5 -4 3 -9 10 -7 12 -14 5 -23 -6 -7 -9 -28 -9 -45 1 -33 -8 -43
-20 -23 -8 13 -25 3 -25 -13 0 -7 4 -6 10 3 9 14 14 7 11 -13 -1 -5 3 -6 9 -2
5 3 10 -1 10 -9 0 -9 -6 -16 -12 -16 -9 0 -8 -4 2 -11 12 -9 11 -10 -7 -6 -15
3 -20 1 -16 -9 3 -8 9 -12 13 -9 4 3 7 -11 7 -30 -1 -19 -4 -35 -8 -35 -3 0
-6 -8 -6 -17 1 -10 -2 -47 -6 -82 -7 -53 -11 -62 -26 -58 -10 2 -18 -1 -18 -8
0 -7 7 -12 16 -11 9 1 15 -5 13 -12 -3 -17 -10 -74 -11 -90 -1 -8 -6 -10 -13
-6 -8 5 -8 1 1 -10 9 -10 11 -20 5 -24 -5 -4 -10 -20 -11 -36 -3 -36 -5 -38
-38 -30 -19 5 -23 10 -16 17 6 6 11 16 11 22 0 5 -5 3 -11 -5 -8 -12 -9 -11
-6 5 3 11 11 52 17 90 7 39 17 76 23 83 6 8 5 12 -4 12 -9 0 -10 3 -4 8 6 4
12 21 13 37 1 17 3 36 4 43 1 7 8 10 16 7 11 -4 12 -2 4 7 -10 13 -12 68 -2
68 3 0 6 10 7 23 0 12 4 42 8 67 4 25 8 51 8 58 0 6 3 12 7 12 4 0 6 10 5 23
-1 12 1 27 6 32 4 6 5 16 0 23 -9 14 -36 -15 -36 -38 1 -8 -5 -25 -13 -37 -8
-13 -11 -23 -7 -23 4 0 3 -6 -2 -12 -6 -7 -18 -37 -28 -65 -11 -29 -23 -53
-29 -53 -5 0 -7 -3 -4 -6 8 -7 -50 -168 -62 -172 -6 -2 -8 -7 -6 -11 3 -4 -1
-8 -8 -8 -7 0 -12 15 -13 41 -1 37 0 39 13 21 8 -10 14 -14 14 -9 0 6 -5 15
-12 22 -15 15 -19 42 -6 42 6 0 4 7 -3 17 -10 11 -10 14 -1 9 6 -4 12 -2 12 3
0 6 -6 11 -12 11 -9 0 -8 4 2 10 8 5 10 10 4 10 -6 0 -10 10 -8 23 1 12 3 28
3 35 1 7 7 10 14 7 6 -4 5 -1 -3 7 -9 7 -14 28 -13 48 6 150 6 197 -2 209 -5
9 -4 12 2 8 5 -3 10 0 10 8 0 8 -5 11 -10 8 -6 -4 -8 0 -5 9 4 8 1 15 -5 15
-8 0 -11 -16 -11 -42 1 -22 -4 -57 -11 -78 -9 -27 -9 -37 -1 -37 7 0 7 -3 1
-8 -6 -4 -12 -20 -13 -37 -2 -16 -8 -31 -13 -33 -5 -2 -9 -8 -9 -13 0 -6 5 -7
11 -3 8 5 8 1 0 -13 -6 -11 -7 -24 -3 -28 4 -5 0 -6 -8 -3 -11 4 -16 0 -16
-13 0 -13 3 -15 13 -7 9 7 13 7 13 0 0 -6 -5 -14 -10 -17 -6 -4 -8 -15 -5 -25
3 -10 2 -21 -4 -24 -5 -3 -8 -17 -6 -31 1 -14 -1 -25 -5 -25 -4 0 -7 -10 -6
-22 1 -14 -4 -22 -12 -20 -9 2 -11 -2 -6 -10 15 -23 14 -43 -3 -55 -10 -8 -12
-13 -5 -13 14 0 12 -21 -3 -32 -6 -5 -6 -8 2 -8 8 0 7 -12 -3 -45 -13 -46 -14
-49 -14 -64 0 -4 -12 -6 -26 -3 -14 2 -22 7 -17 11 4 3 8 20 8 36 0 17 4 46 8
65 5 19 8 45 8 58 0 12 3 22 8 22 5 0 7 8 4 18 -3 12 4 23 19 30 13 7 15 10 6
8 -14 -4 -18 1 -18 20 0 14 4 22 10 19 5 -3 7 0 4 9 -3 8 -1 39 5 68 13 65 20
102 27 148 10 70 17 95 28 109 9 12 8 13 -3 6 -10 -5 -12 -4 -7 3 8 14 15 42
22 92 3 19 7 44 9 55 2 11 4 28 4 38 1 14 6 17 24 11 12 -3 24 -8 26 -10z
m1341 8 c0 -5 -7 -9 -15 -9 -8 0 -12 4 -9 9 3 4 9 8 15 8 5 0 9 -4 9 -8z m233
-17 c-3 -9 -8 -14 -10 -11 -3 3 -2 9 2 15 9 16 15 13 8 -4z m-147 -7 c3 -4 -1
-5 -10 -4 -8 1 -18 5 -22 8 -3 4 1 5 10 4 8 -1 18 -5 22 -8z m30 -13 c1 -8 -1
-17 -5 -19 -4 -3 -7 6 -7 19 0 25 8 25 12 0z m90 13 c3 -4 -1 -5 -10 -4 -8 1
-18 5 -22 8 -3 4 1 5 10 4 8 -1 18 -5 22 -8z m-1862 -49 c-6 -11 -24 -2 -24
11 0 5 7 7 15 4 8 -4 12 -10 9 -15z m1846 15 c0 -8 -19 -13 -24 -6 -3 5 1 9 9
9 8 0 15 -2 15 -3z m-1054 -38 c3 -8 15 -16 27 -20 21 -5 21 -5 3 9 -21 16
-15 18 21 9 13 -4 20 -11 16 -18 -3 -6 0 -6 8 2 18 16 29 15 29 -3 0 -8 5 -15
11 -15 5 0 7 5 4 10 -3 6 0 10 8 10 21 0 14 -57 -9 -75 -15 -12 -16 -14 -2 -9
14 5 16 0 12 -28 -3 -18 -6 -42 -7 -53 -1 -11 -6 -23 -12 -27 -6 -5 -5 -8 3
-8 20 0 14 -20 -10 -30 -17 -6 -18 -9 -6 -9 12 -1 15 -8 12 -25 -2 -13 -6 -45
-8 -72 -2 -27 -8 -49 -14 -49 -6 0 -14 -4 -19 -8 -4 -5 -3 -8 2 -7 22 5 27 -1
14 -17 -8 -9 -9 -14 -2 -10 7 5 10 1 8 -10 -2 -10 -4 -28 -4 -41 -1 -16 -5
-21 -13 -16 -10 5 -10 4 -2 -5 12 -13 6 -74 -6 -66 -5 3 -12 1 -15 -5 -4 -6
-1 -9 7 -8 17 4 15 -65 -2 -70 -9 -3 -9 -7 1 -13 12 -8 12 -10 0 -18 -9 -6
-10 -11 -2 -15 7 -4 8 -14 3 -24 -5 -9 -7 -27 -6 -40 1 -18 -3 -22 -15 -17
-13 5 -14 4 -3 -6 6 -7 12 -19 12 -27 0 -8 -5 -10 -12 -6 -10 6 -10 4 0 -8 11
-14 10 -16 -5 -14 -14 2 -19 13 -21 45 -2 29 0 41 7 36 6 -3 11 -1 11 4 0 6
-4 11 -9 11 -12 0 -8 133 4 143 7 6 6 10 -1 13 -8 3 -9 16 -4 40 4 19 4 37 -1
40 -5 3 -9 0 -9 -7 0 -9 -3 -9 -14 0 -11 9 -15 9 -18 0 -2 -6 -17 -13 -33 -15
-16 -1 -31 -8 -33 -13 -2 -6 -7 -9 -11 -7 -4 3 -13 0 -21 -6 -12 -8 -12 -9 3
-4 11 3 17 0 17 -9 0 -8 -4 -15 -8 -15 -5 0 -8 -10 -8 -22 1 -17 -4 -23 -21
-22 -12 0 -20 -3 -17 -8 3 -4 12 -8 20 -8 8 0 14 -5 14 -11 0 -6 -10 -8 -22
-5 -13 3 -17 3 -10 0 6 -3 9 -11 6 -16 -4 -6 -2 -8 4 -4 11 7 1 -43 -20 -96
-10 -27 -38 -39 -38 -18 0 5 -4 9 -9 7 -12 -3 -13 5 -5 53 4 22 11 40 16 40 6
0 8 -7 4 -15 -7 -20 -3 -19 18 4 16 18 16 19 -1 17 -20 -1 -28 40 -10 51 6 3
7 1 3 -5 -3 -6 -2 -13 3 -16 10 -7 9 13 -2 31 -4 6 -2 15 4 18 5 4 8 13 5 20
-2 7 -2 16 1 19 6 5 12 39 15 74 1 7 9 10 22 7 18 -5 18 -4 4 5 -9 5 -15 16
-14 23 6 28 18 73 23 87 4 8 7 22 8 30 4 40 18 89 24 86 3 -2 7 8 8 22 3 57 8
72 23 73 8 0 10 3 4 5 -21 9 -4 43 18 39 12 -3 17 -1 14 3 -4 4 -13 7 -19 7
-7 1 -10 7 -8 15 4 18 11 60 13 78 1 6 5 12 10 12 4 0 7 3 7 8 -4 25 18 32 27
8z m962 -11 c-3 -3 -9 2 -12 12 -6 14 -5 15 5 6 7 -7 10 -15 7 -18z m177 -16
c-3 -12 -7 -24 -10 -27 -3 -3 -3 5 -1 19 6 30 5 29 10 29 3 0 3 -10 1 -21z
m-134 -14 c17 6 16 2 -6 -21 -14 -15 -25 -30 -25 -35 0 -4 -9 -11 -20 -14 -11
-3 -20 -14 -20 -23 0 -12 -3 -13 -12 -4 -9 9 -6 23 12 61 13 28 27 48 32 45 4
-3 9 1 9 8 1 7 3 5 6 -5 3 -12 10 -16 24 -12z m54 -5 c1 -10 -2 -17 -6 -14 -4
2 -7 13 -6 24 2 23 10 17 12 -10z m45 18 c0 -4 -4 -8 -9 -8 -6 0 -12 4 -15 8
-3 5 1 9 9 9 8 0 15 -4 15 -9z m131 -31 c-10 -9 -11 -8 -5 6 3 10 9 15 12 12
3 -3 0 -11 -7 -18z m-925 5 c5 -4 10 -18 10 -32 0 -14 -5 -28 -10 -32 -7 -5
-6 -11 4 -18 9 -6 10 -10 3 -10 -6 0 -10 -9 -8 -20 2 -11 -2 -20 -8 -20 -8 0
-7 -3 2 -9 7 -5 10 -14 7 -20 -4 -6 -11 -9 -15 -7 -4 3 -8 -1 -8 -8 0 -8 6
-12 14 -9 9 4 11 0 7 -11 -3 -9 -11 -13 -17 -9 -6 4 -7 1 -1 -8 12 -20 12 -51
0 -68 -8 -11 -8 -13 1 -7 9 5 11 2 7 -9 -5 -13 -9 -13 -23 -3 -13 10 -13 9 1
-8 13 -15 16 -31 12 -60 -3 -21 -5 -54 -6 -71 0 -22 -4 -31 -11 -26 -9 5 -9 3
-1 -8 6 -8 10 -23 8 -34 -2 -11 -5 -37 -6 -57 -1 -20 -5 -35 -8 -33 -3 1 -6
-37 -7 -85 0 -48 -7 -98 -13 -110 -8 -15 -8 -20 -1 -16 6 4 11 3 11 -2 0 -5 7
-9 15 -9 8 0 15 4 15 9 0 4 -5 8 -11 8 -8 0 -9 4 0 13 6 8 7 18 3 22 -4 5 2 5
12 1 16 -5 17 -4 6 9 -12 14 -7 19 13 16 5 -1 5 4 1 11 -14 22 -13 40 2 34 8
-3 14 -1 14 3 0 5 -5 11 -12 13 -7 3 -8 9 -2 19 9 15 11 20 13 45 1 11 7 15
21 11 11 -3 18 -1 14 4 -3 5 -13 9 -22 9 -15 0 -15 2 -2 10 8 5 12 10 8 10 -4
0 0 24 9 53 8 28 16 57 17 62 6 30 18 55 25 50 5 -2 6 6 4 18 -2 12 1 36 8 52
7 17 11 36 10 43 -1 8 6 21 16 29 10 8 13 12 6 9 -9 -5 -9 4 1 36 8 26 18 42
26 40 11 -3 11 0 1 12 -9 11 -10 20 -1 35 6 12 8 21 5 21 -4 0 -3 6 2 13 4 6
8 17 9 22 0 6 2 15 2 21 2 9 20 11 65 5 4 -1 3 -10 -3 -21 -6 -11 -8 -20 -4
-20 3 0 1 -6 -5 -13 -6 -8 -8 -17 -4 -20 3 -4 1 -7 -5 -7 -6 0 -9 -7 -6 -15 4
-8 1 -15 -6 -15 -6 0 -8 -5 -5 -10 3 -6 -1 -13 -10 -16 -10 -4 -13 -9 -6 -13
7 -4 3 -28 -11 -68 -12 -34 -26 -59 -31 -56 -6 3 -7 1 -3 -5 7 -12 -14 -103
-23 -97 -3 1 -7 -12 -8 -30 -2 -40 -20 -78 -34 -69 -5 3 -7 14 -4 25 10 31 -2
22 -13 -10 -7 -21 -7 -28 1 -27 13 1 17 -6 17 -30 0 -8 -3 -13 -7 -11 -5 3 -9
-8 -9 -25 -1 -17 -5 -33 -10 -37 -5 -3 -10 -10 -11 -16 0 -5 -3 -21 -5 -35 -1
-14 -13 -44 -25 -68 -12 -23 -17 -40 -12 -37 5 4 4 -4 -2 -17 -11 -25 -62 -37
-74 -18 -4 6 -15 8 -26 5 -15 -5 -19 -1 -19 15 0 12 5 18 10 15 6 -3 10 -1 10
4 0 6 -4 11 -9 11 -5 0 -7 26 -4 58 3 31 6 67 6 80 1 12 3 22 7 22 3 0 5 25 4
55 0 30 2 55 5 55 4 0 7 21 7 48 2 93 4 99 27 111 l22 11 -23 -6 c-26 -6 -27
12 -2 34 8 8 10 11 3 7 -9 -4 -12 9 -10 50 2 50 7 60 30 56 5 -1 6 3 2 9 -3 6
-10 8 -15 5 -4 -3 -7 15 -7 40 1 25 5 45 8 45 3 0 5 17 4 37 -4 66 15 90 51
65z m790 -31 c8 7 14 6 20 -2 5 -8 3 -9 -6 -4 -8 5 -11 3 -8 -6 3 -8 14 -14
25 -13 14 0 20 -5 18 -15 -2 -9 -4 -18 -4 -20 -1 -2 -9 3 -18 12 -10 8 -30 18
-45 22 -18 5 -25 12 -21 22 4 10 9 11 16 4 7 -7 14 -7 23 0z m218 -23 c-3 -4
-11 -5 -19 -1 -21 7 -19 12 4 10 11 0 18 -5 15 -9z m-614 -20 c0 -5 5 -6 12
-2 7 5 9 2 5 -8 -6 -17 16 -19 30 -3 4 4 2 5 -4 1 -7 -4 -13 -2 -13 4 0 13 33
8 83 -12 19 -7 27 -18 27 -35 0 -14 -4 -21 -10 -18 -5 3 -10 1 -10 -4 0 -6 4
-11 8 -11 11 0 13 -38 2 -45 -5 -3 -7 -12 -3 -20 3 -8 2 -23 -2 -32 -5 -10 -7
-28 -6 -40 1 -13 -3 -23 -9 -23 -6 0 -8 -5 -4 -12 5 -8 2 -9 -10 -5 -10 4 -15
3 -11 -3 3 -6 14 -10 23 -10 10 0 13 -3 7 -8 -6 -4 -11 -20 -13 -37 -1 -16 -3
-41 -5 -55 -4 -45 -48 -69 -85 -46 -5 3 -9 -1 -9 -8 0 -8 5 -12 12 -10 6 3 11
-4 12 -15 1 -15 -3 -19 -19 -16 -11 3 -17 1 -14 -3 4 -4 13 -7 19 -7 7 0 12
-13 12 -28 -1 -15 3 -27 8 -27 4 0 5 -5 2 -10 -4 -6 -12 -7 -19 -3 -7 4 -3 0
7 -9 13 -13 15 -18 6 -18 -9 0 -10 -3 -4 -8 16 -11 19 -62 3 -62 -10 0 -9 -3
2 -10 9 -5 16 -26 17 -52 0 -24 3 -59 6 -77 7 -49 0 -60 -36 -59 -43 1 -50 7
-35 26 7 9 9 13 3 10 -6 -4 -10 15 -10 48 0 42 3 54 15 54 12 1 12 2 -2 10
-14 9 -16 21 -12 73 6 64 7 94 5 138 -1 23 -5 26 -38 25 -31 -1 -39 -5 -41
-24 -2 -12 -7 -20 -11 -18 -3 3 -7 -8 -6 -22 0 -16 -5 -26 -12 -24 -15 2 -18
-15 -3 -20 6 -2 6 -17 -2 -43 -6 -22 -13 -43 -14 -47 -1 -5 -2 -10 -3 -13 0
-3 -1 -8 0 -11 0 -4 -5 -11 -13 -15 -9 -6 -10 -9 -1 -9 7 0 10 -7 6 -16 -3 -8
-12 -13 -21 -9 -11 4 -12 2 -5 -7 5 -7 8 -19 7 -25 -1 -7 -2 -22 -3 -32 -1
-14 -6 -18 -21 -14 -25 7 -25 12 -2 29 16 13 16 14 0 8 -14 -5 -16 -1 -12 18
3 12 7 34 9 48 3 14 7 34 9 45 3 11 5 25 5 30 1 6 11 16 22 24 20 12 21 11 15
-6 -6 -14 -4 -15 5 -6 17 17 1 37 -17 22 -8 -6 -17 -9 -21 -5 -4 3 2 13 13 22
10 8 13 13 7 9 -9 -4 -13 1 -13 14 0 13 7 21 18 22 9 0 12 3 5 5 -12 6 -8 85
7 114 4 8 6 23 5 33 -3 14 1 16 18 11 22 -6 22 -6 2 9 -17 14 -18 19 -7 37 7
11 10 25 7 29 -7 13 15 124 28 140 9 12 9 13 0 7 -9 -5 -11 -2 -7 8 3 9 11 13
18 9 8 -5 8 -3 0 8 -10 12 -10 31 1 79 2 8 4 21 4 28 1 8 6 10 14 6 9 -6 9 -5
0 7 -11 13 -7 15 27 16 22 0 40 -4 40 -9z m594 4 c3 -5 -1 -9 -9 -9 -8 0 -12
4 -9 9 3 4 7 8 9 8 2 0 6 -4 9 -8z m-259 -62 c4 -6 11 -8 16 -5 5 4 9 -1 9 -9
0 -9 -8 -16 -17 -17 -15 0 -15 -2 2 -9 11 -5 14 -9 6 -9 -11 -1 -11 -4 0 -18
12 -15 12 -16 -5 -10 -14 6 -16 4 -9 -5 6 -7 9 -26 6 -43 -7 -49 -11 -70 -13
-70 -1 0 -4 -27 -6 -60 -3 -36 -12 -67 -22 -79 -11 -12 -12 -16 -3 -11 11 6
13 3 8 -16 -4 -13 -7 -32 -7 -42 0 -12 -4 -16 -12 -11 -8 5 -7 0 2 -11 14 -17
13 -17 -10 -11 -25 6 -25 6 -2 -5 27 -14 28 -25 5 -38 -11 -6 -13 -11 -5 -11
16 0 8 -50 -10 -62 -9 -5 -9 -8 -1 -8 7 0 10 -10 6 -27 -6 -33 -11 -69 -12
-101 -1 -13 -5 -21 -10 -17 -6 3 -7 -9 -4 -31 5 -30 3 -36 -8 -29 -12 8 -12 6
0 -8 12 -15 11 -17 -5 -17 -16 0 -17 -2 -4 -11 11 -8 7 -9 -19 -5 -18 3 -39 6
-46 6 -8 0 -10 9 -7 25 2 14 7 23 11 21 3 -2 6 12 7 32 0 21 3 55 7 77 4 22 9
49 11 60 2 11 4 26 5 33 0 7 5 11 10 7 5 -3 13 -1 16 5 4 6 2 9 -3 8 -14 -4
-15 8 -7 70 5 39 11 52 23 52 12 0 13 3 5 8 -8 5 -11 21 -7 42 10 66 11 75 14
80 1 3 1 15 0 28 -1 15 4 22 17 22 12 0 14 3 6 8 -8 5 -10 19 -7 37 4 17 7 36
7 43 0 6 3 12 6 12 3 0 7 16 8 35 5 82 7 85 28 86 20 0 20 0 0 9 -16 7 -17 9
-3 9 9 1 20 -4 23 -9z m253 -43 c7 3 23 -3 34 -13 12 -11 18 -13 14 -6 -4 6
-2 12 3 12 6 0 11 -8 12 -17 0 -10 3 -13 5 -7 3 7 14 10 24 7 11 -3 17 -9 14
-14 -3 -5 1 -6 9 -3 8 3 17 -2 20 -10 7 -19 -2 -48 -12 -41 -4 2 -8 -2 -8 -10
0 -8 5 -11 10 -8 6 4 8 -1 4 -11 -4 -10 -7 -22 -7 -27 0 -6 -5 -7 -12 -3 -7 5
-8 3 -2 -7 15 -24 14 -41 -3 -35 -12 5 -13 3 -5 -7 16 -19 0 -126 -21 -139 -8
-5 -8 -8 -1 -8 6 0 9 -13 6 -30 -3 -19 -8 -27 -16 -23 -6 4 -5 -1 3 -10 7 -9
9 -17 3 -17 -5 0 -13 -7 -16 -16 -4 -10 -2 -13 6 -8 8 5 9 2 4 -12 -5 -10 -10
-29 -12 -41 -2 -13 -6 -35 -9 -50 -3 -16 -6 -41 -5 -56 0 -16 -3 -26 -7 -24
-5 3 -9 -7 -9 -21 -1 -15 -2 -44 -3 -64 0 -21 -5 -38 -11 -38 -5 0 -7 8 -3 18
3 9 3 14 -1 11 -11 -10 -16 -50 -5 -44 14 9 11 -8 -8 -46 -9 -18 -18 -28 -21
-21 -2 7 -8 12 -13 12 -6 0 -7 -4 -4 -10 3 -5 -1 -10 -10 -10 -9 0 -14 4 -10
9 3 6 -7 9 -22 8 -18 -1 -27 3 -26 11 2 6 -2 12 -8 12 -6 0 -8 -7 -5 -16 5
-12 2 -15 -9 -10 -10 3 -13 2 -10 -5 4 -6 13 -8 21 -5 8 3 14 1 14 -4 0 -6 9
-19 20 -30 11 -11 20 -27 20 -35 0 -8 5 -15 11 -15 5 0 7 -5 4 -10 -3 -6 -2
-10 3 -10 5 0 17 -11 25 -24 15 -22 15 -24 -1 -21 -9 1 -24 -1 -33 -6 -18 -9
-45 12 -32 24 3 4 2 7 -4 7 -8 0 -41 68 -49 100 -8 34 -40 57 -71 52 -6 -2
-14 2 -18 8 -3 5 -2 10 3 10 5 0 8 10 7 22 -1 19 7 73 20 128 2 8 4 25 4 38 1
16 5 21 14 16 8 -5 8 -2 -2 9 -7 9 -12 17 -10 18 2 0 12 2 22 4 27 5 29 10 12
25 -13 11 -14 10 -9 -6 5 -14 4 -16 -4 -9 -8 8 -8 26 2 68 7 31 11 57 8 57 -3
0 3 10 14 22 10 12 13 18 6 14 -10 -6 -11 0 -6 26 4 18 8 42 9 53 2 11 4 20 5
20 1 0 3 16 6 35 2 19 7 42 11 50 3 8 5 23 4 34 -2 10 1 16 6 13 5 -3 7 7 5
23 -2 17 -1 38 3 47 5 10 7 28 6 41 -1 12 2 22 8 22 6 0 8 6 5 14 -6 16 31 26
56 15 8 -3 21 -4 28 -2z m-538 -347 c0 -5 -5 -10 -11 -10 -5 0 -7 5 -4 10 3 6
8 10 11 10 2 0 4 -4 4 -10z m-1875 -229 c3 -5 2 -12 -3 -15 -5 -3 -9 1 -9 9 0
17 3 19 12 6z m-50 -81 c-3 -5 -12 -10 -18 -10 -7 0 -6 4 3 10 19 12 23 12 15
0z m-42 -57 c3 -5 -6 -9 -20 -10 -19 -1 -22 1 -12 8 17 11 26 11 32 2z m1151
-11 c15 -18 14 -19 -23 -31 -30 -9 -45 -9 -65 0 -20 9 -29 9 -41 -1 -13 -11
-15 -10 -10 2 5 13 79 44 111 47 6 1 18 -7 28 -17z m-1199 -32 c2 -12 1 -20
-2 -16 -4 4 -8 16 -10 28 -4 28 6 18 12 -12z m931 18 c3 -4 -1 -5 -10 -4 -8 1
-18 5 -22 8 -3 4 1 5 10 4 8 -1 18 -5 22 -8z m29 2 c3 -5 1 -10 -4 -10 -6 0
-11 5 -11 10 0 6 2 10 4 10 3 0 8 -4 11 -10z m-878 -15 c0 -8 -4 -12 -9 -9 -5
3 -6 10 -3 15 9 13 12 11 12 -6z m800 0 c0 -8 -4 -12 -9 -9 -5 3 -6 10 -3 15
9 13 12 11 12 -6z m-743 -31 c37 -2 78 1 92 6 17 7 24 6 25 -3 0 -9 2 -9 6 1
4 9 10 7 23 -8 10 -11 20 -16 22 -10 2 7 23 8 68 1 119 -17 343 -10 500 14 25
4 50 7 55 7 6 -1 37 -5 70 -10 l60 -8 -120 -22 c-288 -55 -527 -49 -822 18
-74 17 -90 24 -80 34 9 11 14 11 23 -2 7 -10 33 -16 78 -18z m946 6 c0 -5 -5
-10 -11 -10 -5 0 -7 5 -4 10 3 6 8 10 11 10 2 0 4 -4 4 -10z"/>
<path d="M1615 1930 c-4 -6 -11 -7 -17 -4 -6 4 -6 -2 1 -15 14 -25 23 -28 14
-4 -4 10 -2 14 4 10 5 -3 10 0 10 8 0 18 -3 19 -12 5z"/>
<path d="M1664 1922 c23 -26 23 -26 23 -7 0 8 -3 13 -5 10 -3 -3 -12 1 -21 7
-10 8 -9 4 3 -10z"/>
<path d="M1724 1919 c-4 -7 -3 -9 4 -5 5 3 13 0 15 -6 4 -9 6 -10 6 -1 1 17
-16 25 -25 12z"/>
<path d="M1655 1899 c6 -9 3 -10 -10 -5 -15 5 -16 4 -5 -9 12 -14 7 -20 -14
-16 -5 1 -5 -4 0 -11 6 -7 9 -19 8 -25 -1 -7 -2 -22 -3 -34 0 -11 -5 -17 -11
-14 -5 3 -10 2 -10 -4 0 -5 5 -11 12 -13 6 -2 8 -10 4 -17 -5 -7 -15 -10 -25
-7 -15 6 -15 5 0 -6 16 -13 16 -18 5 -73 -4 -16 -9 -48 -11 -69 -7 -61 -14
-73 -37 -72 -12 0 -23 -6 -25 -14 -3 -9 -1 -11 4 -5 14 18 36 11 39 -12 2 -12
-1 -25 -6 -28 -5 -3 -7 -12 -3 -20 3 -8 1 -15 -5 -15 -5 0 -7 -11 -4 -25 2
-14 0 -31 -6 -38 -5 -6 -8 -20 -7 -29 2 -10 -2 -18 -8 -18 -7 0 -5 -5 3 -10
11 -7 11 -10 2 -10 -8 0 -10 -5 -6 -12 5 -8 1 -9 -12 -5 -18 7 -18 6 -2 -6 15
-12 16 -16 3 -33 -8 -10 -14 -23 -15 -29 0 -5 5 -3 10 5 9 13 10 13 10 0 0
-12 11 -15 43 -14 23 0 49 -4 57 -10 12 -8 13 -8 3 4 -15 16 -17 34 -4 26 4
-3 7 5 6 17 -3 37 14 89 28 80 8 -5 8 -2 -1 9 -7 9 -9 19 -5 21 5 3 10 20 11
38 2 18 6 36 10 39 4 3 7 19 7 35 0 26 4 30 26 29 18 0 25 4 22 13 -4 9 -9 10
-18 3 -27 -22 -27 28 0 83 7 15 9 25 4 22 -5 -4 -5 3 0 18 6 14 7 28 3 33 -4
4 2 4 12 0 14 -5 16 -3 9 6 -6 7 -9 20 -7 28 2 8 6 31 10 50 3 19 8 42 9 50 2
8 4 19 4 23 1 5 5 6 10 2 6 -3 6 6 1 24 -4 16 -6 32 -3 34 3 3 -3 4 -14 2 -10
-1 -27 5 -37 14 -11 9 -16 10 -12 4 9 -16 -8 -17 -36 -2 -16 9 -19 8 -13 -2z"/>
<path d="M1574 1878 c-5 -7 -2 -8 6 -3 10 6 12 4 6 -10 -5 -15 -4 -16 9 -5 19
15 19 16 0 23 -8 4 -17 1 -21 -5z"/>
<path d="M1804 1879 c-3 -6 -2 -15 3 -20 5 -5 9 -1 9 11 0 23 -2 24 -12 9z"/>
<path d="M1565 1739 c-4 -6 -5 -12 -2 -15 2 -3 7 2 10 11 7 17 1 20 -8 4z"/>
<path d="M1773 1718 c0 -13 1 -17 4 -10 3 6 10 9 16 5 7 -4 6 1 -2 10 -17 21
-17 21 -18 -5z"/>
<path d="M1559 1703 c0 -5 -2 -16 -4 -25 -2 -9 3 -19 11 -22 11 -4 12 -1 6 12
-5 9 -7 23 -5 30 3 6 2 12 -1 12 -3 0 -6 -3 -7 -7z"/>
<path d="M1753 1638 c3 -9 1 -19 -6 -22 -9 -3 -9 -5 0 -5 18 -1 23 13 11 29
-8 12 -9 12 -5 -2z"/>
<path d="M1556 1621 c-3 -5 1 -14 8 -20 10 -9 16 -9 21 -1 4 6 3 10 -2 9 -20
-3 -27 2 -13 11 9 6 10 10 3 10 -6 0 -14 -4 -17 -9z"/>
<path d="M1725 1579 c-4 -6 -5 -12 -2 -15 2 -3 7 2 10 11 7 17 1 20 -8 4z"/>
<path d="M1571 1564 c0 -11 3 -14 6 -6 3 7 2 16 -1 19 -3 4 -6 -2 -5 -13z"/>
<path d="M1710 1540 c0 -5 5 -10 10 -10 6 0 10 5 10 10 0 6 -4 10 -10 10 -5 0
-10 -4 -10 -10z"/>
<path d="M1733 1435 c0 -8 4 -12 9 -9 5 3 6 10 3 15 -9 13 -12 11 -12 -6z"/>
<path d="M1535 1395 c0 -13 3 -21 8 -18 4 2 7 10 7 18 0 8 -3 16 -7 18 -5 3
-8 -5 -8 -18z"/>
<path d="M1697 1401 c-4 -17 -3 -21 5 -13 5 5 8 16 6 23 -3 8 -7 3 -11 -10z"/>
<path d="M1721 1392 c-7 -13 -6 -19 2 -19 7 0 13 9 13 19 0 10 -1 18 -3 18 -1
0 -7 -8 -12 -18z"/>
<path d="M1495 1361 c-4 -7 1 -8 12 -4 15 6 16 4 6 -8 -10 -13 -10 -16 1 -16
16 0 15 29 -1 34 -6 2 -14 -1 -18 -6z"/>
<path d="M1706 1303 c-6 -14 -5 -15 5 -6 7 7 10 15 7 18 -3 3 -9 -2 -12 -12z"/>
<path d="M1654 1299 c-3 -6 -3 -13 0 -16 3 -4 6 -1 6 5 0 6 7 9 15 6 8 -4 15
-4 15 -1 0 11 -30 16 -36 6z"/>
<path d="M1650 1240 c0 -5 5 -10 10 -10 6 0 10 5 10 10 0 6 -4 10 -10 10 -5 0
-10 -4 -10 -10z"/>
<path d="M1693 1235 c0 -8 4 -12 9 -9 5 3 6 10 3 15 -9 13 -12 11 -12 -6z"/>
<path d="M1588 1168 c2 -10 6 -18 7 -18 1 0 5 8 7 18 3 11 0 19 -7 19 -7 0
-10 -8 -7 -19z"/>
<path d="M1677 1177 c4 -6 0 -8 -8 -5 -10 4 -14 -2 -14 -18 0 -13 0 -24 1 -24
0 0 10 13 21 28 15 21 17 29 8 29 -8 0 -11 -5 -8 -10z"/>
<path d="M2015 1849 c-4 -6 -14 -8 -22 -4 -13 4 -13 3 -4 -9 9 -11 9 -15 -1
-19 -7 -3 -3 -4 8 -4 15 1 20 6 16 16 -3 8 -1 12 5 8 5 -3 10 0 10 8 0 18 -3
19 -12 4z"/>
<path d="M2005 1779 c-4 -6 -5 -12 -2 -15 2 -3 7 2 10 11 7 17 1 20 -8 4z"/>
<path d="M2150 1701 c0 -6 4 -12 8 -15 5 -3 9 1 9 9 0 8 -4 15 -9 15 -4 0 -8
-4 -8 -9z"/>
<path d="M2131 1651 c-8 -5 -9 -11 -3 -15 5 -3 12 1 16 9 6 17 6 18 -13 6z"/>
<path d="M1950 1620 c0 -5 5 -10 10 -10 6 0 10 5 10 10 0 6 -4 10 -10 10 -5 0
-10 -4 -10 -10z"/>
<path d="M1947 1587 c-3 -7 3 -13 14 -13 13 0 15 3 7 13 -6 7 -12 13 -13 13
-2 0 -5 -6 -8 -13z"/>
<path d="M2094 1519 c-3 -6 -3 -13 0 -16 3 -4 6 -1 6 5 0 6 7 9 15 6 8 -4 15
-4 15 -1 0 11 -30 16 -36 6z"/>
<path d="M1914 1504 c3 -21 33 -39 33 -20 0 8 -7 12 -15 8 -10 -3 -13 -1 -8 6
3 6 2 13 -3 16 -5 4 -8 -1 -7 -10z"/>
<path d="M2080 1486 c0 -2 8 -10 18 -17 15 -13 16 -12 3 4 -13 16 -21 21 -21
13z"/>
<path d="M1916 1462 c-3 -5 1 -9 9 -9 8 0 12 4 9 9 -3 4 -7 8 -9 8 -2 0 -6 -4
-9 -8z"/>
<path d="M1921 1416 c-9 -10 -9 -16 -1 -21 6 -4 14 -4 17 -1 4 3 1 6 -7 6 -10
0 -10 3 0 15 7 8 10 15 7 15 -2 0 -10 -6 -16 -14z"/>
<path d="M1891 1314 c0 -11 3 -14 6 -6 3 7 2 16 -1 19 -3 4 -6 -2 -5 -13z"/>
<path d="M2076 1314 c-11 -8 -14 -14 -7 -14 7 0 9 -5 6 -10 -4 -6 -11 -7 -17
-4 -7 4 -8 2 -4 -5 6 -9 11 -9 22 0 7 6 12 15 9 19 -3 5 1 10 7 13 7 2 11 7 8
10 -3 3 -14 -1 -24 -9z"/>
<path d="M1865 1240 c-3 -6 1 -7 9 -4 18 7 21 14 7 14 -6 0 -13 -4 -16 -10z"/>
<path d="M1864 1157 c0 -13 6 -24 13 -24 9 0 9 6 1 21 -15 30 -16 30 -14 3z"/>
<path d="M1910 1100 c0 -5 5 -10 10 -10 6 0 10 5 10 10 0 6 -4 10 -10 10 -5 0
-10 -4 -10 -10z"/>
<path d="M1980 1106 c0 -2 9 -6 20 -9 11 -3 18 -1 14 4 -5 9 -34 13 -34 5z"/>
<path d="M2360 1800 c-12 -7 -10 -9 8 -7 12 0 22 5 22 9 0 11 -12 10 -30 -2z"/>
<path d="M2405 1799 c-3 -4 2 -6 10 -5 21 3 28 13 10 13 -9 0 -18 -4 -20 -8z"/>
<path d="M2509 1784 c6 -3 7 -12 4 -20 -3 -8 -1 -14 5 -14 14 0 8 33 -7 36 -6
1 -7 0 -2 -2z"/>
<path d="M2355 1551 c-3 -5 0 -13 6 -17 8 -5 9 -3 4 6 -6 10 -4 12 9 7 10 -4
15 -3 11 3 -8 13 -22 13 -30 1z"/>
<path d="M2347 1427 c-3 -7 3 -13 14 -13 13 0 15 3 7 13 -6 7 -12 13 -13 13
-2 0 -5 -6 -8 -13z"/>
<path d="M2313 1325 c0 -8 4 -12 9 -9 5 3 6 10 3 15 -9 13 -12 11 -12 -6z"/>
<path d="M2307 1255 c3 -8 9 -12 14 -9 12 7 11 11 -5 17 -10 4 -13 1 -9 -8z"/>
<path d="M2305 1220 c-3 -6 1 -7 9 -4 18 7 21 14 7 14 -6 0 -13 -4 -16 -10z"/>
<path d="M2265 1180 c-3 -6 1 -7 9 -4 18 7 21 14 7 14 -6 0 -13 -4 -16 -10z"/>
<path d="M2307 1169 c4 -13 8 -18 11 -10 2 7 -1 18 -6 23 -8 8 -9 4 -5 -13z"/>
<path d="M2291 1124 c0 -11 3 -14 6 -6 3 7 2 16 -1 19 -3 4 -6 -2 -5 -13z"/>
<path d="M2270 1080 c0 -5 5 -10 10 -10 6 0 10 5 10 10 0 6 -4 10 -10 10 -5 0
-10 -4 -10 -10z"/>
<path d="M2670 1719 c0 -5 5 -7 10 -4 6 3 10 8 10 11 0 2 -4 4 -10 4 -5 0 -10
-5 -10 -11z"/>
<path d="M2917 1633 c-9 -19 -1 -57 13 -60 9 -3 11 -1 4 4 -6 4 -10 20 -9 36
2 27 -1 33 -8 20z"/>
<path d="M2650 1599 c0 -5 5 -7 10 -4 6 3 10 8 10 11 0 2 -4 4 -10 4 -5 0 -10
-5 -10 -11z"/>
<path d="M2907 1559 c7 -7 15 -10 18 -7 3 3 -2 9 -12 12 -14 6 -15 5 -6 -5z"/>
<path d="M2633 1535 c0 -8 4 -12 9 -9 5 3 6 10 3 15 -9 13 -12 11 -12 -6z"/>
<path d="M2620 1475 c0 -8 2 -15 4 -15 2 0 6 7 10 15 3 8 1 15 -4 15 -6 0 -10
-7 -10 -15z"/>
<path d="M2876 1342 c-2 -4 -1 -14 4 -22 7 -11 9 -9 7 8 -1 24 -3 26 -11 14z"/>
<path d="M2593 1325 c0 -8 4 -15 9 -15 4 0 8 4 8 9 0 6 -4 12 -8 15 -5 3 -9
-1 -9 -9z"/>
<path d="M2879 1298 c-5 -13 -5 -60 0 -63 4 -2 7 12 7 31 0 29 -3 42 -7 32z"/>
<path d="M2720 1220 c-9 -6 -10 -10 -3 -10 6 0 15 5 18 10 8 12 4 12 -15 0z"/>
<path d="M2877 1213 c-10 -9 -9 -23 1 -23 5 0 9 7 9 15 0 17 -1 18 -10 8z"/>
<path d="M2730 1200 c-9 -6 -10 -10 -3 -10 6 0 15 5 18 10 8 12 4 12 -15 0z"/>
<path d="M2570 1140 c0 -5 5 -10 11 -10 5 0 7 5 4 10 -3 6 -8 10 -11 10 -2 0
-4 -4 -4 -10z"/>
<path d="M2834 1086 c1 -8 5 -18 8 -22 4 -3 5 1 4 10 -1 8 -5 18 -8 22 -4 3
-5 -1 -4 -10z"/>
<path d="M2544 1050 c0 -10 6 -16 13 -13 7 3 13 9 13 13 0 4 -6 10 -13 13 -7
3 -13 -3 -13 -13z"/>
<path d="M2853 1035 c0 -8 4 -12 9 -9 5 3 6 10 3 15 -9 13 -12 11 -12 -6z"/>
<path d="M2813 1005 c-3 -9 -3 -18 -1 -21 3 -3 8 4 11 16 6 23 -1 27 -10 5z"/>
<path d="M2833 985 c0 -8 4 -12 9 -9 5 3 6 10 3 15 -9 13 -12 11 -12 -6z"/>
<path d="M3160 1655 c-7 -9 -11 -17 -9 -20 3 -2 10 5 17 15 14 24 10 26 -8 5z"/>
<path d="M3225 1640 c-4 -6 -11 -8 -16 -5 -5 4 -12 -1 -15 -9 -3 -9 -11 -13
-17 -9 -6 4 -7 1 -1 -8 10 -17 6 -49 -9 -68 -10 -12 -9 -13 2 -6 9 5 12 4 8
-2 -6 -10 -17 -69 -20 -105 -1 -10 -5 -18 -10 -18 -4 0 -6 -4 -3 -9 4 -5 0
-12 -6 -14 -9 -4 -9 -6 -1 -6 8 -1 9 -10 3 -30 -4 -16 -6 -32 -2 -35 5 -6 -13
-10 -30 -7 -4 0 -4 -7 -1 -16 4 -10 2 -14 -4 -10 -5 3 -10 -1 -10 -10 0 -12 5
-11 19 7 13 16 18 18 18 7 0 -9 -5 -19 -11 -23 -8 -4 -7 -9 2 -15 10 -6 10 -9
2 -9 -7 0 -10 -7 -6 -17 4 -11 3 -14 -5 -9 -8 5 -10 2 -6 -9 4 -9 12 -14 19
-11 7 2 16 2 19 -2 19 -18 37 -7 46 29 7 27 15 37 23 32 7 -4 5 2 -3 12 -13
17 -13 18 1 13 9 -4 16 -1 16 7 0 7 -6 11 -12 9 -8 -3 -10 5 -7 26 2 16 8 31
13 31 5 1 15 2 22 3 6 1 16 -3 20 -9 5 -6 7 -4 4 5 -2 8 -14 14 -26 14 -20 -1
-22 2 -16 25 4 14 8 35 9 47 4 27 15 46 26 39 4 -3 14 3 21 12 12 15 12 16 -1
8 -30 -19 -40 -14 -33 13 4 15 6 36 5 47 -1 16 1 17 9 5 8 -12 9 -11 7 6 -2
11 4 29 12 40 14 18 14 18 -2 5 -11 -8 -18 -9 -18 -3 0 6 8 16 18 22 16 11 16
11 0 6 -10 -3 -20 -1 -23 4 -8 13 -22 13 -30 0z"/>
<path d="M3286 1562 c-3 -5 1 -9 9 -9 8 0 12 4 9 9 -3 4 -7 8 -9 8 -2 0 -6 -4
-9 -8z"/>
<path d="M3140 1491 c0 -7 -5 -9 -12 -5 -7 5 -8 3 -3 -5 5 -9 10 -10 18 -2 6
6 8 14 4 18 -4 3 -7 1 -7 -6z"/>
<path d="M3093 1365 c0 -7 8 -10 19 -7 10 2 18 6 18 7 0 1 -8 5 -18 7 -11 3
-19 0 -19 -7z"/>
<path d="M3105 1340 c-3 -6 1 -7 9 -4 18 7 21 14 7 14 -6 0 -13 -4 -16 -10z"/>
<path d="M3235 1320 c-3 -5 -1 -10 4 -10 6 0 11 5 11 10 0 6 -2 10 -4 10 -3 0
-8 -4 -11 -10z"/>
<path d="M3076 1213 c-6 -14 -5 -15 5 -6 7 7 10 15 7 18 -3 3 -9 -2 -12 -12z"/>
<path d="M3230 1214 c6 -6 8 -13 5 -16 -3 -2 1 -5 8 -5 7 0 13 8 13 17 0 8 -8
16 -18 16 -11 0 -14 -4 -8 -12z"/>
<path d="M3133 1165 c0 -8 4 -12 9 -9 5 3 6 10 3 15 -9 13 -12 11 -12 -6z"/>
<path d="M3036 1162 c-3 -5 1 -9 9 -9 8 0 12 4 9 9 -3 4 -7 8 -9 8 -2 0 -6 -4
-9 -8z"/>
<path d="M3073 1155 c0 -8 4 -12 9 -9 5 3 6 10 3 15 -9 13 -12 11 -12 -6z"/>
<path d="M3028 1133 c7 -3 16 -2 19 1 4 3 -2 6 -13 5 -11 0 -14 -3 -6 -6z"/>
<path d="M3214 1119 c0 -14 3 -16 16 -6 8 6 16 12 18 13 1 1 -5 4 -15 6 -13 4
-19 0 -19 -13z"/>
<path d="M3036 1058 c3 -5 10 -6 15 -3 13 9 11 12 -6 12 -8 0 -12 -4 -9 -9z"/>
<path d="M3214 1041 c0 -11 5 -17 13 -14 10 4 11 9 2 19 -15 18 -15 18 -15 -5z"/>
<path d="M3214 959 c0 -13 3 -15 13 -7 7 6 13 12 13 13 0 2 -6 5 -13 8 -7 3
-13 -3 -13 -14z"/>
<path d="M3015 959 c-4 -6 -5 -12 -2 -15 2 -3 7 2 10 11 7 17 1 20 -8 4z"/>
<path d="M2976 924 c-4 -9 -4 -19 -1 -22 3 -3 5 0 5 8 0 10 4 10 18 -1 16 -13
16 -13 2 6 -8 11 -15 21 -16 23 -1 2 -4 -5 -8 -14z"/>
<path d="M3460 1600 c0 -5 7 -7 15 -4 8 4 15 8 15 10 0 2 -7 4 -15 4 -8 0 -15
-4 -15 -10z"/>
<path d="M3671 1513 c7 -12 15 -20 18 -17 3 2 -3 12 -13 22 -17 16 -18 16 -5
-5z"/>
<path d="M3436 1353 c-6 -14 -5 -15 5 -6 7 7 10 15 7 18 -3 3 -9 -2 -12 -12z"/>
<path d="M3640 1355 c-7 -8 -17 -12 -23 -8 -6 3 -7 1 -3 -5 8 -14 33 -5 40 14
7 18 2 18 -14 -1z"/>
<path d="M3440 1240 c-9 -6 -10 -10 -3 -10 6 0 15 5 18 10 8 12 4 12 -15 0z"/>
<path d="M3424 1163 c-2 -27 -1 -27 14 3 8 15 8 21 -1 21 -7 0 -13 -11 -13
-24z"/>
<path d="M3570 1170 c-9 -6 -10 -10 -3 -10 6 0 15 5 18 10 8 12 4 12 -15 0z"/>
<path d="M3435 1110 c-3 -5 -3 -10 1 -10 4 0 -1 -10 -12 -22 -12 -14 -13 -18
-3 -10 9 6 18 10 20 7 3 -2 5 7 5 20 0 27 -2 30 -11 15z"/>
<path d="M3405 980 c-12 -19 -14 -50 -4 -50 6 0 9 6 6 13 -2 6 0 20 5 30 9 18
4 24 -7 7z"/>
<path d="M3415 890 c-4 -6 -10 -8 -14 -6 -4 3 -8 -1 -8 -8 0 -8 7 -12 15 -8
11 4 13 1 7 -9 -4 -8 -4 -11 0 -6 8 7 15 47 9 47 -2 0 -6 -5 -9 -10z"/>
<path d="M3950 1529 c0 -5 5 -7 10 -4 6 3 10 8 10 11 0 2 -4 4 -10 4 -5 0 -10
-5 -10 -11z"/>
<path d="M3929 1509 c34 -14 22 -19 -21 -10 -43 10 -53 5 -55 -29 -2 -31 -10
-85 -12 -85 -1 0 -4 -24 -6 -54 -3 -29 -8 -59 -13 -65 -4 -6 -7 -21 -6 -33 1
-15 -4 -23 -15 -24 -10 0 -12 -2 -3 -6 6 -2 12 -12 12 -20 0 -9 3 -13 7 -10 3
4 13 1 21 -6 11 -8 13 -8 9 0 -5 7 0 9 13 6 11 -3 18 -9 15 -13 -7 -12 23 -6
36 7 5 5 11 20 12 32 1 11 4 21 8 21 3 0 5 14 4 30 -1 17 2 33 6 36 5 2 5 12
2 21 -5 12 -3 14 8 8 11 -7 11 -5 -1 10 -14 17 -13 18 3 12 9 -3 17 -2 17 3 0
6 -5 10 -11 10 -7 0 -9 10 -4 28 11 40 15 133 5 127 -5 -3 -11 -1 -15 5 -3 5
-14 10 -23 9 -12 0 -9 -3 7 -10z"/>
<path d="M3975 1440 c-2 -3 5 -7 16 -7 10 -1 19 2 19 6 0 9 -29 10 -35 1z"/>
<path d="M3965 1379 c-4 -6 -5 -12 -2 -15 2 -3 7 2 10 11 7 17 1 20 -8 4z"/>
<path d="M3795 1354 c-10 -8 -14 -14 -8 -14 7 0 15 5 19 11 4 8 9 7 15 -2 6
-10 9 -10 9 -2 0 19 -14 22 -35 7z"/>
<path d="M3795 1322 c3 -3 -1 -12 -8 -20 -11 -13 -9 -14 11 -1 26 16 28 26 7
26 -8 0 -13 -3 -10 -5z"/>
<path d="M3800 1280 c-13 -8 -12 -10 3 -10 9 0 17 5 17 10 0 12 -1 12 -20 0z"/>
<path d="M3954 1175 c0 -19 3 -32 5 -29 8 7 9 54 2 59 -4 2 -7 -12 -7 -30z"/>
<path d="M3790 1160 c0 -5 5 -10 11 -10 5 0 7 5 4 10 -3 6 -8 10 -11 10 -2 0
-4 -4 -4 -10z"/>
<path d="M3746 1121 c-3 -4 6 -7 19 -7 14 0 22 2 19 5 -8 8 -34 10 -38 2z"/>
<path d="M3815 1120 c-2 -3 9 -6 25 -6 17 0 27 2 25 5 -8 7 -45 9 -50 1z"/>
<path d="M3758 1093 c7 -3 16 -2 19 1 4 3 -2 6 -13 5 -11 0 -14 -3 -6 -6z"/>
<path d="M3879 952 c-13 -15 -12 -16 3 -4 13 10 17 10 21 0 4 -9 6 -9 6 -1 2
20 -16 24 -30 5z"/>
<path d="M3714 905 c0 -13 3 -22 7 -19 8 4 6 30 -2 38 -3 3 -5 -5 -5 -19z"/>
<path d="M3907 879 c7 -7 15 -10 18 -7 3 3 -2 9 -12 12 -14 6 -15 5 -6 -5z"/>
<path d="M3875 811 c-3 -5 -2 -12 3 -15 5 -3 9 1 9 9 0 17 -3 19 -12 6z"/>
<path d="M3919 763 c0 -5 -2 -16 -4 -26 -2 -11 -1 -16 3 -13 8 8 14 46 7 46
-3 0 -5 -3 -6 -7z"/>
<path d="M4199 1448 c-4 -12 -5 -57 0 -53 6 6 10 55 4 55 -1 0 -3 -1 -4 -2z"/>
<path d="M4210 1380 c0 -5 5 -10 11 -10 5 0 7 5 4 10 -3 6 -8 10 -11 10 -2 0
-4 -4 -4 -10z"/>
<path d="M4188 1328 c2 -10 6 -18 7 -18 1 0 5 8 7 18 3 11 0 19 -7 19 -7 0
-10 -8 -7 -19z"/>
<path d="M4146 1198 c3 -5 10 -6 15 -3 13 9 11 12 -6 12 -8 0 -12 -4 -9 -9z"/>
<path d="M4160 1151 c0 -6 4 -13 10 -16 6 -3 7 1 4 9 -7 18 -14 21 -14 7z"/>
<path d="M4119 1048 c-8 -21 -2 -61 10 -71 14 -10 14 -10 5 3 -6 8 -10 27 -9
43 2 22 -2 35 -6 25z"/>
<path d="M4124 935 c-4 -8 -11 -12 -18 -8 -7 4 -7 1 1 -9 7 -8 10 -18 6 -21
-3 -4 -1 -7 6 -7 7 0 11 6 8 13 -2 6 0 20 5 30 5 9 6 17 3 17 -3 0 -8 -7 -11
-15z"/>
<path d="M4084 879 c-3 -6 -1 -16 5 -22 9 -9 10 -7 5 7 -6 15 -4 17 6 11 9 -5
11 -4 6 3 -9 15 -13 15 -22 1z"/>
<path d="M4107 813 c3 -7 6 -13 8 -13 1 0 7 6 13 13 8 10 6 13 -7 13 -11 0
-17 -6 -14 -13z"/>
<path d="M4066 722 c-3 -5 1 -9 9 -9 8 0 15 4 15 9 0 4 -4 8 -9 8 -6 0 -12 -4
-15 -8z"/>
<path d="M4430 1456 c0 -2 8 -10 18 -17 15 -13 16 -12 3 4 -13 16 -21 21 -21
13z"/>
<path d="M4490 1440 c0 -5 5 -10 11 -10 5 0 7 5 4 10 -3 6 -8 10 -11 10 -2 0
-4 -4 -4 -10z"/>
<path d="M4441 1393 c-10 -26 -10 -27 4 -9 8 11 15 23 15 28 0 15 -7 8 -19
-19z"/>
<path d="M4536 1402 c-3 -5 1 -9 9 -9 8 0 12 4 9 9 -3 4 -7 8 -9 8 -2 0 -6 -4
-9 -8z"/>
<path d="M4460 1375 c-7 -8 -9 -15 -4 -15 4 0 3 -5 -3 -11 -6 -6 -9 -18 -6
-25 3 -8 0 -21 -7 -29 -6 -8 -9 -19 -5 -25 3 -5 2 -10 -2 -10 -5 0 -9 -12 -9
-27 1 -19 -4 -27 -13 -25 -12 3 -12 0 -2 -12 14 -17 6 -40 -10 -30 -6 3 -5 -3
2 -13 10 -16 9 -26 -4 -52 -9 -17 -11 -29 -6 -26 5 4 9 1 9 -4 0 -6 -8 -11
-17 -11 -14 0 -15 -2 -4 -9 8 -6 10 -14 5 -22 -9 -15 -10 -20 -12 -61 -2 -19
-8 -28 -19 -29 -11 0 -13 -3 -5 -6 6 -2 12 -11 12 -19 0 -9 -4 -13 -9 -10 -4
3 -6 -6 -3 -21 3 -18 1 -24 -7 -19 -6 4 -11 2 -11 -3 0 -6 5 -11 11 -11 8 0 8
-4 2 -12 -6 -7 -11 -20 -11 -28 0 -8 -3 -28 -6 -45 -2 -16 -5 -34 -5 -39 -1
-5 -9 -2 -18 5 -9 8 -4 -5 12 -29 15 -23 30 -42 32 -42 2 0 1 5 -2 10 -6 9 17
15 40 10 36 -8 51 -5 52 9 6 64 12 102 19 113 5 7 9 24 10 38 1 14 2 35 3 48
1 16 5 21 14 16 8 -5 8 -2 -2 9 -10 12 -10 17 -2 17 8 0 10 8 6 21 -4 12 -3
19 1 16 5 -3 9 15 8 39 0 25 3 47 7 50 5 2 5 12 2 21 -4 9 -2 14 3 11 5 -4 9
10 8 30 0 21 2 42 5 47 6 10 7 16 9 48 1 12 6 15 15 11 7 -5 6 0 -3 11 -13 17
-13 18 0 10 12 -6 13 -5 3 5 -9 9 -9 19 -2 32 6 11 8 22 5 25 -2 3 -1 15 4 28
11 28 -1 40 -47 48 -21 4 -35 1 -43 -8z"/>
<path d="M4380 1331 c0 -6 4 -13 10 -16 6 -3 7 1 4 9 -7 18 -14 21 -14 7z"/>
<path d="M4555 1320 c-3 -5 -1 -10 4 -10 6 0 11 5 11 10 0 6 -2 10 -4 10 -3 0
-8 -4 -11 -10z"/>
<path d="M4387 1255 c3 -8 9 -12 14 -9 12 7 11 11 -5 17 -10 4 -13 1 -9 -8z"/>
<path d="M4385 1220 c-3 -6 1 -7 9 -4 18 7 21 14 7 14 -6 0 -13 -4 -16 -10z"/>
<path d="M4358 1163 c-10 -19 -1 -67 12 -71 9 -2 11 0 5 5 -6 4 -10 23 -10 41
1 32 -1 38 -7 25z"/>
<path d="M4553 1163 c4 -3 1 -13 -6 -22 -11 -14 -10 -14 6 -2 20 15 22 31 5
31 -6 0 -8 -3 -5 -7z"/>
<path d="M4347 1079 c7 -7 15 -10 18 -7 3 3 -2 9 -12 12 -14 6 -15 5 -6 -5z"/>
<path d="M4332 1041 c-11 -7 -11 -9 0 -14 9 -3 15 1 15 9 0 8 -1 14 -1 14 -1
0 -7 -4 -14 -9z"/>
<path d="M4507 1039 c7 -7 15 -10 18 -7 3 3 -2 9 -12 12 -14 6 -15 5 -6 -5z"/>
<path d="M4310 971 c0 -6 4 -13 10 -16 6 -3 7 1 4 9 -7 18 -14 21 -14 7z"/>
<path d="M4290 846 c0 -2 7 -7 16 -10 8 -3 12 -2 9 4 -6 10 -25 14 -25 6z"/>
<path d="M4473 785 c0 -8 4 -15 9 -15 4 0 8 4 8 9 0 6 -4 12 -8 15 -5 3 -9 -1
-9 -9z"/>
<path d="M4270 760 c0 -5 5 -10 11 -10 5 0 7 5 4 10 -3 6 -8 10 -11 10 -2 0
-4 -4 -4 -10z"/>
<path d="M4273 705 c0 -8 4 -12 9 -9 5 3 6 10 3 15 -9 13 -12 11 -12 -6z"/>
<path d="M4347 575 c3 -8 9 -12 14 -9 12 7 11 11 -5 17 -10 4 -13 1 -9 -8z"/>
<path d="M4370 526 c0 -8 4 -17 9 -20 5 -4 7 3 4 14 -6 23 -13 26 -13 6z"/>
<path d="M4395 480 c-3 -5 -1 -10 4 -10 6 0 11 5 11 10 0 6 -2 10 -4 10 -3 0
-8 -4 -11 -10z"/>
</g>
</svg>
