<?xml version="1.0" standalone="no"?>
<!DOCTYPE svg PUBLIC "-//W3C//DTD SVG 20010904//EN"
 "http://www.w3.org/TR/2001/REC-SVG-20010904/DTD/svg10.dtd">
<svg version="1.0" xmlns="http://www.w3.org/2000/svg"
 width="641.000000pt" height="641.000000pt" viewBox="0 0 641.000000 641.000000"
 preserveAspectRatio="xMidYMid meet">
<metadata>
Created by potrace 1.11, written by Peter Selinger 2001-2013
</metadata>
<g transform="translate(0.000000,641.000000) scale(0.100000,-0.100000)"
fill="#000000" stroke="none">
<path d="M0 3205 l0 -3205 3205 0 3205 0 0 3205 0 3205 -3205 0 -3205 0 0
-3205z m1570 3175 c43 -43 11 -120 -49 -120 -32 0 -71 39 -71 70 0 10 9 29 21
44 25 32 70 35 99 6z m2089 -6 c12 -15 21 -34 21 -44 0 -10 -9 -29 -21 -44
-40 -51 -122 -22 -122 44 0 66 82 95 122 44z m160 0 c12 -15 21 -34 21 -44 0
-10 -9 -29 -21 -44 -40 -51 -122 -22 -122 44 0 66 82 95 122 44z m-2089 -154
c43 -43 11 -120 -49 -120 -32 0 -71 39 -71 70 0 10 9 29 21 44 25 32 70 35 99
6z m160 0 c43 -43 11 -120 -49 -120 -32 0 -71 39 -71 70 0 10 9 29 21 44 25
32 70 35 99 6z m1445 -5 c30 -30 31 -54 4 -89 -40 -51 -122 -22 -122 44 0 64
72 92 118 45z m160 0 c30 -30 31 -54 4 -89 -40 -51 -122 -22 -122 44 0 64 72
92 118 45z m160 0 c30 -30 31 -54 4 -89 -40 -51 -122 -22 -122 44 0 64 72 92
118 45z m-1925 -155 c11 -11 20 -33 20 -50 0 -65 -79 -94 -119 -44 -27 35 -26
59 4 89 29 30 68 32 95 5z m160 0 c28 -28 27 -84 -2 -104 -34 -24 -73 -20 -97
10 -27 35 -26 59 4 89 29 30 68 32 95 5z m160 0 c46 -46 15 -120 -50 -120 -32
0 -70 40 -70 72 0 27 45 68 75 68 14 0 34 -9 45 -20z m145 14 c8 -4 22 -19 30
-35 38 -73 -63 -138 -114 -73 -27 35 -26 59 4 89 24 25 49 31 80 19z m176 -12
c15 -13 22 -30 22 -52 0 -66 -82 -95 -122 -44 -27 35 -26 59 4 89 29 30 64 32
96 7z m160 0 c15 -13 22 -30 22 -52 0 -66 -82 -95 -122 -44 -27 35 -26 59 4
89 29 30 64 32 96 7z m160 0 c15 -13 22 -30 22 -52 0 -66 -82 -95 -122 -44
-27 35 -26 59 4 89 29 30 64 32 96 7z m160 0 c28 -23 30 -73 4 -102 -27 -30
-78 -27 -104 6 -27 35 -26 59 4 89 29 30 64 32 96 7z m160 0 c28 -23 30 -73 4
-102 -27 -30 -78 -27 -105 7 -52 66 35 148 101 95z m160 0 c28 -23 30 -73 4
-102 -27 -30 -78 -27 -105 7 -52 66 35 148 101 95z m164 -7 c30 -30 31 -54 4
-89 -40 -51 -122 -22 -122 44 0 64 72 92 118 45z m160 0 c30 -30 31 -54 4 -89
-40 -51 -122 -22 -122 44 0 64 72 92 118 45z m160 0 c30 -30 31 -54 4 -89 -40
-51 -122 -22 -122 44 0 64 72 92 118 45z m-1925 -155 c28 -28 27 -84 -2 -104
-34 -24 -73 -20 -97 10 -27 35 -26 59 4 89 29 30 68 32 95 5z m160 0 c28 -28
27 -84 -2 -104 -34 -24 -73 -20 -97 10 -27 35 -26 59 4 89 29 30 68 32 95 5z
m160 0 c46 -46 15 -120 -50 -120 -32 0 -70 40 -70 72 0 27 45 68 75 68 14 0
34 -9 45 -20z m160 0 c46 -46 15 -120 -50 -120 -32 0 -70 40 -70 72 0 27 45
68 75 68 14 0 34 -9 45 -20z m159 2 c31 -24 31 -79 1 -104 -33 -27 -74 -23
-99 8 -27 35 -26 59 4 89 28 29 64 32 94 7z m162 0 c15 -13 22 -30 22 -52 0
-66 -82 -95 -122 -44 -27 35 -26 59 4 89 29 30 64 32 96 7z m160 0 c15 -13 22
-30 22 -52 0 -66 -82 -95 -122 -44 -27 35 -26 59 4 89 29 30 64 32 96 7z m160
0 c28 -23 30 -73 4 -102 -27 -30 -78 -27 -104 6 -27 35 -26 59 4 89 29 30 64
32 96 7z m160 0 c28 -23 30 -73 4 -102 -27 -30 -78 -27 -104 6 -27 35 -26 59
4 89 29 30 64 32 96 7z m160 0 c28 -23 30 -73 4 -102 -27 -30 -78 -27 -105 7
-52 66 35 148 101 95z m165 -8 c20 -19 24 -31 19 -52 -10 -40 -34 -62 -70 -62
-63 0 -94 82 -46 122 32 25 67 23 97 -8z m159 1 c30 -30 31 -54 4 -89 -42 -53
-122 -23 -122 46 0 62 73 89 118 43z m160 0 c30 -30 31 -54 4 -89 -42 -53
-122 -23 -122 46 0 62 73 89 118 43z m-1925 -155 c28 -28 27 -84 -2 -104 -34
-24 -73 -20 -97 10 -27 35 -26 59 4 89 29 30 68 32 95 5z m160 0 c28 -28 27
-84 -2 -104 -34 -24 -73 -20 -97 10 -27 35 -26 59 4 89 29 30 68 32 95 5z
m160 0 c28 -28 27 -84 -2 -104 -34 -24 -73 -20 -97 10 -27 35 -26 59 4 89 29
30 68 32 95 5z m160 0 c28 -28 27 -84 -2 -104 -34 -24 -73 -20 -97 10 -27 35
-26 59 4 89 29 30 68 32 95 5z m160 0 c46 -46 15 -120 -50 -120 -32 0 -70 40
-70 72 0 27 45 68 75 68 14 0 34 -9 45 -20z m161 2 c15 -13 22 -30 22 -52 0
-66 -82 -95 -122 -44 -27 35 -26 59 4 89 29 30 64 32 96 7z m160 0 c28 -23 30
-73 4 -102 -27 -30 -78 -27 -104 6 -27 35 -26 59 4 89 29 30 64 32 96 7z m160
0 c28 -23 30 -73 4 -102 -27 -30 -78 -27 -104 6 -27 35 -26 59 4 89 29 30 64
32 96 7z m160 0 c28 -23 30 -73 4 -102 -27 -30 -78 -27 -105 7 -52 66 35 148
101 95z m160 0 c28 -23 30 -73 4 -102 -27 -30 -78 -27 -105 7 -52 66 35 148
101 95z m160 0 c48 -40 17 -122 -46 -122 -40 0 -68 30 -68 72 0 36 32 68 68
68 13 0 33 -8 46 -18z m164 -7 c30 -30 31 -54 4 -89 -42 -53 -122 -23 -122 46
0 62 73 89 118 43z m160 0 c30 -30 31 -54 4 -89 -42 -53 -122 -23 -122 46 0
62 73 89 118 43z m-1925 -155 c28 -28 27 -84 -2 -104 -34 -24 -73 -20 -97 10
-27 35 -26 59 4 89 29 30 68 32 95 5z m160 0 c28 -28 27 -84 -2 -104 -34 -24
-73 -20 -97 10 -27 35 -26 59 4 89 29 30 68 32 95 5z m160 0 c24 -24 26 -77 3
-102 -25 -28 -77 -24 -102 8 -27 35 -26 59 4 89 29 30 68 32 95 5z m160 0 c46
-46 15 -120 -50 -120 -32 0 -70 40 -70 72 0 27 45 68 75 68 14 0 34 -9 45 -20z
m145 14 c8 -4 22 -19 30 -35 38 -73 -63 -138 -114 -73 -27 35 -26 59 4 89 24
25 49 31 80 19z m160 0 c8 -4 22 -19 30 -35 39 -74 -63 -138 -114 -73 -27 35
-26 59 4 89 24 25 49 31 80 19z m176 -12 c28 -23 30 -73 4 -102 -27 -30 -78
-27 -104 6 -27 35 -26 59 4 89 29 30 64 32 96 7z m160 0 c28 -23 30 -73 4
-102 -27 -30 -78 -27 -104 6 -27 35 -26 59 4 89 29 30 64 32 96 7z m160 0 c28
-23 30 -73 4 -102 -27 -30 -78 -27 -105 7 -52 66 35 148 101 95z m160 0 c28
-23 30 -73 4 -102 -27 -30 -78 -27 -105 7 -52 66 35 148 101 95z m164 -7 c30
-30 31 -54 4 -89 -42 -53 -122 -23 -122 46 0 62 73 89 118 43z m160 0 c30 -30
31 -54 4 -89 -42 -53 -122 -23 -122 46 0 62 73 89 118 43z m160 0 c30 -30 31
-54 4 -89 -42 -53 -122 -23 -122 46 0 62 73 89 118 43z m-1925 -155 c24 -24
26 -77 3 -102 -25 -28 -77 -24 -102 8 -27 35 -26 59 4 89 29 30 68 32 95 5z
m160 0 c24 -24 26 -77 3 -102 -25 -28 -77 -24 -102 8 -27 35 -26 59 4 89 29
30 68 32 95 5z m160 0 c24 -24 26 -77 3 -102 -25 -28 -77 -24 -102 8 -27 35
-26 59 4 89 29 30 68 32 95 5z m160 0 c46 -46 18 -120 -46 -120 -23 0 -38 7
-53 26 -27 35 -26 59 4 89 29 30 68 32 95 5z m160 0 c46 -46 18 -120 -46 -120
-23 0 -38 7 -53 26 -27 35 -26 59 4 89 29 30 68 32 95 5z m145 14 c8 -4 22
-19 30 -35 39 -74 -63 -138 -114 -73 -27 35 -26 59 4 89 24 25 49 31 80 19z
m176 -12 c28 -23 30 -73 4 -102 -27 -30 -78 -27 -104 6 -27 35 -26 59 4 89 29
30 64 32 96 7z m160 0 c28 -23 30 -73 4 -102 -27 -30 -78 -27 -104 6 -27 35
-26 59 4 89 29 30 64 32 96 7z m160 0 c28 -23 30 -73 4 -102 -27 -30 -78 -27
-105 7 -52 66 35 148 101 95z m160 0 c28 -23 30 -73 4 -102 -27 -30 -78 -27
-105 7 -52 66 35 148 101 95z m164 -7 c30 -30 31 -54 4 -89 -42 -53 -122 -23
-122 46 0 62 73 89 118 43z m153 8 c32 -27 37 -64 12 -96 -43 -54 -123 -25
-123 45 0 57 67 88 111 51z m167 -8 c30 -30 31 -54 4 -89 -42 -53 -122 -23
-122 46 0 62 73 89 118 43z m153 8 c32 -27 37 -64 12 -96 -42 -53 -120 -27
-120 40 0 62 63 94 108 56z m-2078 -163 c24 -24 26 -77 3 -102 -25 -28 -77
-24 -102 8 -27 35 -26 59 4 89 29 30 68 32 95 5z m160 0 c24 -24 26 -77 3
-102 -25 -28 -77 -24 -102 8 -27 35 -26 59 4 89 29 30 68 32 95 5z m160 0 c46
-46 18 -120 -46 -120 -23 0 -38 7 -53 26 -27 35 -26 59 4 89 29 30 68 32 95 5z
m160 0 c46 -46 18 -120 -46 -120 -23 0 -38 7 -53 26 -27 35 -26 59 4 89 29 30
68 32 95 5z m145 14 c8 -4 22 -19 30 -35 39 -74 -63 -138 -114 -73 -27 35 -26
59 4 89 24 25 49 31 80 19z m160 0 c8 -4 22 -19 30 -35 39 -74 -63 -138 -114
-73 -27 35 -26 59 4 89 24 25 49 31 80 19z m176 -12 c28 -23 30 -73 4 -102
-27 -30 -78 -27 -105 7 -52 66 35 148 101 95z m160 0 c28 -23 30 -73 4 -102
-27 -30 -78 -27 -104 6 -27 35 -26 59 4 89 29 30 64 32 96 7z m160 0 c28 -23
30 -73 4 -102 -27 -30 -78 -27 -105 7 -52 66 35 148 101 95z m160 0 c28 -23
30 -73 4 -102 -27 -30 -78 -27 -105 7 -52 66 35 148 101 95z m157 1 c32 -27
37 -64 12 -96 -43 -54 -123 -25 -123 45 0 57 67 88 111 51z m167 -8 c30 -30
31 -54 4 -89 -42 -53 -122 -23 -122 46 0 62 73 89 118 43z m160 0 c30 -30 31
-54 4 -89 -42 -53 -122 -23 -122 46 0 62 73 89 118 43z m160 0 c30 -30 31 -54
4 -89 -42 -54 -123 -23 -121 46 2 63 72 89 117 43z m-2085 -155 c24 -24 26
-77 3 -102 -25 -28 -77 -24 -102 8 -27 35 -26 59 4 89 29 30 68 32 95 5z m160
0 c24 -24 26 -77 3 -102 -25 -28 -77 -24 -102 8 -27 35 -26 59 4 89 29 30 68
32 95 5z m160 0 c24 -24 26 -77 3 -102 -25 -28 -77 -24 -102 8 -27 35 -26 59
4 89 29 30 68 32 95 5z m160 0 c46 -46 18 -120 -46 -120 -23 0 -38 7 -53 26
-27 35 -26 59 4 89 29 30 68 32 95 5z m160 0 c46 -46 18 -120 -46 -120 -23 0
-38 7 -53 26 -27 35 -26 59 4 89 29 30 68 32 95 5z m145 14 c8 -4 22 -19 30
-35 39 -74 -63 -138 -114 -73 -27 35 -26 59 4 89 24 25 49 31 80 19z m160 0
c8 -4 22 -19 30 -35 39 -74 -63 -138 -115 -72 -45 57 15 133 85 107z m176 -12
c28 -23 30 -73 4 -102 -27 -30 -78 -27 -105 7 -52 66 35 148 101 95z m160 0
c28 -23 30 -73 4 -102 -27 -30 -78 -27 -105 7 -52 66 35 148 101 95z m160 0
c48 -40 17 -122 -46 -122 -40 0 -68 30 -68 72 0 36 32 68 68 68 13 0 33 -8 46
-18z m157 1 c52 -44 24 -123 -43 -123 -43 0 -79 41 -70 80 7 32 40 60 70 60
13 0 32 -8 43 -17z m167 -8 c30 -30 31 -54 4 -89 -42 -53 -122 -23 -122 46 0
62 73 89 118 43z m160 0 c30 -30 31 -54 4 -89 -42 -53 -122 -23 -122 46 0 62
73 89 118 43z m160 0 c30 -30 31 -54 4 -89 -52 -66 -153 -1 -114 74 24 47 72
54 110 15z m-2085 -155 c24 -24 26 -77 3 -102 -16 -18 -68 -24 -89 -10 -15 10
-34 47 -34 67 0 25 46 65 75 65 14 0 34 -9 45 -20z m160 0 c24 -24 26 -77 3
-102 -16 -18 -68 -24 -89 -10 -15 10 -34 47 -34 67 0 25 46 65 75 65 14 0 34
-9 45 -20z m168 -7 c17 -24 15 -73 -5 -95 -25 -28 -77 -24 -102 8 -28 35 -26
59 5 91 20 20 31 24 57 19 18 -3 38 -14 45 -23z m152 7 c46 -46 18 -120 -46
-120 -23 0 -38 7 -53 26 -27 35 -26 59 4 89 29 30 68 32 95 5z m160 0 c46 -46
18 -120 -46 -120 -23 0 -38 7 -53 26 -27 35 -26 59 4 89 29 30 68 32 95 5z
m145 14 c8 -4 22 -19 30 -35 39 -74 -63 -138 -114 -73 -27 35 -26 59 4 89 24
25 49 31 80 19z m176 -12 c28 -23 30 -73 4 -102 -27 -30 -78 -27 -105 7 -52
66 35 148 101 95z m160 0 c28 -23 30 -73 4 -102 -27 -30 -78 -27 -105 7 -52
66 35 148 101 95z m157 1 c52 -44 24 -123 -43 -123 -43 0 -79 41 -70 80 7 32
40 60 70 60 13 0 32 -8 43 -17z m160 0 c32 -27 37 -64 12 -96 -43 -54 -123
-25 -123 45 0 57 67 88 111 51z m160 0 c32 -27 37 -64 12 -96 -43 -54 -123
-25 -123 45 0 57 67 88 111 51z m160 0 c32 -27 37 -64 12 -96 -43 -54 -123
-25 -123 45 0 57 67 88 111 51z m167 -8 c30 -30 31 -54 4 -89 -42 -53 -122
-23 -122 46 0 62 73 89 118 43z m160 0 c30 -30 31 -54 4 -89 -52 -66 -153 -1
-114 74 24 47 72 54 110 15z m-2085 -155 c24 -24 26 -77 3 -102 -23 -25 -77
-24 -103 4 -27 29 -25 64 5 93 29 30 68 32 95 5z m160 0 c24 -24 26 -77 3
-102 -16 -18 -68 -24 -89 -10 -15 10 -34 47 -34 67 0 25 46 65 75 65 14 0 34
-9 45 -20z m144 10 c25 -9 43 -49 37 -80 -10 -54 -85 -68 -120 -24 -27 35 -26
59 4 89 26 27 41 30 79 15z m176 -10 c45 -45 18 -120 -44 -120 -37 0 -49 7
-65 37 -17 33 -14 51 14 78 29 30 68 32 95 5z m160 0 c46 -46 18 -120 -46
-120 -23 0 -38 7 -53 26 -27 35 -26 59 4 89 29 30 68 32 95 5z m145 14 c8 -4
22 -19 30 -35 39 -74 -63 -138 -114 -73 -27 35 -26 59 4 89 24 25 49 31 80 19z
m160 0 c8 -4 22 -19 30 -35 39 -74 -63 -138 -115 -72 -45 57 15 133 85 107z
m176 -12 c28 -23 30 -73 4 -102 -27 -30 -78 -27 -105 7 -52 66 35 148 101 95z
m160 0 c28 -23 30 -73 4 -102 -27 -30 -78 -27 -105 7 -52 66 35 148 101 95z
m157 1 c32 -27 37 -64 12 -96 -43 -54 -123 -25 -123 45 0 57 67 88 111 51z
m160 0 c52 -44 24 -123 -43 -123 -43 0 -79 41 -70 80 7 32 40 60 70 60 13 0
32 -8 43 -17z m160 0 c32 -27 37 -64 12 -96 -43 -54 -123 -25 -123 45 0 57 67
88 111 51z m167 -8 c30 -30 31 -54 4 -89 -42 -53 -122 -23 -122 46 0 62 73 89
118 43z m160 0 c30 -30 31 -54 4 -89 -52 -66 -153 -1 -114 74 24 47 72 54 110
15z m138 14 c30 -16 37 -28 37 -66 0 -56 -69 -84 -110 -43 -41 41 -17 103 48
119 2 1 13 -4 25 -10z m-2400 -160 c29 -16 37 -28 37 -63 0 -40 -26 -66 -67
-66 -67 0 -96 68 -48 115 27 28 45 31 78 14z m160 0 c29 -16 37 -28 37 -63 0
-40 -26 -66 -67 -66 -67 0 -96 68 -48 115 27 28 45 31 78 14z m185 -16 c17
-24 15 -73 -5 -95 -16 -18 -68 -24 -89 -10 -15 10 -34 47 -34 67 0 9 12 27 26
42 20 20 31 24 57 19 18 -3 38 -14 45 -23z m137 15 c63 -29 41 -128 -29 -128
-37 0 -49 7 -65 37 -17 33 -14 51 14 78 27 28 42 30 80 13z m159 2 c25 -9 43
-49 37 -80 -5 -28 -34 -50 -65 -50 -37 0 -49 7 -65 37 -17 33 -14 51 14 78 26
27 41 30 79 15z m176 -10 c46 -46 18 -120 -46 -120 -23 0 -38 7 -53 26 -27 35
-26 59 4 89 29 30 68 32 95 5z m138 14 c12 -4 29 -19 37 -35 39 -74 -63 -138
-114 -73 -27 35 -26 59 4 89 25 26 35 29 73 19z m167 0 c8 -4 22 -19 30 -35
39 -74 -63 -138 -115 -72 -45 57 15 133 85 107z m160 0 c8 -4 22 -19 30 -35
39 -74 -63 -138 -115 -72 -45 57 15 133 85 107z m160 0 c8 -4 22 -19 30 -35
39 -74 -63 -138 -115 -72 -45 57 15 133 85 107z m173 -11 c52 -44 24 -123 -43
-123 -43 0 -79 41 -70 80 7 32 40 60 70 60 13 0 32 -8 43 -17z m160 0 c32 -27
37 -64 12 -96 -43 -54 -123 -25 -123 45 0 57 67 88 111 51z m160 0 c32 -27 37
-64 12 -96 -43 -54 -123 -25 -123 45 0 57 67 88 111 51z m160 0 c32 -27 37
-64 12 -96 -43 -54 -123 -25 -123 45 0 57 67 88 111 51z m167 -8 c30 -30 31
-54 4 -89 -52 -66 -153 -1 -114 74 24 47 72 54 110 15z m160 0 c30 -30 31 -54
4 -89 -15 -19 -30 -26 -53 -26 -64 0 -92 74 -46 120 27 27 66 25 95 -5z
m-2411 -156 c51 -40 25 -119 -39 -119 -41 0 -63 18 -71 57 -5 26 -1 37 19 57
32 31 56 33 91 5z m149 10 c30 -16 37 -28 37 -65 0 -31 -22 -60 -50 -65 -31
-6 -71 12 -80 37 -15 38 -12 53 15 79 27 28 45 31 78 14z m160 0 c29 -16 37
-28 37 -63 0 -39 -26 -66 -64 -66 -37 0 -49 7 -65 37 -17 33 -14 51 14 78 27
28 45 31 78 14z m160 0 c29 -16 37 -28 37 -63 0 -39 -26 -66 -64 -66 -37 0
-49 7 -65 37 -17 33 -14 51 14 78 27 28 45 31 78 14z m185 -16 c17 -24 15 -73
-5 -95 -16 -18 -68 -24 -89 -10 -15 10 -34 47 -34 67 0 9 12 27 26 42 20 20
31 24 57 19 18 -3 38 -14 45 -23z m136 17 c40 -15 51 -77 19 -112 -16 -18 -69
-24 -89 -10 -38 25 -39 91 -1 117 25 18 37 18 71 5z m160 0 c40 -15 51 -77 19
-112 -16 -18 -69 -24 -89 -10 -38 25 -39 91 -1 117 25 18 37 18 71 5z m154 4
c31 -9 55 -56 43 -86 -21 -56 -80 -68 -118 -24 -30 35 -29 61 2 91 25 26 35
29 73 19z m160 0 c12 -4 29 -19 37 -35 39 -74 -63 -138 -115 -72 -25 32 -20
69 12 96 22 18 31 20 66 11z m191 -19 c8 -8 14 -28 14 -44 0 -69 -81 -97 -123
-44 -25 32 -20 69 13 96 24 21 71 17 96 -8z m140 15 c10 -5 24 -23 31 -40 11
-28 11 -34 -7 -58 -29 -40 -83 -42 -112 -5 -48 59 21 139 88 103z m178 -13
c42 -43 9 -117 -51 -117 -65 0 -95 82 -46 122 26 21 74 19 97 -5z m151 6 c32
-27 37 -64 12 -96 -43 -54 -123 -25 -123 45 0 57 67 88 111 51z m167 -8 c30
-30 31 -54 4 -89 -15 -19 -30 -26 -53 -26 -64 0 -92 74 -46 120 27 27 66 25
95 -5z m160 0 c28 -27 30 -42 14 -79 -36 -79 -155 -26 -127 56 18 50 75 62
113 23z m160 0 c30 -30 31 -54 4 -89 -15 -19 -30 -26 -53 -26 -64 0 -92 74
-46 120 27 27 66 25 95 -5z m160 0 c30 -30 31 -54 4 -89 -40 -51 -119 -25
-119 39 0 69 67 98 115 50z m-2571 -156 c31 -24 36 -77 9 -102 -46 -41 -123
-10 -123 48 0 30 41 75 68 75 11 0 31 -9 46 -21z m149 10 c30 -16 37 -28 37
-65 0 -31 -22 -60 -50 -65 -31 -6 -71 12 -80 37 -15 38 -12 53 15 79 27 28 45
31 78 14z m160 0 c30 -16 37 -28 37 -65 0 -31 -22 -60 -50 -65 -31 -6 -71 12
-80 37 -15 38 -12 53 15 79 27 28 45 31 78 14z m160 0 c30 -16 37 -28 37 -65
0 -70 -99 -92 -128 -29 -17 38 -15 53 13 80 27 28 45 31 78 14z m161 0 c52
-24 50 -99 -3 -125 -45 -23 -101 18 -101 72 0 19 45 64 64 64 8 0 26 -5 40
-11z m160 0 c52 -24 50 -99 -3 -125 -45 -23 -101 18 -101 72 0 19 45 64 64 64
8 0 26 -5 40 -11z m160 1 c40 -15 51 -77 19 -112 -16 -18 -69 -24 -89 -10 -38
25 -39 91 -1 117 25 18 37 18 71 5z m154 4 c12 -4 30 -20 38 -36 12 -24 13
-33 2 -55 -40 -84 -162 -37 -129 49 15 40 44 54 89 42z m160 0 c12 -4 30 -20
38 -36 12 -24 13 -33 2 -55 -27 -56 -84 -61 -121 -11 -24 32 -13 77 24 95 28
15 27 15 57 7z m165 -3 c13 -5 30 -23 37 -40 11 -26 10 -35 -4 -56 -32 -49
-81 -52 -117 -7 -24 31 -19 68 13 95 23 19 36 21 71 8z m184 -14 c6 -6 15 -24
18 -38 9 -36 -30 -81 -70 -81 -40 0 -79 45 -70 81 9 39 43 64 79 57 17 -4 36
-12 43 -19z m160 0 c6 -6 15 -24 18 -38 9 -36 -30 -81 -70 -81 -40 0 -79 45
-70 81 9 39 43 64 79 57 17 -4 36 -12 43 -19z m160 0 c60 -60 -34 -159 -97
-102 -56 51 -14 134 60 119 14 -3 30 -11 37 -17z m160 0 c25 -25 25 -63 1 -92
-39 -45 -98 -34 -119 23 -11 28 12 78 38 85 24 7 65 -2 80 -16z m160 0 c42
-42 9 -117 -51 -117 -52 0 -77 38 -63 93 12 44 79 58 114 24z m137 13 c37 -14
52 -51 36 -89 -23 -57 -98 -58 -126 -2 -21 41 11 96 58 100 4 1 18 -3 32 -9z
m181 -15 c28 -27 30 -42 13 -80 -29 -63 -128 -41 -128 30 0 69 67 98 115 50z
m-2571 -156 c65 -51 1 -153 -73 -114 -48 24 -55 72 -16 110 30 30 54 31 89 4z
m160 0 c65 -51 1 -153 -73 -114 -48 24 -55 72 -16 110 30 30 54 31 89 4z m160
0 c65 -51 1 -153 -73 -114 -26 13 -41 39 -41 73 0 20 47 62 68 62 11 0 31 -9
46 -21z m149 10 c30 -16 37 -28 37 -65 0 -31 -22 -60 -50 -65 -31 -6 -71 12
-80 37 -15 38 -12 53 15 79 27 28 45 31 78 14z m161 0 c53 -25 50 -100 -6
-127 -33 -16 -71 -1 -87 35 -16 36 -14 51 14 78 27 28 42 30 79 14z m159 0
c56 -25 53 -99 -5 -127 -54 -25 -111 33 -89 90 16 43 51 57 94 37z m161 0 c77
-36 26 -155 -54 -127 -56 19 -61 106 -8 128 31 12 33 12 62 -1z m159 0 c14 -6
30 -22 36 -36 24 -53 -40 -116 -93 -92 -52 24 -55 108 -4 129 31 12 33 12 61
-1z m160 2 c13 -5 30 -23 37 -40 11 -26 10 -35 -4 -56 -32 -49 -81 -52 -117
-7 -24 31 -19 68 13 95 23 19 36 21 71 8z m160 0 c13 -5 30 -23 37 -40 11 -26
10 -35 -4 -56 -35 -53 -103 -51 -126 4 -14 35 1 78 32 91 30 12 32 12 61 1z
m160 0 c13 -5 30 -23 37 -40 11 -26 10 -35 -4 -56 -33 -50 -83 -51 -119 -3
-24 32 -13 77 24 95 29 15 31 15 62 4z m184 -14 c25 -25 25 -63 1 -92 -53 -61
-147 -5 -118 70 16 42 84 55 117 22z m160 0 c25 -25 25 -63 1 -92 -39 -45 -98
-34 -119 23 -11 28 12 78 38 85 24 7 65 -2 80 -16z m138 13 c55 -21 52 -108
-5 -128 -34 -12 -69 3 -86 37 -21 41 11 96 58 100 4 1 18 -3 33 -9z m182 -13
c25 -25 25 -63 1 -92 -54 -62 -142 -9 -115 68 5 16 19 33 31 37 24 11 66 4 83
-13z m137 13 c58 -22 55 -108 -4 -128 -78 -28 -131 90 -57 126 28 14 31 14 61
2z m181 -15 c28 -27 30 -42 13 -80 -29 -63 -128 -41 -128 29 0 36 7 48 35 64
31 18 54 14 80 -13z m139 15 c37 -14 52 -51 36 -90 -28 -68 -130 -49 -130 24
0 36 7 48 35 64 25 14 28 14 59 2z m-2710 -171 c65 -51 1 -153 -73 -114 -48
24 -55 72 -16 110 30 30 54 31 89 4z m160 0 c66 -52 1 -153 -74 -114 -66 34
-40 130 36 134 6 1 23 -8 38 -20z m160 0 c66 -52 1 -153 -74 -114 -66 34 -40
130 36 134 6 1 23 -8 38 -20z m160 0 c65 -51 1 -153 -73 -114 -26 13 -41 39
-41 73 0 20 47 62 68 62 11 0 31 -9 46 -21z m149 10 c30 -16 37 -28 37 -65 0
-52 -53 -83 -100 -59 -51 26 -49 104 3 125 30 12 35 12 60 -1z m161 0 c53 -25
50 -100 -6 -127 -35 -16 -72 0 -89 40 -15 36 0 74 33 88 31 12 33 12 62 -1z
m160 0 c33 -15 48 -58 32 -90 -17 -35 -58 -52 -90 -38 -52 24 -55 108 -4 129
31 12 33 12 62 -1z m159 0 c36 -16 51 -54 35 -87 -18 -36 -53 -53 -88 -40 -56
19 -61 106 -8 128 31 12 33 12 61 -1z m161 0 c13 -7 30 -24 37 -40 9 -24 9
-33 -5 -54 -35 -53 -103 -51 -126 4 -14 35 1 78 32 91 31 12 33 12 62 -1z
m159 2 c13 -5 30 -23 37 -40 11 -26 10 -35 -4 -56 -33 -50 -83 -51 -119 -3
-24 32 -13 77 24 95 29 15 31 15 62 4z m160 0 c13 -5 30 -23 37 -40 11 -26 10
-35 -4 -56 -25 -37 -63 -49 -93 -30 -50 33 -51 104 -1 125 30 12 32 12 61 1z
m160 0 c13 -5 30 -23 37 -40 11 -26 10 -35 -4 -56 -33 -50 -83 -51 -120 -2
-17 23 -17 29 -6 57 7 18 23 36 34 40 28 11 31 12 59 1z m184 -14 c25 -25 25
-63 1 -92 -39 -45 -98 -34 -119 23 -11 28 12 78 38 85 24 7 65 -2 80 -16z
m138 13 c14 -5 30 -22 36 -37 22 -58 -38 -116 -92 -89 -67 33 -52 122 23 135
4 0 18 -3 33 -9z m160 0 c55 -21 52 -108 -5 -128 -35 -13 -70 4 -88 40 -15 32
-1 70 32 86 27 14 30 14 61 2z m160 0 c55 -21 52 -108 -5 -128 -78 -28 -131
90 -57 126 28 14 31 14 62 2z m159 0 c37 -14 52 -51 36 -90 -28 -68 -130 -49
-130 24 0 36 7 48 35 64 25 14 28 14 59 2z m160 0 c56 -21 56 -103 0 -128 -43
-20 -94 13 -94 62 0 36 7 48 35 64 25 14 28 14 59 2z m160 0 c56 -21 56 -103
0 -128 -72 -33 -130 68 -68 117 31 24 34 24 68 11z m-2870 -171 c53 -42 23
-122 -46 -122 -73 0 -93 105 -25 133 33 13 42 12 71 -11z m160 0 c53 -42 23
-122 -46 -122 -73 0 -93 105 -25 133 33 13 42 12 71 -11z m160 0 c66 -52 1
-153 -74 -114 -66 34 -40 130 36 134 6 1 23 -8 38 -20z m160 0 c66 -52 1 -153
-74 -114 -51 26 -49 104 3 125 33 13 42 12 71 -11z m160 0 c65 -51 1 -153 -73
-114 -65 33 -39 130 35 134 6 1 23 -8 38 -20z m150 10 c54 -25 50 -100 -7
-127 -22 -11 -31 -10 -56 2 -63 33 -41 129 31 135 4 1 18 -4 32 -10z m159 0
c14 -6 30 -22 36 -36 24 -53 -40 -116 -93 -92 -52 24 -55 108 -4 129 31 12 33
12 61 -1z m160 0 c14 -6 30 -22 36 -36 24 -53 -40 -116 -93 -92 -52 24 -55
108 -4 129 31 12 33 12 61 -1z m160 0 c14 -6 30 -22 36 -36 24 -53 -40 -116
-93 -92 -52 24 -55 108 -4 129 31 12 33 12 61 -1z m161 0 c54 -25 55 -90 1
-125 -21 -14 -30 -14 -54 -4 -57 23 -62 108 -9 130 31 12 33 12 62 -1z m159 2
c32 -12 53 -62 37 -90 -6 -12 -22 -28 -35 -37 -21 -14 -30 -14 -54 -4 -71 29
-57 126 21 139 4 0 18 -3 31 -8z m160 0 c13 -5 29 -23 36 -39 15 -36 4 -63
-35 -88 -30 -20 -64 -9 -90 31 -14 21 -14 30 -4 54 6 16 21 33 33 39 28 14 31
14 60 3z m162 -1 c56 -21 52 -106 -6 -130 -77 -32 -131 92 -55 128 27 14 30
14 61 2z m160 0 c54 -20 53 -104 -1 -129 -53 -24 -117 39 -93 92 10 22 39 44
61 46 4 1 18 -3 33 -9z m160 0 c54 -20 53 -104 -1 -129 -32 -14 -73 3 -90 38
-15 30 -1 75 29 89 28 14 31 14 62 2z m159 0 c59 -22 55 -106 -5 -130 -53 -22
-107 34 -87 91 5 15 19 31 31 37 28 14 31 14 61 2z m160 0 c37 -14 52 -51 37
-88 -25 -59 -99 -61 -127 -3 -15 30 -1 75 29 89 28 14 31 14 61 2z m160 0 c56
-21 56 -103 0 -128 -72 -33 -130 68 -68 117 31 24 34 24 68 11z m160 0 c55
-20 58 -98 6 -125 -75 -39 -140 62 -74 114 30 24 34 24 68 11z m176 -20 c11
-11 20 -31 20 -45 0 -30 -32 -65 -60 -65 -12 0 -32 11 -46 26 -20 19 -24 31
-19 52 12 52 68 69 105 32z m-3046 -151 c53 -42 23 -122 -46 -122 -73 0 -93
105 -25 133 33 13 42 12 71 -11z m160 0 c53 -42 23 -122 -46 -122 -73 0 -93
105 -25 133 33 13 42 12 71 -11z m160 0 c57 -45 8 -144 -60 -122 -62 20 -70
102 -14 130 34 17 43 16 74 -8z m160 0 c52 -41 23 -122 -44 -122 -37 0 -57 16
-65 53 -8 35 8 68 38 80 33 13 42 12 71 -11z m162 -2 c31 -27 35 -68 9 -97
-26 -28 -50 -33 -84 -16 -52 27 -51 105 2 126 34 14 44 12 73 -13z m156 3 c45
-35 42 -84 -7 -116 -21 -14 -30 -14 -54 -4 -58 24 -64 107 -9 130 34 13 43 12
70 -10z m152 9 c50 -23 51 -92 1 -125 -21 -14 -30 -14 -54 -4 -57 23 -62 108
-9 130 31 12 33 12 62 -1z m159 0 c53 -24 54 -91 2 -125 -21 -14 -30 -14 -54
-4 -57 23 -62 108 -9 130 31 12 33 12 61 -1z m161 0 c54 -25 55 -90 1 -125
-21 -14 -30 -14 -54 -4 -57 23 -62 108 -9 130 31 12 33 12 62 -1z m160 0 c54
-25 55 -90 1 -125 -21 -14 -30 -14 -54 -4 -57 23 -61 102 -7 128 28 14 31 14
60 1z m160 0 c54 -25 55 -90 1 -125 -21 -14 -30 -14 -54 -4 -57 23 -61 102 -7
128 28 14 31 14 60 1z m159 2 c32 -12 53 -62 37 -90 -6 -12 -22 -28 -35 -37
-21 -14 -30 -14 -54 -4 -57 23 -61 102 -7 128 27 14 30 14 59 3z m183 -12 c37
-30 19 -98 -31 -121 -48 -22 -107 45 -84 96 19 42 79 55 115 25z m139 11 c56
-21 52 -106 -6 -130 -77 -32 -131 92 -55 128 27 14 30 14 61 2z m160 0 c56
-21 52 -106 -6 -130 -53 -22 -107 34 -87 91 5 15 19 31 31 37 28 14 31 14 62
2z m160 0 c56 -21 52 -106 -6 -130 -53 -22 -107 34 -87 91 5 15 19 31 31 37
28 14 31 14 62 2z m159 0 c59 -22 55 -106 -5 -130 -53 -22 -107 34 -87 91 5
15 19 31 31 37 28 14 31 14 61 2z m160 0 c58 -22 58 -100 0 -127 -32 -16 -36
-16 -62 4 -39 29 -43 83 -6 112 30 24 34 24 68 11z m160 0 c58 -22 58 -100 0
-127 -32 -16 -36 -16 -62 4 -39 29 -43 83 -6 112 30 24 34 24 68 11z m189 -22
c32 -38 18 -87 -33 -108 -28 -11 -34 -11 -58 7 -40 29 -42 83 -5 112 32 26 68
22 96 -11z m-3050 -156 c36 -32 16 -97 -36 -115 -27 -10 -76 19 -83 49 -18 72
61 116 119 66z m151 7 c57 -45 8 -144 -60 -122 -62 20 -70 102 -14 130 34 17
43 16 74 -8z m160 0 c57 -45 8 -144 -60 -122 -62 20 -70 102 -14 130 34 17 43
16 74 -8z m160 0 c52 -41 23 -122 -44 -122 -37 0 -57 16 -65 53 -8 35 8 68 38
80 33 13 42 12 71 -11z m160 0 c57 -45 8 -144 -60 -122 -59 19 -67 103 -13
130 33 17 42 16 73 -8z m162 -2 c31 -27 35 -68 9 -97 -26 -28 -50 -33 -83 -16
-66 34 -41 131 35 135 7 1 24 -9 39 -22z m147 12 c53 -24 54 -91 2 -125 -21
-14 -30 -14 -54 -4 -57 23 -62 108 -9 130 31 12 33 12 61 -1z m161 0 c54 -25
55 -90 1 -125 -21 -14 -30 -14 -54 -4 -57 23 -62 108 -9 130 31 12 33 12 62
-1z m160 0 c54 -25 55 -90 1 -125 -21 -14 -30 -14 -54 -5 -56 24 -63 98 -12
126 32 18 34 18 65 4z m160 0 c54 -25 55 -90 1 -125 -21 -14 -30 -14 -54 -4
-57 23 -61 102 -7 128 28 14 31 14 60 1z m160 0 c54 -25 55 -90 1 -125 -21
-14 -30 -14 -54 -4 -57 23 -61 102 -7 128 28 14 31 14 60 1z m160 0 c54 -25
55 -90 1 -125 -21 -14 -30 -14 -54 -4 -57 23 -61 102 -7 128 28 14 31 14 60 1z
m154 5 c12 -4 30 -20 38 -36 20 -38 4 -81 -35 -98 -80 -33 -135 91 -57 128 26
13 26 13 54 6z m160 0 c12 -4 30 -20 38 -36 20 -39 4 -81 -37 -98 -77 -32
-131 92 -55 128 26 13 26 13 54 6z m167 -4 c56 -21 52 -106 -6 -130 -53 -22
-107 34 -87 91 5 15 19 31 31 37 28 14 31 14 62 2z m160 0 c56 -21 52 -106 -6
-130 -53 -22 -107 34 -87 91 5 15 19 31 31 37 28 14 31 14 62 2z m159 0 c59
-22 55 -106 -5 -130 -24 -10 -33 -10 -54 4 -49 32 -52 81 -7 116 28 23 32 23
66 10z m160 0 c58 -22 58 -100 0 -127 -32 -16 -36 -16 -62 4 -39 29 -43 83 -6
112 30 24 34 24 68 11z m189 -22 c32 -38 18 -87 -33 -108 -28 -11 -34 -11 -58
7 -40 29 -42 83 -5 112 32 26 68 22 96 -11z m160 0 c53 -62 -31 -149 -96 -98
-20 16 -27 30 -27 55 0 67 79 95 123 43z m151 7 c31 -31 27 -84 -8 -107 -20
-13 -69 -8 -88 9 -22 20 -23 70 -1 95 20 22 76 24 97 3z m-3050 -156 c57 -45
8 -144 -60 -122 -62 20 -70 102 -14 130 34 17 43 16 74 -8z m160 0 c57 -45 8
-144 -60 -122 -62 20 -70 102 -14 130 34 17 43 16 74 -8z m160 0 c57 -45 8
-144 -60 -122 -62 20 -70 102 -14 130 34 17 43 16 74 -8z m162 -2 c36 -31 36
-73 -1 -105 -28 -24 -63 -24 -91 -1 -34 28 -22 103 18 119 35 14 45 12 74 -13z
m160 0 c36 -31 36 -73 -1 -105 -28 -24 -63 -24 -91 -1 -34 28 -22 103 18 119
35 14 45 12 74 -13z m152 7 c50 -34 48 -86 -3 -120 -24 -16 -29 -16 -59 -1
-69 33 -48 132 29 136 6 1 21 -6 33 -15z m156 5 c54 -25 55 -90 1 -125 -21
-14 -30 -14 -54 -4 -57 23 -62 108 -9 130 31 12 33 12 62 -1z m160 0 c54 -25
55 -90 1 -125 -21 -14 -30 -14 -54 -4 -57 23 -61 102 -7 128 28 14 31 14 60 1z
m160 0 c54 -25 55 -90 1 -125 -21 -14 -30 -14 -54 -4 -57 23 -61 102 -7 128
28 14 31 14 60 1z m160 0 c54 -25 55 -90 1 -125 -21 -14 -30 -14 -54 -4 -57
23 -61 102 -7 128 28 14 31 14 60 1z m160 0 c56 -26 53 -105 -4 -129 -80 -33
-135 90 -56 128 28 14 31 14 60 1z m160 0 c56 -26 53 -105 -4 -129 -80 -33
-135 90 -56 128 28 14 31 14 60 1z m154 5 c34 -10 57 -59 42 -94 -17 -40 -62
-57 -95 -36 -37 25 -49 52 -35 86 6 15 21 32 33 38 27 13 27 13 55 6z m167 -4
c14 -5 30 -22 36 -37 22 -59 -38 -118 -94 -92 -50 23 -52 104 -4 127 28 14 31
14 62 2z m160 0 c56 -21 52 -106 -6 -130 -24 -10 -33 -10 -54 4 -49 32 -52 81
-7 116 28 23 32 23 67 10z m159 0 c58 -22 58 -100 0 -127 -32 -16 -36 -16 -62
4 -39 29 -43 83 -6 112 30 24 34 24 68 11z m189 -23 c20 -23 17 -71 -6 -94
-43 -42 -117 -9 -117 52 0 68 79 95 123 42z m160 1 c53 -62 -31 -149 -96 -98
-20 16 -27 30 -27 55 0 67 79 95 123 43z m160 0 c53 -62 -31 -149 -96 -98 -20
16 -27 30 -27 55 0 67 79 95 123 43z m160 0 c53 -62 -31 -149 -96 -98 -20 16
-27 30 -27 55 0 67 79 95 123 43z m-3059 -149 c57 -45 8 -144 -60 -122 -62 20
-70 102 -14 130 34 17 43 16 74 -8z m160 0 c57 -45 8 -144 -60 -122 -62 20
-70 102 -14 130 34 17 43 16 74 -8z m160 0 c57 -45 8 -144 -60 -122 -60 20
-68 103 -14 130 34 17 43 16 74 -8z m162 -2 c36 -31 36 -73 -1 -105 -28 -24
-63 -24 -91 -1 -34 28 -22 103 18 119 35 14 45 12 74 -13z m160 0 c36 -31 36
-73 -1 -105 -28 -24 -63 -24 -91 -1 -34 28 -22 103 18 119 35 14 45 12 74 -13z
m160 0 c61 -52 5 -146 -70 -117 -52 19 -57 98 -7 125 36 20 46 19 77 -8z m165
-6 c34 -35 36 -50 9 -84 -26 -32 -50 -40 -84 -27 -53 20 -55 103 -3 128 35 17
47 14 78 -17z m143 18 c54 -25 55 -90 1 -125 -21 -14 -30 -14 -56 -4 -56 24
-59 102 -6 128 29 14 32 14 61 1z m160 0 c54 -25 55 -90 1 -125 -21 -14 -30
-14 -54 -4 -57 23 -61 102 -7 128 28 14 31 14 60 1z m160 0 c56 -26 53 -105
-4 -129 -80 -33 -135 90 -56 128 28 14 31 14 60 1z m160 0 c56 -26 53 -105 -4
-129 -80 -33 -135 90 -56 128 28 14 31 14 60 1z m160 0 c56 -26 53 -105 -4
-129 -80 -33 -135 90 -56 128 28 14 31 14 60 1z m160 0 c56 -26 53 -105 -5
-130 -24 -9 -33 -9 -54 5 -13 9 -29 25 -34 35 -14 26 4 75 32 89 29 14 32 14
61 1z m160 0 c56 -26 53 -105 -4 -129 -78 -32 -129 75 -58 124 27 19 30 19 62
5z m165 -4 c53 -27 48 -101 -8 -125 -26 -11 -35 -10 -56 4 -49 32 -52 81 -7
116 30 24 35 24 71 5z m181 -11 c7 -7 14 -30 14 -49 0 -40 -17 -61 -55 -70
-36 -9 -81 30 -81 70 0 40 45 79 81 70 14 -3 33 -13 41 -21z m163 -6 c53 -62
-31 -149 -96 -98 -20 16 -27 30 -27 55 0 67 79 95 123 43z m160 0 c53 -62 -31
-149 -96 -98 -45 36 -33 103 23 123 23 8 53 -2 73 -25z m160 0 c53 -62 -31
-149 -96 -98 -45 36 -33 103 23 123 23 8 53 -2 73 -25z m160 0 c53 -62 -31
-149 -96 -98 -20 16 -27 30 -27 55 0 67 79 95 123 43z m-3050 -156 c27 -24 19
-80 -14 -105 -53 -38 -125 18 -104 80 18 51 75 63 118 25z m151 7 c57 -45 8
-144 -60 -122 -62 20 -70 102 -14 130 34 17 43 16 74 -8z m169 -7 c27 -24 19
-80 -14 -105 -53 -38 -125 18 -104 80 18 51 75 63 118 25z m151 7 c57 -45 8
-144 -60 -122 -59 19 -67 103 -13 130 33 17 42 16 73 -8z m162 -2 c61 -52 5
-146 -70 -117 -52 19 -57 98 -7 125 36 20 46 19 77 -8z m160 0 c61 -52 5 -146
-70 -117 -52 19 -57 98 -7 125 36 20 46 19 77 -8z m165 -6 c34 -35 36 -50 9
-84 -26 -32 -50 -40 -84 -27 -53 20 -55 103 -3 128 35 17 47 14 78 -17z m167
-7 c27 -31 28 -44 2 -77 -26 -32 -50 -40 -84 -27 -53 20 -55 103 -3 128 29 14
57 6 85 -24z m136 25 c56 -26 53 -105 -4 -129 -80 -33 -135 90 -56 128 28 14
31 14 60 1z m160 0 c56 -26 53 -105 -4 -129 -80 -33 -135 90 -56 128 28 14 31
14 60 1z m160 0 c56 -26 53 -105 -4 -129 -80 -33 -135 90 -56 128 28 14 31 14
60 1z m160 0 c56 -26 53 -105 -4 -129 -80 -33 -135 90 -56 128 28 14 31 14 60
1z m160 0 c56 -26 53 -105 -4 -129 -78 -32 -129 75 -58 124 27 19 30 19 62 5z
m160 0 c56 -26 53 -105 -4 -129 -83 -34 -130 86 -50 127 30 15 24 15 54 2z
m160 0 c55 -25 54 -109 -1 -130 -85 -32 -134 87 -53 128 30 15 24 15 54 2z
m165 -4 c54 -28 46 -109 -13 -128 -22 -7 -33 -5 -54 10 -49 37 -45 93 8 120
31 16 26 16 59 -2z m161 0 c36 -18 47 -54 28 -91 -19 -40 -63 -52 -97 -27 -30
23 -40 75 -20 100 11 12 39 29 57 32 2 1 16 -6 32 -14z m183 -17 c53 -62 -31
-149 -96 -98 -45 36 -33 103 23 123 23 8 53 -2 73 -25z m160 0 c53 -62 -31
-149 -96 -98 -45 36 -33 103 23 123 23 8 53 -2 73 -25z m160 0 c53 -62 -31
-149 -96 -98 -20 16 -27 30 -27 55 0 67 79 95 123 43z m137 17 c56 -29 48
-107 -14 -128 -39 -13 -80 17 -84 62 -4 40 21 71 66 80 2 1 16 -6 32 -14z
m-3187 -173 c27 -24 19 -80 -14 -105 -53 -38 -125 18 -104 80 18 51 75 63 118
25z m160 0 c27 -24 19 -80 -14 -105 -53 -38 -125 18 -104 80 18 51 75 63 118
25z m162 -2 c41 -45 -10 -129 -69 -114 -64 16 -73 104 -14 129 36 14 60 10 83
-15z m160 0 c42 -47 -12 -133 -71 -113 -61 20 -68 104 -11 128 35 15 59 10 82
-15z m161 -1 c32 -35 12 -99 -36 -114 -28 -9 -69 12 -80 41 -15 38 -2 74 33
89 35 15 59 10 83 -16z m153 8 c38 -31 28 -98 -18 -117 -59 -24 -115 31 -91
91 19 45 70 57 109 26z m160 0 c40 -33 30 -97 -18 -117 -59 -24 -115 32 -91
91 19 45 70 57 109 26z m135 13 c14 -5 32 -21 42 -35 34 -52 -28 -119 -89 -96
-66 25 -53 114 20 140 1 1 13 -3 27 -9z m170 -1 c56 -26 53 -105 -4 -129 -80
-33 -135 90 -56 128 28 14 31 14 60 1z m160 0 c34 -16 51 -58 35 -91 -25 -55
-98 -58 -125 -6 -20 38 -4 83 35 97 14 5 27 10 28 10 1 1 13 -4 27 -10z m160
0 c13 -7 30 -24 36 -39 23 -57 -37 -115 -93 -89 -55 25 -53 108 2 128 14 5 27
10 28 10 1 1 13 -4 27 -10z m160 0 c34 -16 51 -58 35 -92 -25 -55 -103 -55
-128 0 -14 31 3 72 39 90 30 15 24 15 54 2z m160 0 c37 -17 51 -60 32 -97 -27
-52 -100 -49 -125 5 -14 31 3 72 39 90 30 15 24 15 54 2z m160 0 c55 -25 54
-109 -1 -130 -85 -32 -134 87 -53 128 30 15 24 15 54 2z m160 0 c55 -25 54
-109 -1 -130 -85 -32 -134 87 -53 128 30 15 24 15 54 2z m165 -4 c52 -26 48
-105 -5 -125 -50 -19 -94 11 -94 64 0 37 24 64 68 75 2 1 16 -6 31 -14z m161
0 c56 -29 48 -107 -14 -128 -39 -13 -80 17 -84 62 -4 40 21 71 66 80 2 1 16
-6 32 -14z m160 0 c56 -29 48 -107 -14 -128 -39 -13 -80 17 -84 62 -4 40 21
71 66 80 2 1 16 -6 32 -14z m183 -17 c53 -62 -31 -149 -96 -98 -45 36 -33 103
23 123 23 8 53 -2 73 -25z m160 0 c53 -62 -31 -149 -96 -98 -45 36 -33 103 23
123 23 8 53 -2 73 -25z m160 0 c53 -62 -31 -149 -96 -98 -45 36 -33 103 23
123 23 8 53 -2 73 -25z m-3050 -156 c27 -24 19 -80 -14 -105 -22 -15 -33 -17
-55 -10 -61 20 -70 98 -16 127 30 16 57 12 85 -12z m160 0 c17 -15 23 -68 9
-88 -14 -21 -52 -34 -77 -28 -63 16 -71 104 -12 129 33 14 52 11 80 -13z m160
0 c35 -31 16 -101 -32 -117 -77 -24 -123 98 -48 130 33 14 52 11 80 -13z m163
-3 c32 -35 12 -99 -36 -114 -28 -9 -69 12 -80 41 -15 38 -2 74 33 89 35 15 59
10 83 -16z m153 7 c60 -47 0 -144 -72 -117 -56 21 -58 103 -4 126 31 13 51 11
76 -9z m160 0 c22 -17 31 -54 19 -80 -24 -55 -108 -54 -129 1 -26 68 52 125
110 79z m175 -19 c16 -22 17 -30 7 -56 -25 -59 -110 -62 -132 -4 -13 36 5 79
40 91 33 12 60 2 85 -31z m160 0 c16 -22 17 -30 7 -56 -25 -59 -110 -62 -132
-4 -13 36 5 79 40 91 33 12 60 2 85 -31z m160 0 c16 -22 17 -30 7 -56 -25 -59
-110 -62 -132 -4 -13 36 5 79 40 91 33 12 60 2 85 -31z m130 32 c56 -26 53
-105 -3 -129 -38 -15 -75 1 -91 39 -11 26 -10 35 4 56 14 21 34 35 63 44 1 1
13 -4 27 -10z m160 0 c37 -17 51 -60 32 -97 -27 -52 -100 -49 -125 5 -14 31 3
72 39 90 30 15 24 15 54 2z m160 0 c83 -38 29 -164 -55 -129 -57 24 -57 98 1
127 30 15 24 15 54 2z m196 -38 c15 -37 -1 -78 -37 -92 -58 -22 -116 38 -89
92 27 55 103 55 126 0z m124 38 c55 -25 54 -109 -1 -130 -85 -32 -134 87 -53
128 30 15 24 15 54 2z m160 0 c54 -25 54 -109 0 -129 -50 -19 -94 11 -94 64 0
32 18 57 50 69 8 3 16 6 17 6 1 1 13 -4 27 -10z m166 -4 c53 -28 49 -104 -6
-125 -50 -19 -94 11 -94 64 0 37 24 64 68 75 2 1 16 -6 32 -14z m160 0 c50
-26 52 -90 5 -121 -47 -31 -105 3 -105 60 0 37 24 64 68 75 2 1 16 -6 32 -14z
m160 0 c56 -29 48 -107 -14 -128 -39 -13 -80 17 -84 62 -4 40 21 71 66 80 2 1
16 -6 32 -14z m160 0 c56 -29 48 -108 -13 -129 -38 -14 -81 19 -85 63 -4 40
21 71 66 80 2 1 16 -6 32 -14z m183 -17 c24 -28 21 -65 -8 -93 -30 -30 -54
-31 -89 -4 -44 35 -31 102 24 122 23 8 53 -2 73 -25z m-3209 0 c31 -44 15 -93
-37 -111 -25 -9 -63 11 -76 40 -15 32 -14 36 10 67 27 34 81 36 103 4z m161
-158 c42 -47 -14 -135 -72 -114 -62 21 -69 104 -11 128 36 15 60 11 83 -14z
m158 2 c21 -19 22 -75 1 -96 -53 -53 -135 -8 -119 65 5 22 16 35 38 44 33 14
52 11 80 -13z m160 0 c35 -31 16 -101 -32 -117 -77 -24 -123 98 -48 130 33 14
52 11 80 -13z m160 0 c35 -31 16 -101 -32 -117 -77 -24 -123 98 -48 130 33 14
52 11 80 -13z m156 4 c38 -30 28 -97 -18 -116 -60 -24 -115 32 -90 91 17 43
70 55 108 25z m160 0 c22 -17 31 -54 19 -80 -24 -55 -108 -54 -129 1 -26 68
52 125 110 79z m175 -19 c16 -22 17 -30 7 -56 -25 -59 -110 -62 -132 -4 -13
36 5 79 40 91 33 12 60 2 85 -31z m160 0 c16 -22 17 -30 7 -56 -25 -59 -110
-62 -132 -4 -13 36 5 79 40 91 33 12 60 2 85 -31z m160 0 c16 -22 17 -30 7
-56 -7 -16 -25 -35 -41 -41 -61 -25 -121 42 -85 96 32 49 83 49 119 1z m160 0
c17 -23 17 -29 6 -57 -25 -61 -105 -60 -130 1 -10 24 -10 33 4 54 33 50 83 51
120 2z m166 -6 c24 -59 -31 -115 -91 -91 -37 16 -53 54 -37 88 28 57 104 59
128 3z m160 0 c24 -59 -31 -115 -91 -91 -37 16 -53 54 -37 88 28 57 104 59
128 3z m160 0 c15 -37 -1 -78 -37 -92 -58 -22 -116 38 -89 92 27 55 103 55
126 0z m160 0 c15 -37 -1 -78 -37 -92 -58 -22 -116 38 -89 92 27 55 103 55
126 0z m124 38 c54 -25 54 -109 0 -129 -50 -19 -94 11 -94 64 0 32 18 57 50
69 8 3 16 6 17 6 1 1 13 -4 27 -10z m196 -34 c17 -31 5 -71 -25 -91 -47 -31
-105 3 -105 60 0 73 95 95 130 31z m130 30 c50 -26 52 -90 5 -121 -47 -31
-105 3 -105 60 0 37 24 64 68 75 2 1 16 -6 32 -14z m160 0 c56 -29 48 -108
-13 -129 -38 -14 -81 19 -85 63 -4 40 21 71 66 80 2 1 16 -6 32 -14z m160 0
c56 -29 48 -108 -13 -129 -38 -14 -81 19 -85 63 -4 40 21 71 66 80 2 1 16 -6
32 -14z m160 0 c56 -29 48 -108 -13 -129 -38 -14 -81 19 -85 63 -4 40 21 71
66 80 2 1 16 -6 32 -14z m-480 -160 c50 -26 52 -90 5 -121 -47 -31 -105 3
-105 60 0 37 24 64 68 75 2 1 16 -6 32 -14z m195 -39 c12 -35 -10 -77 -48 -90
-55 -20 -113 65 -76 111 34 41 106 29 124 -21z m161 -3 c9 -35 -14 -75 -49
-87 -59 -21 -114 67 -72 114 35 39 109 22 121 -27z m-2904 30 c22 -20 24 -76
2 -97 -35 -36 -91 -28 -114 15 -14 26 -4 76 18 89 26 15 74 12 94 -7z m160 0
c22 -20 24 -76 2 -97 -35 -36 -91 -28 -114 15 -14 26 -4 76 18 89 26 15 74 12
94 -7z m160 0 c18 -16 24 -68 10 -89 -26 -39 -92 -38 -118 2 -19 28 -11 79 14
94 26 15 74 12 94 -7z m160 0 c22 -20 24 -76 2 -97 -50 -50 -137 -8 -120 59
13 53 79 74 118 38z m160 0 c37 -43 27 -93 -24 -114 -72 -29 -127 60 -72 116
21 21 77 19 96 -2z m160 0 c37 -43 27 -93 -24 -114 -72 -29 -127 60 -72 116
21 21 77 19 96 -2z m171 -15 c17 -23 18 -31 8 -57 -25 -59 -110 -62 -131 -5
-30 79 72 131 123 62z m160 0 c20 -26 20 -30 4 -62 -29 -62 -115 -56 -131 9
-6 25 7 63 28 78 24 16 79 2 99 -25z m160 0 c20 -26 20 -30 5 -62 -27 -56
-107 -57 -128 -1 -14 36 -13 38 11 69 29 37 83 33 112 -6z m157 5 c38 -48 7
-107 -55 -107 -43 0 -68 23 -68 63 0 69 81 97 123 44z m163 -4 c15 -22 17 -33
10 -55 -19 -59 -100 -67 -128 -13 -19 36 -19 41 6 73 28 36 83 33 112 -5z
m151 16 c53 -53 3 -137 -70 -119 -29 7 -57 55 -47 81 18 51 83 72 117 38z
m160 0 c56 -57 -2 -145 -76 -114 -43 18 -53 75 -21 112 20 21 76 22 97 2z
m160 0 c55 -56 0 -145 -72 -116 -73 30 -54 131 24 131 18 0 39 -7 48 -15z
m160 -1 c25 -24 30 -61 12 -88 -42 -66 -142 -23 -127 54 9 46 82 68 115 34z
m160 0 c50 -50 8 -137 -59 -120 -53 13 -74 79 -38 118 20 22 76 24 97 2z
m-2402 -161 c22 -20 24 -76 2 -97 -35 -36 -91 -28 -114 15 -14 26 -4 76 18 89
26 15 74 12 94 -7z m160 0 c22 -20 24 -76 2 -97 -35 -36 -91 -28 -114 15 -14
26 -4 76 18 89 26 15 74 12 94 -7z m160 0 c22 -20 24 -76 2 -97 -50 -50 -137
-8 -120 59 13 53 79 74 118 38z m160 0 c22 -20 24 -76 2 -97 -50 -50 -137 -8
-120 59 13 53 79 74 118 38z m160 0 c37 -43 27 -93 -24 -114 -72 -29 -127 60
-72 116 21 21 77 19 96 -2z m160 0 c37 -43 27 -93 -24 -114 -72 -29 -127 60
-72 116 21 21 77 19 96 -2z m171 -15 c20 -26 20 -30 4 -62 -29 -62 -115 -56
-131 9 -6 25 7 63 28 78 24 16 79 2 99 -25z m160 0 c20 -26 20 -30 4 -62 -27
-58 -105 -58 -127 0 -13 34 -13 38 11 68 29 37 83 33 112 -6z m157 5 c35 -44
13 -97 -46 -109 -35 -7 -70 17 -79 56 -9 39 27 80 70 80 25 0 39 -7 55 -27z
m160 0 c35 -44 13 -97 -46 -109 -41 -8 -77 22 -77 64 0 70 80 99 123 45z m163
-4 c25 -34 13 -78 -27 -97 -37 -19 -73 -8 -91 28 -40 77 65 139 118 69z m160
0 c15 -22 17 -33 10 -55 -20 -62 -99 -70 -128 -14 -40 77 65 139 118 69z m160
0 c15 -22 17 -33 10 -55 -20 -62 -99 -70 -128 -14 -40 77 65 139 118 69z m151
15 c57 -57 -8 -152 -79 -114 -65 35 -43 130 31 130 18 0 40 -7 48 -16z m160 0
c53 -53 8 -135 -65 -119 -33 7 -62 55 -51 84 17 49 83 69 116 35z m166 -6 c11
-12 20 -32 20 -45 0 -31 -42 -73 -73 -73 -55 0 -89 80 -50 122 23 25 77 24
103 -4z m160 0 c27 -29 25 -64 -5 -93 -27 -28 -42 -30 -80 -13 -25 11 -42 48
-36 78 10 51 84 68 121 28z m160 0 c11 -12 20 -32 20 -45 0 -27 -41 -73 -65
-73 -20 0 -57 19 -67 34 -13 20 -8 69 9 88 23 25 77 24 103 -4z m160 2 c27
-27 25 -66 -5 -95 -30 -30 -54 -31 -89 -4 -31 24 -35 72 -9 101 22 24 77 24
103 -2z m-2888 -157 c22 -20 24 -76 2 -97 -35 -36 -91 -28 -114 15 -14 26 -4
76 18 89 26 15 74 12 94 -7z m160 0 c22 -20 24 -76 2 -97 -35 -36 -91 -28
-114 15 -14 26 -4 76 18 89 26 15 74 12 94 -7z m160 0 c22 -20 24 -76 2 -97
-50 -50 -137 -8 -120 59 13 53 79 74 118 38z m161 0 c33 -38 22 -94 -23 -113
-74 -31 -131 57 -74 114 21 21 77 20 97 -1z m159 0 c25 -30 29 -53 13 -83 -29
-56 -114 -46 -129 15 -6 25 7 63 28 77 20 14 73 8 88 -9z m160 0 c25 -30 29
-53 13 -83 -29 -56 -114 -46 -129 15 -6 25 7 63 28 77 20 14 73 8 88 -9z m171
-15 c20 -26 20 -30 4 -62 -27 -58 -105 -58 -127 0 -13 34 -13 38 11 68 29 37
83 33 112 -6z m157 5 c25 -32 20 -69 -12 -95 -62 -54 -149 30 -98 95 16 20 30
27 55 27 25 0 39 -7 55 -27z m160 0 c35 -44 13 -97 -46 -109 -35 -7 -70 17
-79 56 -9 39 27 80 70 80 25 0 39 -7 55 -27z m160 0 c25 -32 20 -69 -12 -95
-44 -38 -111 -7 -111 50 0 70 80 99 123 45z m163 -4 c15 -22 17 -33 10 -55
-20 -62 -99 -70 -128 -14 -40 77 65 139 118 69z m160 0 c15 -22 17 -33 10 -55
-20 -62 -99 -70 -128 -14 -40 77 65 139 118 69z m160 0 c15 -22 17 -33 10 -55
-20 -62 -99 -70 -128 -14 -40 77 65 139 118 69z m160 -1 c17 -22 19 -33 11
-55 -21 -61 -100 -69 -129 -13 -40 78 65 139 118 68z m151 16 c55 -54 0 -143
-73 -119 -26 8 -53 58 -44 82 18 51 83 72 117 37z m152 8 c15 -10 34 -47 34
-67 0 -24 -46 -65 -73 -65 -55 0 -89 80 -50 122 16 18 68 24 89 10z m160 0
c15 -10 34 -47 34 -67 0 -24 -46 -65 -73 -65 -55 0 -89 80 -50 122 16 18 68
24 89 10z m174 -14 c11 -12 20 -32 20 -45 0 -27 -41 -73 -65 -73 -20 0 -57 19
-67 34 -13 20 -8 69 9 88 23 25 77 24 103 -4z m160 2 c11 -11 20 -31 20 -45 0
-29 -40 -75 -65 -75 -20 0 -57 19 -67 34 -13 20 -8 69 9 88 22 24 77 24 103
-2z m-2888 -157 c22 -20 24 -76 2 -97 -35 -36 -91 -28 -114 15 -14 26 -4 76
18 89 26 15 74 12 94 -7z m160 0 c22 -20 24 -76 2 -97 -50 -50 -137 -8 -120
59 13 53 79 74 118 38z m160 0 c22 -20 24 -76 2 -97 -50 -50 -137 -8 -120 59
13 53 79 74 118 38z m160 0 c40 -36 8 -123 -47 -123 -67 0 -96 95 -41 132 20
13 69 8 88 -9z m161 0 c14 -17 21 -42 18 -70 0 -7 -10 -22 -21 -33 -59 -59
-152 27 -100 93 25 32 78 37 103 10z m159 0 c25 -29 29 -53 13 -82 -22 -44
-67 -54 -103 -23 -32 26 -37 63 -12 95 26 32 78 37 102 10z m171 -15 c18 -24
18 -30 7 -58 -21 -51 -70 -65 -108 -32 -33 27 -37 63 -11 95 29 37 83 35 112
-5z m157 5 c25 -32 20 -69 -12 -95 -62 -54 -149 30 -98 95 16 20 30 27 55 27
25 0 39 -7 55 -27z m160 0 c25 -32 20 -69 -12 -95 -62 -54 -149 30 -98 95 16
20 30 27 55 27 25 0 39 -7 55 -27z m160 0 c25 -32 20 -69 -12 -95 -44 -38
-111 -7 -111 50 0 70 80 99 123 45z m160 0 c25 -32 20 -69 -12 -95 -44 -38
-111 -7 -111 50 0 70 80 99 123 45z m163 -4 c15 -22 17 -33 10 -55 -20 -62
-99 -70 -128 -14 -40 77 65 139 118 69z m160 0 c15 -22 17 -33 10 -55 -20 -62
-99 -70 -128 -14 -40 77 65 139 118 69z m160 -1 c17 -22 19 -33 11 -55 -21
-61 -100 -69 -129 -13 -40 78 65 139 118 68z m160 0 c17 -22 19 -33 11 -55
-22 -63 -104 -69 -129 -11 -14 34 -11 53 14 81 23 27 79 19 104 -15z m143 24
c15 -10 34 -47 34 -67 0 -24 -46 -65 -73 -65 -55 0 -89 80 -50 122 16 18 68
24 89 10z m160 0 c15 -10 34 -47 34 -67 0 -24 -46 -65 -73 -65 -55 0 -89 80
-50 122 16 18 68 24 89 10z m174 -14 c11 -12 20 -32 20 -45 0 -27 -41 -73 -65
-73 -20 0 -57 19 -67 34 -13 20 -8 69 9 88 23 25 77 24 103 -4z m160 0 c11
-12 20 -32 20 -45 0 -27 -41 -73 -65 -73 -20 0 -57 19 -67 34 -13 20 -8 69 9
88 23 25 77 24 103 -4z m-2888 -155 c42 -37 8 -123 -49 -123 -27 0 -73 41 -73
65 0 20 19 57 34 67 20 13 69 8 88 -9z m160 0 c25 -23 24 -77 -4 -103 -29 -27
-64 -25 -93 5 -30 30 -31 54 -4 89 24 31 72 35 101 9z m160 0 c42 -37 9 -123
-47 -123 -29 0 -75 40 -75 65 0 20 19 57 34 67 20 13 69 8 88 -9z m160 0 c24
-22 24 -77 -2 -103 -27 -27 -66 -25 -95 5 -30 30 -31 54 -4 89 24 31 72 35
101 9z m161 0 c14 -17 21 -42 18 -70 -2 -23 -40 -53 -66 -53 -30 0 -75 41 -75
68 0 11 9 31 21 46 24 31 77 36 102 9z m159 0 c25 -29 29 -53 13 -82 -22 -44
-67 -54 -103 -23 -32 26 -37 63 -12 95 26 32 78 37 102 10z m160 0 c25 -29 29
-53 13 -82 -22 -44 -67 -54 -103 -23 -32 26 -37 63 -12 95 26 32 78 37 102 10z
m163 -3 c26 -29 24 -79 -4 -102 -66 -53 -153 29 -101 95 27 34 78 37 105 7z
m165 -7 c25 -32 20 -69 -12 -95 -62 -54 -149 30 -98 95 16 20 30 27 55 27 25
0 39 -7 55 -27z m160 0 c25 -32 20 -69 -12 -95 -44 -38 -111 -7 -111 50 0 70
80 99 123 45z m160 0 c25 -32 20 -69 -12 -95 -44 -38 -111 -7 -111 50 0 70 80
99 123 45z m163 -4 c15 -22 17 -33 10 -55 -20 -62 -99 -70 -128 -14 -40 77 65
139 118 69z m160 -1 c17 -22 19 -33 11 -55 -21 -61 -100 -69 -129 -13 -40 78
65 139 118 68z m160 0 c26 -34 15 -75 -24 -97 -70 -39 -135 51 -81 112 24 27
80 19 105 -15z m160 0 c17 -22 19 -33 11 -55 -21 -61 -100 -69 -129 -13 -40
78 65 139 118 68z m143 24 c15 -10 34 -47 34 -67 0 -25 -46 -65 -75 -65 -55 0
-87 79 -48 122 16 18 68 24 89 10z m160 0 c15 -10 34 -47 34 -67 0 -24 -46
-65 -73 -65 -55 0 -89 80 -50 122 16 18 68 24 89 10z m160 0 c15 -10 34 -47
34 -67 0 -24 -46 -65 -73 -65 -55 0 -89 80 -50 122 16 18 68 24 89 10z m168
-8 c50 -50 8 -137 -59 -120 -53 13 -74 79 -38 118 20 22 76 24 97 2z m-2884
-164 c38 -38 17 -105 -35 -110 -50 -5 -75 16 -75 65 0 58 69 86 110 45z m162
3 c24 -22 24 -77 -2 -103 -27 -27 -66 -25 -95 5 -30 30 -31 54 -4 89 24 31 72
35 101 9z m161 0 c14 -17 21 -42 18 -70 -2 -23 -40 -53 -66 -53 -30 0 -75 41
-75 68 0 11 9 31 21 46 24 31 77 36 102 9z m160 0 c14 -17 21 -42 18 -70 -2
-23 -40 -53 -66 -53 -30 0 -75 41 -75 68 0 11 9 31 21 46 24 31 77 36 102 9z
m160 0 c14 -17 21 -42 18 -70 -2 -23 -40 -53 -66 -53 -30 0 -75 41 -75 68 0
11 9 31 21 46 24 31 77 36 102 9z m159 0 c25 -29 29 -53 13 -82 -22 -44 -67
-54 -103 -23 -32 26 -37 63 -12 95 26 32 78 37 102 10z m163 -3 c26 -29 24
-79 -4 -102 -66 -53 -153 29 -101 95 27 34 78 37 105 7z m165 -7 c25 -32 20
-69 -12 -95 -62 -54 -149 30 -98 95 16 20 30 27 55 27 25 0 39 -7 55 -27z
m160 0 c25 -32 20 -69 -12 -95 -44 -38 -111 -7 -111 50 0 70 80 99 123 45z
m160 0 c25 -32 20 -69 -12 -95 -44 -38 -111 -7 -111 50 0 70 80 99 123 45z
m160 0 c25 -32 20 -69 -12 -95 -44 -38 -111 -7 -111 50 0 70 80 99 123 45z
m160 0 c25 -32 20 -69 -12 -95 -44 -38 -111 -7 -111 50 0 70 80 99 123 45z
m163 -5 c17 -22 19 -33 11 -55 -21 -61 -100 -69 -129 -13 -40 78 65 139 118
68z m160 0 c26 -34 15 -75 -24 -97 -70 -39 -135 51 -81 112 24 27 80 19 105
-15z m160 0 c26 -34 15 -75 -24 -97 -70 -39 -135 51 -81 112 24 27 80 19 105
-15z m156 6 c27 -35 26 -59 -4 -89 -46 -47 -115 -19 -115 47 0 67 78 94 119
42z m147 18 c15 -10 34 -47 34 -67 0 -25 -46 -65 -75 -65 -55 0 -87 79 -48
122 16 18 68 24 89 10z m160 0 c15 -10 34 -47 34 -67 0 -25 -46 -65 -75 -65
-55 0 -87 79 -48 122 16 18 68 24 89 10z m168 -8 c53 -52 8 -135 -65 -119 -48
11 -67 79 -32 117 20 22 76 24 97 2z m-2722 -161 c24 -22 24 -77 -2 -103 -27
-27 -66 -25 -95 5 -30 30 -31 54 -4 89 24 31 72 35 101 9z m160 0 c24 -22 24
-77 -2 -103 -27 -27 -66 -25 -95 5 -30 30 -31 54 -4 89 24 31 72 35 101 9z
m161 0 c14 -17 21 -42 18 -70 -2 -23 -40 -53 -66 -53 -30 0 -75 41 -75 68 0
11 9 31 21 46 24 31 77 36 102 9z m159 0 c25 -29 29 -53 13 -82 -24 -48 -72
-55 -110 -16 -30 30 -31 54 -4 89 25 31 77 36 101 9z m163 -3 c26 -29 24 -79
-4 -102 -66 -53 -153 29 -101 95 27 34 78 37 105 7z m160 0 c26 -29 24 -79 -4
-102 -66 -53 -153 29 -101 95 27 34 78 37 105 7z m165 -7 c25 -32 20 -69 -12
-95 -62 -54 -149 30 -98 95 16 20 30 27 55 27 25 0 39 -7 55 -27z m160 0 c25
-32 20 -69 -12 -95 -44 -38 -111 -7 -111 50 0 70 80 99 123 45z m160 0 c25
-32 20 -69 -12 -95 -44 -38 -111 -7 -111 50 0 70 80 99 123 45z m160 0 c25
-32 20 -69 -12 -95 -44 -38 -111 -7 -111 50 0 70 80 99 123 45z m160 0 c25
-32 20 -69 -12 -95 -44 -38 -111 -7 -111 50 0 70 80 99 123 45z m159 1 c27
-35 26 -59 -4 -89 -45 -46 -118 -19 -118 43 0 69 80 99 122 46z m164 -6 c17
-22 19 -33 11 -55 -21 -61 -100 -69 -129 -13 -40 78 65 139 118 68z m160 0
c17 -22 19 -33 11 -55 -21 -61 -100 -69 -129 -13 -40 78 65 139 118 68z m156
6 c27 -35 26 -59 -4 -89 -46 -47 -115 -19 -115 47 0 67 78 94 119 42z m160 0
c27 -35 26 -59 -4 -89 -46 -47 -115 -19 -115 47 0 67 78 94 119 42z m160 0
c27 -35 26 -59 -4 -89 -46 -47 -115 -19 -115 47 0 67 78 94 119 42z m147 18
c15 -10 34 -47 34 -67 0 -25 -46 -65 -75 -65 -55 0 -87 79 -48 122 16 18 68
24 89 10z m-2554 -169 c24 -22 24 -77 -2 -103 -27 -27 -66 -25 -95 5 -30 30
-31 54 -4 89 24 31 72 35 101 9z m161 0 c14 -17 21 -42 18 -70 -2 -23 -40 -53
-66 -53 -30 0 -75 41 -75 68 0 11 9 31 21 46 24 31 77 36 102 9z m159 0 c25
-29 29 -53 13 -82 -24 -48 -72 -55 -110 -16 -30 30 -31 54 -4 89 25 31 77 36
101 9z m163 -3 c26 -29 24 -79 -4 -102 -66 -53 -153 29 -101 95 27 34 78 37
105 7z m160 0 c26 -29 24 -79 -4 -102 -66 -53 -153 29 -101 95 27 34 78 37
105 7z m160 0 c26 -29 24 -79 -4 -102 -66 -53 -153 29 -101 95 27 34 78 37
105 7z m165 -7 c25 -32 20 -69 -12 -95 -44 -38 -111 -7 -111 50 0 70 80 99
123 45z m160 0 c25 -32 20 -69 -12 -95 -44 -38 -111 -7 -111 50 0 70 80 99
123 45z m160 0 c25 -32 20 -69 -12 -95 -44 -38 -111 -7 -111 50 0 70 80 99
123 45z m159 1 c27 -35 26 -59 -4 -89 -45 -46 -118 -19 -118 43 0 69 80 99
122 46z m160 0 c27 -35 26 -59 -4 -89 -45 -46 -118 -19 -118 43 0 69 80 99
122 46z m160 0 c27 -35 26 -59 -4 -89 -45 -46 -118 -19 -118 43 0 69 80 99
122 46z m164 -6 c17 -22 19 -33 11 -55 -21 -61 -100 -69 -129 -13 -40 78 65
139 118 68z m156 6 c27 -35 26 -59 -4 -89 -46 -47 -115 -19 -115 47 0 67 78
94 119 42z m160 0 c27 -35 26 -59 -4 -89 -46 -47 -115 -19 -115 47 0 67 78 94
119 42z m147 18 c15 -10 34 -47 34 -67 0 -25 -46 -65 -75 -65 -55 0 -87 79
-48 122 16 18 68 24 89 10z m171 -14 c30 -28 29 -63 -2 -93 -46 -47 -115 -19
-115 47 0 64 69 91 117 46z m-2404 -155 c14 -17 21 -42 18 -70 -2 -23 -40 -53
-66 -53 -30 0 -75 41 -75 68 0 11 9 31 21 46 24 31 77 36 102 9z m162 -3 c26
-29 24 -79 -4 -102 -32 -25 -67 -23 -96 7 -30 30 -31 54 -4 89 26 33 77 36
104 6z m160 0 c26 -29 24 -79 -4 -102 -66 -53 -153 29 -101 95 27 34 78 37
105 7z m160 0 c26 -29 24 -79 -4 -102 -66 -53 -153 29 -101 95 27 34 78 37
105 7z m160 0 c26 -29 24 -79 -4 -102 -66 -53 -153 29 -101 95 27 34 78 37
105 7z m160 0 c59 -65 -27 -157 -96 -102 -48 40 -17 122 46 122 19 0 39 -8 50
-20z m165 -7 c25 -32 20 -69 -12 -95 -44 -38 -111 -7 -111 50 0 70 80 99 123
45z m160 0 c25 -32 20 -69 -12 -95 -44 -38 -111 -7 -111 50 0 70 80 99 123 45z
m159 1 c27 -35 26 -59 -4 -89 -45 -46 -118 -19 -118 43 0 69 80 99 122 46z
m160 0 c27 -35 26 -59 -4 -89 -45 -46 -118 -19 -118 43 0 69 80 99 122 46z
m160 0 c27 -35 26 -59 -4 -89 -45 -46 -118 -19 -118 43 0 69 80 99 122 46z
m164 -6 c26 -34 15 -75 -24 -97 -70 -39 -135 51 -81 112 24 27 80 19 105 -15z
m156 6 c27 -35 26 -59 -4 -89 -46 -47 -115 -19 -115 47 0 67 78 94 119 42z
m160 0 c27 -35 26 -59 -4 -89 -46 -47 -115 -19 -115 47 0 67 78 94 119 42z
m160 0 c27 -35 26 -59 -4 -89 -46 -47 -115 -19 -115 47 0 67 78 94 119 42z
m-2085 -153 c26 -28 24 -80 -4 -103 -31 -25 -66 -23 -95 7 -30 30 -31 54 -4
89 25 32 77 36 103 7z m161 -1 c26 -29 24 -79 -4 -102 -66 -53 -153 29 -101
95 27 34 78 37 105 7z m160 0 c26 -29 24 -79 -4 -102 -66 -53 -153 29 -101 95
27 34 78 37 105 7z m165 -7 c25 -32 20 -69 -12 -95 -62 -54 -149 30 -98 95 30
37 80 37 110 0z m160 0 c25 -32 20 -69 -12 -95 -44 -38 -111 -7 -111 50 0 70
80 99 123 45z m160 0 c25 -32 20 -69 -12 -95 -44 -38 -111 -7 -111 50 0 70 80
99 123 45z m160 0 c25 -32 20 -69 -12 -95 -44 -38 -111 -7 -111 50 0 70 80 99
123 45z m159 1 c27 -35 26 -59 -4 -89 -45 -46 -118 -19 -118 43 0 69 80 99
122 46z m160 0 c27 -35 26 -59 -4 -89 -45 -46 -118 -19 -118 43 0 69 80 99
122 46z m160 0 c27 -35 26 -59 -4 -89 -45 -46 -118 -19 -118 43 0 69 80 99
122 46z m160 0 c27 -35 26 -59 -4 -89 -46 -47 -119 -19 -117 44 2 70 79 98
121 45z m160 0 c27 -35 26 -59 -4 -89 -46 -47 -115 -19 -115 47 0 67 78 94
119 42z m160 0 c27 -35 26 -59 -4 -89 -46 -47 -115 -19 -115 47 0 67 78 94
119 42z m160 0 c27 -35 26 -59 -4 -89 -47 -48 -115 -19 -115 49 0 64 79 90
119 40z m-2088 -152 c48 -39 16 -122 -48 -122 -29 0 -73 41 -73 68 0 11 9 31
21 46 25 31 66 35 100 8z m164 -2 c26 -29 24 -79 -4 -102 -66 -53 -153 29
-101 95 27 34 78 37 105 7z m160 0 c26 -29 24 -79 -4 -102 -66 -53 -153 29
-101 95 27 34 78 37 105 7z m160 0 c26 -29 24 -79 -4 -102 -66 -53 -153 29
-101 95 27 34 78 37 105 7z m160 0 c59 -65 -27 -157 -96 -102 -48 40 -17 122
46 122 19 0 39 -8 50 -20z m165 -7 c25 -32 20 -69 -12 -95 -44 -38 -111 -7
-111 50 0 70 80 99 123 45z m160 0 c25 -32 20 -69 -12 -95 -44 -38 -111 -7
-111 50 0 70 80 99 123 45z m159 1 c27 -35 26 -59 -4 -89 -45 -46 -118 -19
-118 43 0 69 80 99 122 46z m160 0 c27 -35 26 -59 -4 -89 -45 -46 -118 -19
-118 43 0 69 80 99 122 46z m160 0 c27 -35 26 -59 -4 -89 -45 -46 -118 -19
-118 43 0 69 80 99 122 46z m160 0 c27 -35 26 -59 -4 -89 -46 -47 -119 -19
-117 44 2 70 79 98 121 45z m160 0 c27 -35 26 -59 -4 -89 -47 -48 -115 -22
-115 45 0 29 6 43 22 54 34 24 73 20 97 -10z m160 0 c27 -35 26 -59 -4 -89
-47 -48 -115 -19 -115 49 0 64 79 90 119 40z m160 0 c27 -35 26 -59 -4 -89
-47 -48 -115 -19 -115 49 0 64 79 90 119 40z m-2574 -159 c29 -28 31 -51 9
-83 -31 -45 -114 -18 -114 37 0 31 8 44 35 59 30 17 43 15 70 -13z m163 9 c31
-21 31 -87 0 -108 -32 -23 -65 -20 -93 9 -30 30 -31 54 -4 89 24 30 63 34 97
10z m161 -2 c31 -24 31 -79 1 -104 -31 -25 -66 -23 -95 7 -30 30 -31 54 -4 89
24 31 66 35 98 8z m162 0 c48 -39 16 -122 -48 -122 -29 0 -73 41 -73 68 0 11
9 31 21 46 25 31 66 35 100 8z m160 0 c48 -39 16 -122 -48 -122 -29 0 -73 41
-73 68 0 11 9 31 21 46 25 31 66 35 100 8z m164 -2 c26 -29 24 -79 -4 -102
-66 -53 -153 29 -101 95 27 34 78 37 105 7z m160 0 c59 -65 -27 -157 -96 -102
-48 40 -17 122 46 122 19 0 39 -8 50 -20z m160 0 c59 -65 -27 -157 -96 -102
-48 40 -17 122 46 122 19 0 39 -8 50 -20z m325 -7 c25 -32 20 -69 -12 -95 -44
-38 -111 -7 -111 50 0 70 80 99 123 45z m159 1 c27 -35 26 -59 -4 -89 -45 -46
-118 -19 -118 43 0 69 80 99 122 46z m160 0 c27 -35 26 -59 -4 -89 -45 -46
-118 -19 -118 43 0 69 80 99 122 46z m160 0 c27 -35 26 -59 -4 -89 -46 -47
-119 -19 -117 44 2 70 79 98 121 45z m160 0 c27 -35 26 -59 -4 -89 -47 -47
-119 -19 -117 46 2 66 81 94 121 43z m160 0 c27 -35 26 -59 -4 -89 -46 -47
-119 -19 -117 44 2 70 79 98 121 45z m160 0 c27 -35 26 -59 -4 -89 -47 -48
-115 -19 -115 49 0 64 79 90 119 40z m160 0 c27 -35 26 -59 -4 -89 -47 -48
-115 -19 -115 49 0 64 79 90 119 40z m-2571 -150 c47 -33 16 -124 -43 -124
-30 0 -75 41 -75 68 0 11 9 31 21 46 24 30 63 34 97 10z m161 -2 c31 -24 31
-79 1 -104 -31 -25 -66 -23 -95 7 -30 30 -31 54 -4 89 24 31 66 35 98 8z m159
2 c31 -21 31 -87 0 -108 -32 -23 -65 -20 -93 9 -30 30 -31 54 -4 89 24 30 63
34 97 10z m483 -2 c47 -39 16 -122 -46 -122 -57 0 -90 68 -55 113 26 32 67 36
101 9z m160 0 c47 -39 16 -122 -46 -122 -36 0 -68 32 -68 68 0 63 64 93 114
54z m648 -8 c27 -35 26 -59 -4 -89 -46 -47 -118 -19 -118 45 0 66 82 95 122
44z m160 0 c27 -35 26 -59 -4 -89 -46 -47 -118 -19 -118 45 0 66 82 95 122 44z
m320 0 c27 -35 26 -59 -4 -89 -46 -47 -115 -20 -117 44 -2 66 80 97 121 45z
m160 0 c27 -35 26 -59 -4 -89 -47 -48 -115 -22 -115 45 0 29 6 43 22 54 34 24
73 20 97 -10z m160 0 c27 -35 26 -59 -4 -89 -47 -48 -115 -22 -115 45 0 29 6
43 22 54 34 24 73 20 97 -10z m160 0 c12 -15 21 -34 21 -44 0 -10 -9 -29 -21
-44 -41 -53 -119 -21 -119 48 0 64 79 90 119 40z m-2569 -154 c46 -46 14 -120
-51 -120 -30 0 -69 40 -69 70 0 10 9 29 21 44 25 32 70 35 99 6z m801 2 c47
-39 16 -122 -46 -122 -36 0 -68 32 -68 68 0 63 64 93 114 54z m968 -8 c27 -35
26 -59 -4 -89 -46 -47 -118 -19 -118 45 0 66 82 95 122 44z m480 0 c27 -35 26
-59 -4 -89 -47 -47 -119 -19 -117 46 2 66 81 94 121 43z m160 0 c12 -15 21
-34 21 -44 0 -30 -39 -70 -69 -70 -45 0 -71 26 -71 70 0 29 6 43 22 54 34 24
73 20 97 -10z m160 0 c12 -15 21 -34 21 -44 0 -10 -9 -29 -21 -44 -41 -53
-119 -21 -119 48 0 64 79 90 119 40z m-1784 -146 c45 -20 47 -78 3 -111 -24
-18 -30 -18 -57 -7 -50 20 -55 95 -9 118 30 14 33 14 63 0z m1624 -14 c12 -15
21 -34 21 -44 0 -30 -39 -70 -69 -70 -45 0 -71 26 -71 70 0 29 6 43 22 54 34
24 73 20 97 -10z m160 0 c12 -15 21 -34 21 -44 0 -10 -9 -29 -21 -44 -40 -50
-119 -21 -119 44 0 65 79 94 119 44z"/>
</g>
</svg>
